<svg width="2312" height="390" xmlns="http://www.w3.org/2000/svg" xmlns:xlink="http://www.w3.org/1999/xlink"><defs><path id="a" d="M0 0h2312v390H0z"/></defs><g fill="none" fill-rule="evenodd"><path fill="#FFF" d="M0 0h2312v390H0z"/><mask id="b" fill="#fff"><use xlink:href="#a"/></mask><use fill="#242424" xlink:href="#a"/><g mask="url(#b)" opacity=".504"><g transform="translate(-832 -195)"><rect fill="#171717" fill-rule="nonzero" x=".51" y="6.807" width="4348.322" height="850.877" rx="2.38"/><path d="M2156.012 388.766l-35.058 96.132.306-.834z"/><path d="M3260.179 371.748v-34.035a3.403 3.403 0 00-3.402-3.403h-94.423a3.401 3.401 0 00-2.415.987l-48.444 48.483a3.4 3.4 0 00-1.004 2.4v94.48a3.403 3.403 0 003.402 3.404h34.905a3.403 3.403 0 003.316-2.91c4.769-29.694 30.376-51.534 60.437-51.546h17.01a3.403 3.403 0 003.402-3.404V381.96a6.805 6.805 0 016.804-6.807h17.01a3.401 3.401 0 003.402-3.404zm-252.734-120.943l19.578-19.605a3.405 3.405 0 00-2.398-5.803h-19.596a3.403 3.403 0 00-3.402 3.404v19.655a3.403 3.403 0 005.818 2.349zm-164.401 351.242a120.727 120.727 0 0133.067-8.322 3.403 3.403 0 003.045-3.403v-72.223c0-11.278-9.139-20.42-20.412-20.42h-17.01a3.403 3.403 0 00-3.402 3.403v97.936a3.404 3.404 0 004.712 3.029zm141.573-213.281h-42.388c-25.277 0-47.51 18.906-49.33 44.126a47.661 47.661 0 0013.82 37.228 47.616 47.616 0 0037.21 13.825c25.21-1.804 44.107-24.063 44.107-49.351v-42.425a3.404 3.404 0 00-3.419-3.403zm57.834 131.971V392.169a3.403 3.403 0 00-3.402-3.403h-34.02a3.403 3.403 0 00-3.402 3.403v44.246a60.822 60.822 0 01-11.668 35.873 3.405 3.405 0 00.306 4.39l46.386 46.407a3.4 3.4 0 005.8-2.348zm105.462-200.041a3.403 3.403 0 003.402-3.404v-40.025c0-.899-.354-1.762-.987-2.4l-48.46-48.534a3.404 3.404 0 00-2.4-.987h-45.926a3.402 3.402 0 00-2.416.987l-36.316 36.333a3.405 3.405 0 00-.714 3.625 19.442 19.442 0 011.19 6.704 20.422 20.422 0 01-11.532 18.294 3.506 3.506 0 00-2.076 3.115v77.293a3.403 3.403 0 003.402 3.404h34.02a3.403 3.403 0 003.402-3.404V354.68c0-18.797 15.232-34.035 34.02-34.035l71.391.05z" fill="#242424" fill-rule="nonzero"/><ellipse fill="#1D1D1D" fill-rule="nonzero" cx="2994.823" cy="273.046" rx="6.804" ry="6.807"/><path d="M3036.991 583.549a20.237 20.237 0 000 32.452 3.4 3.4 0 005.46-2.757v-26.939a3.404 3.404 0 00-5.46-2.756z" fill="#E5E3E1" fill-rule="nonzero"/><path d="M2896.166 592.976h33.101a20.408 20.408 0 0014.305-5.854l39.464-38.834a34.012 34.012 0 0123.813-9.768h17.742a3.402 3.402 0 002.398-5.82l-46.386-46.407a3.4 3.4 0 00-4.388-.289c-21.374 15.564-50.341 15.564-71.714 0a3.4 3.4 0 00-4.389.29l-11.176 11.197a3.405 3.405 0 00-.493 4.135 33.74 33.74 0 014.287 16.473v71.474a3.404 3.404 0 003.436 3.403zm-94.423-163.367h74.844a3.404 3.404 0 003.317-2.911c4.768-29.694 30.375-51.534 60.437-51.546h44.225a3.403 3.403 0 003.402-3.404v-34.035a3.403 3.403 0 00-3.402-3.403h-94.422a3.402 3.402 0 00-2.415.987l-88.452 88.49a3.405 3.405 0 002.466 5.822zm42.407-69.892l19.578-19.604a3.405 3.405 0 00-2.399-5.803h-19.595a3.403 3.403 0 00-3.402 3.403v19.655a3.403 3.403 0 005.817 2.349zm96.242-147.934h42.967a3.401 3.401 0 003.402-4.05c-5.131-21.435-24.287-36.551-46.318-36.551-22.032 0-41.187 15.116-46.319 36.551a3.405 3.405 0 003.402 4.05h42.866zm-47.628 17.017v88.492a3.403 3.403 0 003.402 3.404h88.451a3.403 3.403 0 003.402-3.404v-22.888a3.506 3.506 0 00-2.075-3.115 20.269 20.269 0 01-11.538-18.294c0-7.813 4.49-14.93 11.538-18.293a3.523 3.523 0 002.075-3.132V228.8a3.403 3.403 0 00-3.402-3.403h-88.451a3.403 3.403 0 00-3.402 3.404zm-2.246 247.878a3.405 3.405 0 00.307-4.407 60.835 60.835 0 01-10.87-26.156 3.402 3.402 0 00-3.317-2.893h-34.904a3.403 3.403 0 00-3.402 3.403v34.036a3.403 3.403 0 003.402 3.403h17.01a33.702 33.702 0 0116.465 4.288 3.4 3.4 0 004.15-.493l11.16-11.18zm-269.914 61.842h77.43a3.402 3.402 0 002.398-5.82l-61.236-61.263a3.401 3.401 0 00-2.398-.987h-12.792a3.403 3.403 0 00-3.402 3.404v64.666zm0 110.904a3.404 3.404 0 001.004 2.399l48.7 48.738a3.401 3.401 0 002.415.987h18.71a3.4 3.4 0 002.416-1.004l21.008-21.289c.628-.634.982-1.49.986-2.382v-94.107a3.403 3.403 0 00-3.402-3.404h-6.804a3.403 3.403 0 00-3.402 3.404v44.245a6.806 6.806 0 01-6.804 6.807H2641a6.805 6.805 0 01-6.804-6.807v-54.456a6.805 6.805 0 016.804-6.807h71.442a3.403 3.403 0 003.402-3.403v-6.807a3.403 3.403 0 00-3.402-3.404h-88.452a3.403 3.403 0 00-3.402 3.404l.017 93.886z" fill="#242424" fill-rule="nonzero"/><rect fill="#242424" fill-rule="nonzero" x="2620.604" y="443.222" width="13.608" height="13.614" rx="2"/><ellipse fill="#242424" fill-rule="nonzero" cx="2668.487" cy="381.959" rx="20.412" ry="20.421"/><path d="M2678.438 266.24h34.02a3.403 3.403 0 003.402-3.404v-87.18a3.404 3.404 0 00-4.065-3.404c-21.388 5.14-36.476 24.264-36.504 46.27h-.255v44.246a3.404 3.404 0 003.402 3.471zm34.02 176.982h-61.236a3.403 3.403 0 00-3.402 3.403v12.849c0 .907.36 1.777 1.004 2.416l61.236 61.263a3.4 3.4 0 005.8-2.416v-74.112a3.403 3.403 0 00-3.402-3.403zm-76.426-19.485a3.405 3.405 0 002.416 5.82h74.01a3.403 3.403 0 003.402-3.404V283.206a3.403 3.403 0 00-3.402-3.404h-34.02a3.403 3.403 0 00-3.402 3.404v62.676a3.403 3.403 0 002.586 3.267 34.042 34.042 0 0110.525 60.57 34.007 34.007 0 01-36.295 1.901 3.4 3.4 0 00-4.134.494l-11.686 11.623z" fill="#242424" fill-rule="nonzero"/><rect fill="#1D1D1D" fill-rule="nonzero" x="2647.82" y="579.362" width="40.824" height="40.842" rx="2"/><path d="M2715.86 157.77V62.029h-47.373c-26.304 0-47.627 21.333-47.627 47.65h-.256v102.104h41.454c3.183-28.337 25.489-50.73 53.802-54.013zm-102.349 269.37l26.536-26.547a33.74 33.74 0 01-5.58-18.566c.009-15.1 9.961-28.39 24.444-32.64a3.403 3.403 0 002.517-3.233V228.8a3.403 3.403 0 00-3.402-3.404h-44.515V427.14z" fill="#242424" fill-rule="nonzero"/><rect fill="#242424" fill-rule="nonzero" x="3110.491" y="497.678" width="40.824" height="13.614" rx="2"/><path d="M3151.315 119.889a3.403 3.403 0 00-3.402-3.404h-34.02a3.403 3.403 0 00-3.402 3.404v94.532c0 .907.36 1.777 1.004 2.417l48.444 48.466a3.404 3.404 0 002.415 1.004h94.423a3.403 3.403 0 003.402-3.404v-34.035a3.403 3.403 0 00-3.402-3.404h-57.834c-26.304 0-47.628-21.333-47.628-47.649V119.89zm-312.983 88.491a3.403 3.403 0 003.402 3.403h34.904a3.402 3.402 0 003.317-2.91c4.834-29.634 30.424-51.396 60.437-51.396 30.012 0 55.602 21.762 60.436 51.396a3.403 3.403 0 003.317 2.91h34.904a3.403 3.403 0 003.402-3.403v-41.285c0-.899-.354-1.761-.986-2.4L2939.83 62.966a3.404 3.404 0 00-2.398-.987h-51.472a6.805 6.805 0 00-6.804 6.807v27.228c0 11.278-9.139 20.421-20.412 20.421h-17.01a3.403 3.403 0 00-3.402 3.404v88.542zm-51.03 17.017a3.403 3.403 0 00-3.402 3.404v38.596a6.809 6.809 0 001.99 4.816l47.458 47.479a3.404 3.404 0 002.415 1.004h39.99a3.403 3.403 0 003.403-3.404v-88.491a3.403 3.403 0 00-3.402-3.404h-88.452zm272.159 422.035h30.618a6.806 6.806 0 006.804-6.807v-85.087a3.403 3.403 0 00-3.402-3.404h-34.02a3.403 3.403 0 00-3.402 3.404v88.49a3.403 3.403 0 003.402 3.404zm37.422-211.017v-44.246a3.403 3.403 0 00-3.402-3.403h-34.02a3.403 3.403 0 00-3.402 3.403v88.492a3.403 3.403 0 003.402 3.403h34.02a3.403 3.403 0 003.402-3.403v-44.246zm0 81.685v-17.018a3.403 3.403 0 00-3.402-3.404h-34.02a3.403 3.403 0 00-3.402 3.404v34.035a3.403 3.403 0 003.402 3.403h34.02a3.403 3.403 0 003.402-3.403v-17.018zm4.984-143.952l34.02-34.035a3.405 3.405 0 00-2.398-5.803h-57.018c-11.273 0-20.412 9.142-20.412 20.42v17.018a3.403 3.403 0 003.402 3.404h40.008a3.401 3.401 0 002.398-1.004zm-8.386-162.365a3.403 3.403 0 003.402-3.403v-88.491a3.403 3.403 0 00-3.402-3.404h-17.01c-11.273 0-20.412 9.143-20.412 20.421v71.474a3.403 3.403 0 003.402 3.403h34.02z" fill="#242424" fill-rule="nonzero"/><path d="M2729.468 218.59v98.702a3.403 3.403 0 003.402 3.404h74.027a3.404 3.404 0 002.399-5.82l-33.033-33.031a20.426 20.426 0 01-5.971-14.431V218.59h.255c-.024-22.218-15.394-41.47-37.047-46.406a3.4 3.4 0 00-4.032 3.403v43.003zm309.582 428.843a3.403 3.403 0 003.401-3.404v-8.254a3.403 3.403 0 00-2.568-3.284c-14.589-4.186-24.642-17.533-24.642-32.716 0-15.184 10.053-28.53 24.642-32.716a3.403 3.403 0 002.568-3.268v-8.253a3.403 3.403 0 00-3.402-3.404h-32.148a20.407 20.407 0 00-14.323 5.854l-39.463 38.834a34.012 34.012 0 01-23.814 9.768h-40.211a106.206 106.206 0 00-79.403 35.09 3.405 3.405 0 002.5 5.753H3039.1h-.05zm-309.582-102.106v17.018a3.403 3.403 0 003.402 3.403h23.083a3.504 3.504 0 003.112-2.076 20.417 20.417 0 019.424-9.41 3.404 3.404 0 002.058-3.115v-6.807h-.255v-27.228a20.425 20.425 0 00-7.489-15.825 20.405 20.405 0 00-16.988-4.205c-9.696 1.89-16.347 10.96-16.347 20.83v27.415z" fill="#242424" fill-rule="nonzero"/><path d="M2729.468 154.74a3.403 3.403 0 002.926 3.404c26.192 4.126 46.774 24.614 51.03 50.797a3.403 3.403 0 003.402 2.91h34.632a3.403 3.403 0 003.402-3.403v-48.585a3.403 3.403 0 00-3.198-3.404 170.048 170.048 0 01-86.75-28.725 3.4 3.4 0 00-5.342 2.757l-.102 24.25zm0 271.464a3.403 3.403 0 003.402 3.404h40.008a3.401 3.401 0 002.398-1.004l48.461-48.466a3.405 3.405 0 00.987-2.417v-40.008a3.403 3.403 0 00-3.402-3.403h-88.452a3.403 3.403 0 00-3.402 3.403v88.491zm464.508 178.446a3.4 3.4 0 004.389-.306l46.386-46.407a3.405 3.405 0 00-2.399-5.803h-70.625a20.404 20.404 0 01-8.743-2.042l-.17-.187a20.417 20.417 0 01-9.27-9.275l-.188-.17a20.429 20.429 0 01-2.041-8.747s.868-6.807-6.804-6.807h-30.618a3.403 3.403 0 00-3.402 3.404v61.263a3.403 3.403 0 003.402 3.403h44.226a60.758 60.758 0 0135.857 11.674z" fill="#242424" fill-rule="nonzero"/><ellipse fill="#1D1D1D" fill-rule="nonzero" cx="2777.351" cy="572.555" rx="6.804" ry="6.807"/><path d="M2729.468 483.962a3.404 3.404 0 005.103 2.961 33.089 33.089 0 0120.038-3.404c17.129 2.4 29.325 18.022 29.325 35.312v25.628h.255v8.986a20.421 20.421 0 0113.65 20.85 20.41 20.41 0 01-38.825 7.126 3.402 3.402 0 00-3.095-2.059h-23.1a3.403 3.403 0 00-3.402 3.404v61.263a3.403 3.403 0 003.402 3.403h53.598a3.402 3.402 0 002.773-1.514 117.173 117.173 0 0134.02-33.644 3.302 3.302 0 001.53-2.79v-162.86a3.403 3.403 0 00-3.401-3.403h-88.452a3.403 3.403 0 00-3.402 3.403l-.017 37.337zm-1238.035-24.488v-12.78a3.403 3.403 0 00-3.402-3.404h-17.01c-26.304 0-47.628 21.333-47.628 47.65v29.797a3.404 3.404 0 005.8 2.416l61.236-61.263a3.404 3.404 0 001.004-2.416zm-50.213 79.046h74.027a3.403 3.403 0 003.402-3.403v-61.263a3.403 3.403 0 00-3.402-3.404h-12.792c-.898 0-1.76.354-2.398.987L1438.82 532.7a3.405 3.405 0 002.398 5.82z" fill="#242424" fill-rule="nonzero"/><rect fill="#242424" fill-rule="nonzero" x="1532.257" y="334.31" width="40.824" height="40.842" rx="2"/><path d="M1587.998 316.645a3.405 3.405 0 003.402 4.05h59.926a3.403 3.403 0 003.402-3.403v-16.898a20.613 20.613 0 00-6.147-14.62 20.594 20.594 0 00-14.707-5.92c-21.936.23-40.878 15.42-45.876 36.791zm-69.349 55.103v-34.035a3.403 3.403 0 00-3.402-3.403h-94.44c-.898 0-1.76.354-2.398.987l-48.444 48.483a3.4 3.4 0 00-1.004 2.4v94.48a3.403 3.403 0 003.402 3.404h34.904a3.403 3.403 0 003.317-2.91c4.768-29.694 30.376-51.534 60.437-51.546h17.01a3.403 3.403 0 003.402-3.404V381.96a6.805 6.805 0 016.804-6.807h17.01a3.401 3.401 0 003.402-3.404z" fill="#242424" fill-rule="nonzero"/><rect fill="#242424" fill-rule="nonzero" x="1641.12" y="170.941" width="40.824" height="40.842" rx="2"/><path d="M1624.11 143.713h-6.804a3.403 3.403 0 00-3.402 3.404v61.263a3.403 3.403 0 003.402 3.403h6.804a3.403 3.403 0 003.402-3.403v-61.263a3.403 3.403 0 00-3.402-3.404zm-358.212 107.092l19.595-19.605a3.405 3.405 0 00-2.415-5.803h-19.579a3.403 3.403 0 00-3.402 3.404v19.655a3.403 3.403 0 005.8 2.349zm-164.384 351.242a120.727 120.727 0 0133.05-8.322 3.403 3.403 0 003.045-3.403v-72.223c0-11.278-9.14-20.42-20.412-20.42h-17.01a3.403 3.403 0 00-3.402 3.403v97.936a3.404 3.404 0 004.729 3.029zm141.573-213.281h-42.405c-25.26 0-47.492 18.906-49.33 44.126a47.661 47.661 0 0013.82 37.228 47.616 47.616 0 0037.21 13.825c25.21-1.804 44.124-24.063 44.124-49.351v-42.425a3.404 3.404 0 00-3.419-3.403zm57.834 131.971V392.169a3.403 3.403 0 00-3.402-3.403h-34.02a3.403 3.403 0 00-3.402 3.403v44.246a60.822 60.822 0 01-11.668 35.873 3.405 3.405 0 00.289 4.39l46.403 46.407a3.4 3.4 0 005.8-2.348zm105.462-200.041a3.403 3.403 0 003.402-3.404v-40.025a3.404 3.404 0 00-1.004-2.4l-48.444-48.534a3.401 3.401 0 00-2.415-.987h-45.927c-.899 0-1.76.354-2.399.987l-36.316 36.333a3.405 3.405 0 00-.714 3.625 19.85 19.85 0 011.19 6.704 20.422 20.422 0 01-11.617 18.345 3.506 3.506 0 00-2.042 3.064v77.293a3.403 3.403 0 003.402 3.404h34.02a3.403 3.403 0 003.402-3.404V354.68c0-18.797 15.231-34.035 34.02-34.035l71.442.05z" fill="#242424" fill-rule="nonzero"/><ellipse fill="#242424" fill-rule="nonzero" cx="1253.293" cy="273.046" rx="6.804" ry="6.807"/><path d="M1295.444 583.549a20.254 20.254 0 000 32.452 3.4 3.4 0 005.477-2.757v-26.939a3.404 3.404 0 00-5.477-2.756z" fill="#E5E3E1" fill-rule="nonzero"/><path d="M1154.636 592.976h33.101a20.408 20.408 0 0014.288-5.854l39.48-38.834a34.012 34.012 0 0123.814-9.768h17.725a3.402 3.402 0 002.415-5.82l-46.386-46.407a3.4 3.4 0 00-4.389-.289c-21.373 15.564-50.34 15.564-71.713 0a3.4 3.4 0 00-4.389.29l-11.176 11.197a3.405 3.405 0 00-.493 4.135 33.74 33.74 0 014.287 16.473v71.474a3.404 3.404 0 003.436 3.403zm-94.44-163.368h74.844a3.402 3.402 0 003.317-2.91c4.768-29.694 30.375-51.534 60.436-51.546h44.226a3.403 3.403 0 003.402-3.404v-34.035a3.403 3.403 0 00-3.402-3.403h-94.37c-.9 0-1.761.354-2.4.987l-88.451 88.49a3.405 3.405 0 002.398 5.82zm42.406-69.891l19.596-19.604a3.405 3.405 0 00-2.416-5.803h-19.578a3.403 3.403 0 00-3.402 3.403v19.655a3.403 3.403 0 005.8 2.349zm96.26-147.934h42.967a3.401 3.401 0 003.402-4.05c-5.131-21.435-24.287-36.551-46.318-36.551-22.032 0-41.187 15.116-46.319 36.551a3.405 3.405 0 003.402 4.05h42.866zm-47.628 17.017v88.492a3.403 3.403 0 003.402 3.404h88.451a3.403 3.403 0 003.402-3.404v-22.888a3.506 3.506 0 00-2.075-3.115 20.269 20.269 0 01-11.538-18.294c0-7.813 4.49-14.93 11.538-18.293a3.523 3.523 0 002.075-3.132V228.8a3.403 3.403 0 00-3.402-3.403h-88.451a3.403 3.403 0 00-3.402 3.404zm-2.246 247.878a3.405 3.405 0 00.307-4.407 60.835 60.835 0 01-10.87-26.156 3.402 3.402 0 00-3.317-2.893h-34.904a3.403 3.403 0 00-3.402 3.403v34.036a3.403 3.403 0 003.402 3.403h17.01a33.702 33.702 0 0116.465 4.288 3.4 3.4 0 004.134-.493l11.175-11.18zm-269.914 58.439a3.403 3.403 0 003.402 3.403h74.028a3.402 3.402 0 002.398-5.82l-61.236-61.263a3.401 3.401 0 00-2.398-.987h-12.792a3.403 3.403 0 00-3.402 3.404v61.263zm0 114.307a3.404 3.404 0 001.004 2.399l48.665 48.738a3.402 3.402 0 002.416.987h18.71a3.402 3.402 0 002.433-1.004l21.008-21.289c.628-.634.982-1.49.986-2.382v-94.107a3.403 3.403 0 00-3.402-3.404h-6.804a3.403 3.403 0 00-3.402 3.404v44.245a6.805 6.805 0 01-6.804 6.807h-54.432a6.806 6.806 0 01-6.804-6.807v-54.456a6.806 6.806 0 016.804-6.807h71.442a3.403 3.403 0 003.402-3.403v-6.807a3.403 3.403 0 00-3.402-3.404h-88.452a3.403 3.403 0 00-3.402 3.404l.034 93.886z" fill="#242424" fill-rule="nonzero"/><rect fill="#242424" fill-rule="nonzero" x="879.074" y="443.222" width="13.608" height="13.614" rx="2"/><ellipse fill="#242424" fill-rule="nonzero" cx="926.957" cy="381.959" rx="20.412" ry="20.421"/><path d="M936.908 266.24h34.02a3.403 3.403 0 003.402-3.404v-87.18a3.404 3.404 0 00-4.065-3.404c-21.38 5.179-36.432 24.332-36.419 46.338h-.255v44.246a3.403 3.403 0 003.317 3.403zm34.02 176.982h-61.236a3.403 3.403 0 00-3.402 3.403v12.849c0 .907.36 1.777 1.004 2.416l61.236 61.263a3.4 3.4 0 005.8-2.416v-74.112a3.403 3.403 0 00-3.402-3.403zm-76.426-19.485a3.405 3.405 0 002.416 5.82h74.01a3.403 3.403 0 003.402-3.404V283.206a3.403 3.403 0 00-3.402-3.404h-34.02a3.403 3.403 0 00-3.402 3.404v62.676a3.403 3.403 0 002.586 3.267 34.042 34.042 0 0110.641 60.66 34.007 34.007 0 01-36.411 1.76 3.4 3.4 0 00-4.134.494l-11.686 11.674zm831.668 19.485a3.403 3.403 0 00-3.402 3.403v61.264a3.403 3.403 0 003.402 3.403h6.804a3.403 3.403 0 003.402-3.403v-61.264a3.403 3.403 0 00-3.402-3.403h-6.804zM1613.904 228.8v36.367a3.404 3.404 0 004.202 3.302 59.799 59.799 0 0118.064-2.195c18.048.561 32.166 15.928 32.166 34.035v17.017a3.403 3.403 0 003.402 3.404h47.628a3.403 3.403 0 013.402 3.403v30.632a34.042 34.042 0 01-11.198 25.241 34.01 34.01 0 01-26.224 8.624c-17.673-1.702-30.618-17.63-30.618-35.38v-15.503a3.403 3.403 0 00-3.402-3.403h-61.236a3.403 3.403 0 00-3.402 3.403v44.246a6.805 6.805 0 01-6.804 6.807h-71.441a3.403 3.403 0 00-3.402 3.403v61.263a3.403 3.403 0 003.402 3.404h8.25a3.402 3.402 0 003.265-2.57c4.183-14.6 17.529-24.661 32.71-24.658h190.852v-204.21h-126.214a3.403 3.403 0 00-3.402 3.369zm72.259 214.422a3.402 3.402 0 00-2.399 5.803l19.596 19.604a3.4 3.4 0 005.8-2.416v-19.588a3.403 3.403 0 00-3.402-3.403h-19.595zm12.791-231.439h34.02a3.403 3.403 0 003.402-3.403v-88.491a3.403 3.403 0 00-3.402-3.404h-88.452a3.403 3.403 0 00-3.402 3.404v34.035a3.403 3.403 0 003.402 3.403h44.226a6.806 6.806 0 016.804 6.807v44.246a3.403 3.403 0 003.402 3.403zm-275.561-102.105v68.07c0 18.797 15.231 34.035 34.02 34.035h57.834a3.403 3.403 0 003.402-3.403V172.2a3.403 3.403 0 00-2.91-3.403c-29.626-4.804-51.426-30.352-51.522-60.378V81.19c0-11.279-9.139-20.421-20.412-20.421h-17.01a3.403 3.403 0 00-3.402 3.403v45.505z" fill="#242424" fill-rule="nonzero"/><rect fill="#242424" fill-rule="nonzero" x="906.29" y="579.362" width="40.824" height="40.842" rx="2"/><path d="M1423.393 283.257v34.035a3.403 3.403 0 003.402 3.404h146.626a61.267 61.267 0 0126.807-44.11v-139.68a6.805 6.805 0 016.804-6.807h17.01a3.403 3.403 0 003.402-3.403v-6.807a3.403 3.403 0 00-3.402-3.404h-88.451a3.403 3.403 0 00-3.402 3.404v32.775a3.403 3.403 0 003.402 3.404h32.318a6.806 6.806 0 016.38 6.807v82.96c0 18.797-15.232 34.036-34.02 34.036h-113.474a3.403 3.403 0 00-3.402 3.386z" fill="#242424" fill-rule="nonzero"/><path d="M1540.32 266.24c11.273 0 20.411-9.143 20.411-20.422v-72.75a3.403 3.403 0 00-3.402-3.403h-21.67a3.403 3.403 0 00-3.402 3.403v89.768a3.403 3.403 0 003.402 3.403h4.66zm152.494 108.52c9.695-1.889 16.346-10.959 16.346-20.846v-16.2a3.403 3.403 0 00-3.402-3.404h-34.02a3.403 3.403 0 00-3.402 3.403v17.018a20.425 20.425 0 007.489 15.824 20.405 20.405 0 0016.989 4.205zM974.33 157.77V62.029h-47.288c-26.304 0-47.627 21.333-47.627 47.65h-.256v102.104h41.488c3.172-28.298 25.416-50.679 53.683-54.013zm642.976 380.75h17.01a20.408 20.408 0 0015.818-7.492 20.428 20.428 0 004.203-16.996c-1.888-9.7-10.954-16.354-20.82-16.354h-16.21a3.403 3.403 0 00-3.403 3.404v34.035a3.403 3.403 0 003.402 3.403zM1503.68 699.319a3.402 3.402 0 003.266 2.57h18.507c11.273 0 20.412-9.143 20.412-20.421v-81.242c0-9.87 6.65-18.94 16.346-20.83a20.405 20.405 0 0116.989 4.205 20.425 20.425 0 017.488 15.825 6.806 6.806 0 006.804 6.807 6.806 6.806 0 006.804-6.807v-43.888a3.403 3.403 0 00-3.402-3.404h-67.223c-.898 0-1.76.354-2.398.987l-60.81 60.855a3.405 3.405 0 00-.307 4.39 60.822 60.822 0 0111.669 35.873v18.465a3.403 3.403 0 002.568 3.267 34.215 34.215 0 0123.287 23.348zM871.981 427.14l26.536-26.547a33.74 33.74 0 01-5.494-18.634c.008-15.1 9.96-28.39 24.443-32.64a3.403 3.403 0 002.517-3.233V228.8a3.403 3.403 0 00-3.402-3.404h-44.6V427.14zm739.338 56.924h12.791a3.403 3.403 0 003.402-3.403v-34.036a3.403 3.403 0 00-3.402-3.403h-46.81a3.402 3.402 0 00-2.398 5.803l34.02 34.035c.635.64 1.497 1 2.398 1.004zm-11.023 11.027a3.404 3.404 0 00-1.003-2.4l-47.9-47.92a3.401 3.401 0 00-3.096-.987c-9.334 2.047-16 10.299-16.04 19.859v71.474a3.403 3.403 0 003.402 3.403h61.235a3.403 3.403 0 003.402-3.403V495.09z" fill="#242424" fill-rule="nonzero"/><path d="M1732.974 552.134h-88.452a3.403 3.403 0 00-3.402 3.404v97.936c0 9.887 6.651 18.957 16.347 20.846a20.405 20.405 0 0016.988-4.205 20.425 20.425 0 007.49-15.824v-33.15a3.506 3.506 0 00-2.059-3.098 20.425 20.425 0 01-11.028-22.944c2.122-9.284 10.378-15.869 19.899-15.869 9.52 0 17.776 6.585 19.898 15.87 2.122 9.284-2.453 18.804-11.028 22.943a3.506 3.506 0 00-2.075 3.097v31.534c0 17.75-12.944 33.66-30.618 35.38a34.01 34.01 0 01-26.223-8.624 34.042 34.042 0 01-11.199-25.242v-98.701a3.403 3.403 0 00-3.402-3.404h-6.804a3.403 3.403 0 00-3.402 3.404v43.071c0 9.887-6.65 18.958-16.346 20.83a20.405 20.405 0 01-16.982-4.2 20.425 20.425 0 01-7.496-15.813 6.805 6.805 0 00-6.803-6.807 6.806 6.806 0 00-6.804 6.807v82.041c0 18.798-15.232 34.036-34.02 34.036h-18.371a3.402 3.402 0 00-3.402 2.688 34.18 34.18 0 01-23.338 23.331 3.403 3.403 0 00-2.568 3.285v18.464c.026 22.112 15.255 41.3 36.775 46.339a3.4 3.4 0 004.049-3.404v-29.39c0-11.277 9.138-20.42 20.412-20.42h140.162a3.402 3.402 0 003.402-2.927c4.18-26.197 24.71-46.742 50.893-50.934a3.403 3.403 0 002.926-3.318V555.538a3.404 3.404 0 00-3.419-3.404zm0-27.228h-17.01a6.806 6.806 0 01-6.804-6.807v-23.008a3.404 3.404 0 00-1.003-2.4l-48.445-48.533a3.401 3.401 0 00-2.415-.987h-12.775a3.403 3.403 0 00-3.402 3.403v35.533c.01 1.49.99 2.801 2.416 3.233 14.667 4.131 24.799 17.515 24.8 32.76a33.11 33.11 0 01-3.861 15.502 3.405 3.405 0 003.01 4.918h65.49a3.403 3.403 0 003.401-3.403v-6.807a3.403 3.403 0 00-3.402-3.404z" fill="#242424" fill-rule="nonzero"/><rect fill="#242424" fill-rule="nonzero" x="1368.961" y="497.678" width="40.824" height="13.614" rx="2"/><path d="M1409.785 119.889a3.403 3.403 0 00-3.402-3.404h-34.02a3.403 3.403 0 00-3.402 3.404v94.532c0 .907.36 1.777 1.004 2.417l48.444 48.466c.635.639 1.498 1 2.398 1.004h94.44a3.403 3.403 0 003.402-3.404v-34.035a3.403 3.403 0 00-3.402-3.404h-57.834c-26.304 0-47.628-21.333-47.628-47.649V119.89zm-312.983 88.491a3.403 3.403 0 003.402 3.403h34.904a3.402 3.402 0 003.317-2.91c4.834-29.634 30.424-51.396 60.437-51.396 30.012 0 55.602 21.762 60.436 51.396a3.403 3.403 0 003.317 2.91h34.904a3.403 3.403 0 003.402-3.403v-41.285a3.404 3.404 0 00-1.003-2.4L1198.3 62.966a3.404 3.404 0 00-2.398-.987h-51.472a6.806 6.806 0 00-6.804 6.807v27.228c0 11.278-9.139 20.421-20.412 20.421h-17.01a3.403 3.403 0 00-3.402 3.404v88.542zm-51.03 17.017a3.403 3.403 0 00-3.402 3.404v38.596a6.809 6.809 0 002.041 4.884l47.458 47.479c.635.639 1.498 1 2.398 1.004h39.957a3.403 3.403 0 003.402-3.404v-88.49a3.403 3.403 0 00-3.402-3.404h-88.452v-.068zm272.159 422.035h30.618a6.806 6.806 0 006.804-6.807v-85.087a3.403 3.403 0 00-3.402-3.404h-34.02a3.403 3.403 0 00-3.402 3.404v88.49a3.403 3.403 0 003.402 3.404zm37.422-211.017v-44.246a3.403 3.403 0 00-3.402-3.403h-34.02a3.403 3.403 0 00-3.402 3.403v88.492a3.403 3.403 0 003.402 3.403h34.02a3.403 3.403 0 003.402-3.403v-44.246zm0 81.685v-17.018a3.403 3.403 0 00-3.402-3.404h-34.02a3.403 3.403 0 00-3.402 3.404v34.035a3.403 3.403 0 003.402 3.403h34.02a3.403 3.403 0 003.402-3.403v-17.018zm4.984-143.952l34.02-34.035a3.405 3.405 0 00-2.416-5.803h-57c-11.273 0-20.412 9.142-20.412 20.42v17.018a3.403 3.403 0 003.402 3.404h39.99c.907 0 1.777-.361 2.416-1.004zm-8.386-162.365a3.403 3.403 0 003.402-3.403v-88.491a3.403 3.403 0 00-3.402-3.404h-17.01c-11.273 0-20.412 9.143-20.412 20.421v71.474a3.403 3.403 0 003.402 3.403h34.02z" fill="#242424" fill-rule="nonzero"/><path d="M987.938 218.59v98.702a3.403 3.403 0 003.402 3.404h74.01a3.402 3.402 0 002.416-5.82l-33.034-33.031a20.426 20.426 0 01-5.97-14.431V218.59h.34c-.024-22.218-15.394-41.47-37.047-46.406a3.4 3.4 0 00-4.032 3.403l-.085 43.003zm309.582 428.843a3.403 3.403 0 003.401-3.404v-8.254a3.403 3.403 0 00-2.568-3.284c-14.589-4.186-24.642-17.533-24.642-32.716 0-15.184 10.053-28.53 24.642-32.716a3.403 3.403 0 002.568-3.268v-8.253a3.403 3.403 0 00-3.402-3.404h-32.166a20.407 20.407 0 00-14.305 5.854l-39.463 38.834a34.012 34.012 0 01-23.814 9.768h-40.263a106.189 106.189 0 00-79.402 35.09 3.405 3.405 0 002.5 5.753h226.913zM987.938 545.327v17.018a3.403 3.403 0 003.402 3.403h23.083a3.504 3.504 0 003.112-2.076 20.297 20.297 0 019.424-9.41 3.523 3.523 0 002.058-3.115v-6.807h-.255v-27.228a20.425 20.425 0 00-7.489-15.825 20.405 20.405 0 00-16.988-4.205c-9.696 1.89-16.347 10.96-16.347 20.83v27.415z" fill="#242424" fill-rule="nonzero"/><path d="M987.938 154.74a3.403 3.403 0 002.926 3.404c26.197 4.116 46.784 24.61 51.03 50.797a3.403 3.403 0 003.402 2.91h34.496a3.403 3.403 0 003.402-3.403v-48.585a3.403 3.403 0 00-3.198-3.404 170.048 170.048 0 01-86.75-28.725 3.4 3.4 0 00-5.342 2.757l.034 24.25zm0 271.464a3.403 3.403 0 003.402 3.404h39.99c.907 0 1.777-.36 2.416-1.004l48.444-48.466a3.407 3.407 0 001.004-2.417v-40.008a3.403 3.403 0 00-3.402-3.403H991.34a3.403 3.403 0 00-3.402 3.403v88.491zm464.508 178.446a3.4 3.4 0 004.388-.306l46.387-46.407a3.405 3.405 0 00-2.399-5.803h-70.625a20.404 20.404 0 01-8.743-2.042l-.187-.187a20.417 20.417 0 01-9.254-9.275l-.187-.17a20.156 20.156 0 01-2.041-8.747s.867-6.807-6.804-6.807h-30.618a3.403 3.403 0 00-3.402 3.404v61.263a3.403 3.403 0 003.402 3.403h44.226a60.758 60.758 0 0135.857 11.674z" fill="#242424" fill-rule="nonzero"/><ellipse fill="#242424" fill-rule="nonzero" cx="1035.821" cy="572.555" rx="6.804" ry="6.807"/><path d="M987.938 483.962a3.404 3.404 0 005.103 2.961 33.089 33.089 0 0120.038-3.404c17.129 2.4 29.325 18.022 29.325 35.312v25.628h.306v8.986a20.421 20.421 0 0113.728 20.815 20.41 20.41 0 01-38.817 7.213 3.402 3.402 0 00-3.096-2.06H991.34a3.403 3.403 0 00-3.402 3.404v61.263a3.403 3.403 0 003.402 3.404h53.581a3.402 3.402 0 002.773-1.515 117.394 117.394 0 0134.02-33.644 3.302 3.302 0 001.53-2.79v-162.86a3.403 3.403 0 00-3.401-3.403H991.39a3.403 3.403 0 00-3.402 3.403l-.05 37.286zm-133.256-40.74a3.403 3.403 0 00-3.402 3.403v61.264a3.403 3.403 0 003.402 3.403h6.804a3.403 3.403 0 003.402-3.403v-61.264a3.403 3.403 0 00-3.402-3.403h-6.804zM742.416 228.8v36.367a3.404 3.404 0 004.219 3.302 59.697 59.697 0 0118.047-2.195c18.065.561 32.166 15.928 32.166 34.035v17.017a3.403 3.403 0 003.402 3.404h47.628a3.403 3.403 0 013.402 3.403v30.632a34.042 34.042 0 01-11.198 25.241 34.01 34.01 0 01-26.224 8.624c-17.673-1.702-30.618-17.63-30.618-35.38v-15.503a3.403 3.403 0 00-3.402-3.403h-61.236a3.403 3.403 0 00-3.401 3.403v44.246a6.806 6.806 0 01-6.804 6.807h-71.442a3.403 3.403 0 00-3.402 3.403v61.263a3.403 3.403 0 003.402 3.404h8.267a3.402 3.402 0 003.265-2.57c4.181-14.594 17.518-24.653 32.694-24.658h190.8v-204.21H745.818a3.403 3.403 0 00-3.402 3.369zm72.361 214.422a3.402 3.402 0 00-2.416 5.803l19.596 19.604a3.4 3.4 0 005.8-2.416v-19.588a3.403 3.403 0 00-3.402-3.403h-19.578zm12.689-231.439h34.02a3.403 3.403 0 003.402-3.403v-88.491a3.403 3.403 0 00-3.402-3.404h-88.452a3.403 3.403 0 00-3.402 3.404v34.035a3.403 3.403 0 003.402 3.403h44.226a6.806 6.806 0 016.804 6.807v44.246a3.403 3.403 0 003.402 3.403z" fill="#242424" fill-rule="nonzero"/><path d="M821.343 374.76c9.678-1.889 16.33-10.959 16.33-20.846v-16.2a3.403 3.403 0 00-3.403-3.404h-34.02a3.403 3.403 0 00-3.402 3.403v17.018a20.425 20.425 0 007.494 15.832 20.405 20.405 0 0017 4.197zm40.143 177.374h-88.452a3.403 3.403 0 00-3.402 3.404v97.936c0 9.887 6.651 18.957 16.347 20.846a20.405 20.405 0 0016.989-4.205 20.425 20.425 0 007.488-15.824v-33.15a3.404 3.404 0 00-2.058-3.098 20.425 20.425 0 01-11.028-22.944c2.122-9.284 10.378-15.869 19.899-15.869 9.52 0 17.776 6.585 19.898 15.87 2.122 9.284-2.453 18.804-11.028 22.943a3.506 3.506 0 00-2.075 3.114v31.534c0 17.75-12.944 33.66-30.618 35.38a34.01 34.01 0 01-26.223-8.624 34.042 34.042 0 01-11.199-25.242v-98.701a3.403 3.403 0 00-3.402-3.404h-6.804a3.403 3.403 0 00-3.402 3.404v43.071c0 9.887-6.65 18.958-16.33 20.83a20.405 20.405 0 01-16.993-4.192 20.425 20.425 0 01-7.5-15.821 6.806 6.806 0 00-6.804-6.807 6.806 6.806 0 00-6.804 6.807v82.042c0 18.797-15.232 34.035-34.02 34.035h-18.456a3.402 3.402 0 00-3.266 2.57 34.164 34.164 0 01-23.287 23.364 3.403 3.403 0 00-2.568 3.285v18.464c.028 22.117 15.265 41.307 36.792 46.339a3.4 3.4 0 004.032-3.404v-29.321c0-11.278 9.138-20.421 20.412-20.421h140.179a3.403 3.403 0 003.317-2.927c4.187-26.2 24.723-46.744 50.91-50.934a3.403 3.403 0 002.91-3.318V555.538a3.405 3.405 0 00-3.454-3.404zm0-27.228h-17.01a6.805 6.805 0 01-6.804-6.807v-23.008c0-.898-.354-1.76-.986-2.4l-48.462-48.533a3.404 3.404 0 00-2.398-.987h-12.792a3.403 3.403 0 00-3.402 3.403v35.533a3.403 3.403 0 002.433 3.233c14.66 4.138 24.784 17.52 24.783 32.76a33.315 33.315 0 01-3.844 15.502 3.405 3.405 0 002.994 4.918h65.488a3.403 3.403 0 003.402-3.403v-6.807a3.403 3.403 0 00-3.402-3.404z" fill="#242424" fill-rule="nonzero"/><ellipse fill="#D43F27" fill-rule="nonzero" cx="2137.403" cy="450.029" rx="6.804" ry="6.807"/><ellipse fill="#599942" fill-rule="nonzero" cx="2151.011" cy="450.029" rx="6.804" ry="6.807"/><ellipse fill="#F7904D" fill-rule="nonzero" cx="2151.011" cy="463.643" rx="6.804" ry="6.807"/><ellipse fill="#2E76BC" fill-rule="nonzero" cx="2137.403" cy="463.643" rx="6.804" ry="6.807"/><path fill="#242424" fill-rule="nonzero" d="M2062.559 547h-40.705v13.614h40.705zm299.494-87.526v-12.78a3.403 3.403 0 00-3.402-3.404h-17.01c-26.304 0-47.628 21.333-47.628 47.65v29.797a3.404 3.404 0 005.818 2.416l61.236-61.263a3.405 3.405 0 00.986-2.416zm-50.196 79.046h74.01a3.403 3.403 0 003.402-3.403v-61.263a3.403 3.403 0 00-3.402-3.404h-12.774a3.401 3.401 0 00-2.416.987l-61.236 61.263a3.405 3.405 0 002.416 5.82z"/><rect fill="#242424" fill-rule="nonzero" x="2402.877" y="334.31" width="40.824" height="40.842" rx="2"/><path d="M2458.619 316.645a3.405 3.405 0 003.402 4.05h59.977a3.403 3.403 0 003.402-3.403v-16.898a20.613 20.613 0 00-6.148-14.62 20.594 20.594 0 00-14.706-5.92c-21.956.206-40.925 15.403-45.927 36.791z" fill="#242424" fill-rule="nonzero"/><rect fill="#242424" fill-rule="nonzero" x="2511.741" y="170.941" width="40.824" height="40.842" rx="2"/><path d="M2494.73 143.713h-6.803a3.403 3.403 0 00-3.402 3.404v61.263a3.403 3.403 0 003.402 3.403h6.804a3.403 3.403 0 003.402-3.403v-61.263a3.403 3.403 0 00-3.402-3.404zm-358.195 107.092l19.579-19.605a3.405 3.405 0 00-2.399-5.803h-19.595a3.403 3.403 0 00-3.402 3.404v19.655a3.403 3.403 0 005.817 2.349z" fill="#242424" fill-rule="nonzero"/><ellipse fill="#242424" fill-rule="nonzero" cx="2123.914" cy="273.046" rx="6.804" ry="6.807"/><path d="M2166.081 583.549a20.237 20.237 0 000 32.452 3.4 3.4 0 005.46-2.757v-26.939a3.404 3.404 0 00-5.46-2.756zm-96.599-371.766h42.967a3.401 3.401 0 003.402-4.05c-5.131-21.435-24.287-36.551-46.318-36.551s-41.187 15.116-46.318 36.551a3.405 3.405 0 003.402 4.05h42.865zm-47.628 17.017v88.492a3.403 3.403 0 003.402 3.404h88.452a3.403 3.403 0 003.402-3.404v-22.888a3.506 3.506 0 00-2.075-3.115 20.269 20.269 0 01-11.538-18.294c0-7.813 4.489-14.93 11.538-18.293a3.523 3.523 0 002.075-3.132V228.8a3.403 3.403 0 00-3.402-3.403h-88.452a3.403 3.403 0 00-3.402 3.404zm-272.159 306.317a3.403 3.403 0 003.402 3.403h74.027a3.402 3.402 0 002.399-5.82l-61.236-61.263a3.401 3.401 0 00-2.399-.987h-12.791a3.403 3.403 0 00-3.402 3.404v61.263zm0 114.307a3.404 3.404 0 001.003 2.399l48.7 48.738a3.402 3.402 0 002.415.987h18.711c.907 0 1.776-.36 2.416-1.004l21.007-21.289c.628-.634.983-1.49.987-2.382v-94.107a3.403 3.403 0 00-3.402-3.404h-6.804a3.403 3.403 0 00-3.402 3.404v44.245a6.805 6.805 0 01-6.804 6.807h-54.432a6.806 6.806 0 01-6.804-6.807v-54.456a6.806 6.806 0 016.804-6.807h71.442a3.403 3.403 0 003.402-3.403v-6.807a3.403 3.403 0 00-3.402-3.404h-88.452a3.403 3.403 0 00-3.402 3.404l.017 93.886z" fill="#242424" fill-rule="nonzero"/><rect fill="#242424" fill-rule="nonzero" x="1749.695" y="443.222" width="13.608" height="13.614" rx="2"/><path d="M1807.529 266.24h34.02a3.403 3.403 0 003.402-3.404v-87.18a3.404 3.404 0 00-4.066-3.404c-21.388 5.14-36.475 24.264-36.503 46.27h-.255v44.246a3.404 3.404 0 003.402 3.471zm34.02 176.982h-61.236a3.403 3.403 0 00-3.402 3.403v12.849a3.4 3.4 0 001.003 2.416l61.236 61.263a3.4 3.4 0 005.8-2.416v-74.112a3.403 3.403 0 00-3.401-3.403zm755.241 0a3.403 3.403 0 00-3.401 3.403v61.264a3.403 3.403 0 003.402 3.403h6.803a3.403 3.403 0 003.402-3.403v-61.264a3.403 3.403 0 00-3.401-3.403h-6.804zM2484.525 228.8v36.367a3.404 3.404 0 004.218 3.302 59.629 59.629 0 0118.048-2.195c18.064.561 32.166 15.928 32.166 34.035v17.017a3.403 3.403 0 003.402 3.404h47.628a3.403 3.403 0 013.402 3.403v30.632a34.042 34.042 0 01-11.199 25.241 34.01 34.01 0 01-26.223 8.624c-17.674-1.702-30.618-17.63-30.618-35.38v-15.503a3.403 3.403 0 00-3.402-3.403h-61.236a3.403 3.403 0 00-3.402 3.403v44.246a6.806 6.806 0 01-6.804 6.807h-71.442a3.403 3.403 0 00-3.402 3.403v61.263a3.403 3.403 0 003.402 3.404h8.25a3.402 3.402 0 003.283-2.57c4.18-14.594 17.518-24.653 32.693-24.658h190.8v-204.21h-126.162a3.403 3.403 0 00-3.402 3.369zm72.275 214.422a3.402 3.402 0 00-2.415 5.803l19.595 19.604a3.4 3.4 0 005.8-2.416v-19.588a3.403 3.403 0 00-3.401-3.403H2556.8zm12.775-231.439h34.02a3.403 3.403 0 003.401-3.403v-88.491a3.403 3.403 0 00-3.401-3.404h-88.452a3.403 3.403 0 00-3.402 3.404v34.035a3.403 3.403 0 003.402 3.403h44.226a6.805 6.805 0 016.804 6.807v44.246a3.403 3.403 0 003.402 3.403zm-275.562-102.105v68.07c0 18.797 15.232 34.035 34.02 34.035h57.834a3.403 3.403 0 003.402-3.403V172.2a3.403 3.403 0 00-2.892-3.403c-29.665-4.802-51.484-30.399-51.54-60.463V81.106c0-11.279-9.139-20.421-20.412-20.421h-17.01a3.403 3.403 0 00-3.402 3.403v45.59z" fill="#242424" fill-rule="nonzero"/><rect fill="#242424" fill-rule="nonzero" x="1776.911" y="579.362" width="40.824" height="40.842" rx="2"/><path d="M2563.4 374.76c9.696-1.889 16.347-10.959 16.347-20.846v-16.2a3.403 3.403 0 00-3.402-3.404h-34.02a3.403 3.403 0 00-3.402 3.403v17.018a20.425 20.425 0 007.488 15.824 20.405 20.405 0 0016.989 4.205zm-718.45-216.99V62.029h-47.372c-26.304 0-47.628 21.333-47.628 47.65h-.255v102.104h41.453c3.183-28.337 25.489-50.73 53.803-54.013zm642.977 380.75h17.01a20.408 20.408 0 0015.817-7.492 20.428 20.428 0 004.203-16.996c-1.888-9.7-10.954-16.354-20.82-16.354h-16.21a3.403 3.403 0 00-3.402 3.404v34.035a3.403 3.403 0 003.402 3.403zm-113.576 160.799a3.402 3.402 0 003.266 2.57h18.456c11.273 0 20.412-9.143 20.412-20.421v-81.242c0-9.87 6.65-18.94 16.347-20.83a20.405 20.405 0 0116.988 4.205 20.425 20.425 0 017.489 15.825 6.806 6.806 0 006.804 6.807 6.805 6.805 0 006.804-6.807v-43.888a3.403 3.403 0 00-3.402-3.404h-67.206a3.402 3.402 0 00-2.416.987l-60.725 60.855a3.405 3.405 0 00-.307 4.39 60.822 60.822 0 0111.67 35.873v18.465a3.403 3.403 0 002.568 3.267 34.18 34.18 0 0123.252 23.348zm107.605-215.255h12.775a3.403 3.403 0 003.402-3.403v-34.036a3.403 3.403 0 00-3.402-3.403h-46.795a3.402 3.402 0 00-2.415 5.803l34.02 34.035a3.401 3.401 0 002.415 1.004zm-11.039 11.027c0-.898-.354-1.76-.987-2.4l-47.9-47.92a3.401 3.401 0 00-3.096-.987c-9.34 2.04-16.014 10.294-16.057 19.859v71.474a3.403 3.403 0 003.402 3.403h61.236a3.403 3.403 0 003.402-3.403V495.09z" fill="#242424" fill-rule="nonzero"/><path d="M2603.595 552.134h-88.452a3.403 3.403 0 00-3.402 3.404v97.936c0 9.887 6.65 18.957 16.346 20.846a20.405 20.405 0 0016.989-4.205 20.425 20.425 0 007.489-15.824v-33.15a3.404 3.404 0 00-2.059-3.098 20.423 20.423 0 01-11.027-22.944c2.122-9.284 10.378-15.869 19.898-15.869s17.776 6.585 19.899 15.87a20.424 20.424 0 01-11.028 22.943 3.506 3.506 0 00-2.075 3.114v31.534c0 17.75-12.945 33.66-30.618 35.38a34.01 34.01 0 01-26.224-8.624 34.042 34.042 0 01-11.198-25.242v-98.701a3.403 3.403 0 00-3.402-3.404h-6.804a3.403 3.403 0 00-3.402 3.404v43.071c0 9.887-6.651 18.958-16.347 20.83a20.405 20.405 0 01-16.982-4.2 20.425 20.425 0 01-7.495-15.813 6.806 6.806 0 00-6.804-6.807 6.805 6.805 0 00-6.804 6.807v82.042c0 18.797-15.231 34.035-34.02 34.035h-18.456a3.402 3.402 0 00-3.266 2.57 34.164 34.164 0 01-23.337 23.33 3.403 3.403 0 00-2.569 3.285v18.464c.027 22.112 15.255 41.3 36.776 46.338a3.4 3.4 0 004.048-3.403v-29.287c0-11.278 9.139-20.421 20.412-20.421h140.111a3.402 3.402 0 003.402-2.927c4.188-26.2 24.723-46.744 50.91-50.934a3.403 3.403 0 002.91-3.318V555.538a3.404 3.404 0 00-3.42-3.404zm17.009-27.228h-34.02a6.805 6.805 0 01-6.803-6.807v-23.008c0-.898-.354-1.76-.987-2.4l-48.461-48.533a3.404 3.404 0 00-2.399-.987h-12.791a3.403 3.403 0 00-3.402 3.403v35.533a3.403 3.403 0 002.568 3.267c14.594 4.185 24.65 17.537 24.648 32.725a33.196 33.196 0 01-3.81 15.418 3.405 3.405 0 002.96 5.003h82.497v-13.614zM1967.422 208.38a3.403 3.403 0 003.402 3.403h34.905a3.403 3.403 0 003.317-2.91c4.833-29.634 30.423-51.396 60.436-51.396s55.602 21.762 60.436 51.396a3.402 3.402 0 003.317 2.91h34.905a3.403 3.403 0 003.402-3.403v-41.285c0-.899-.354-1.761-.987-2.4l-101.634-101.73a3.404 3.404 0 00-2.399-.987h-51.472a6.806 6.806 0 00-6.804 6.807v27.228c0 11.278-9.139 20.421-20.412 20.421h-17.01a3.403 3.403 0 00-3.402 3.404v88.542zm-51.03 17.017a3.403 3.403 0 00-3.402 3.404v38.596a6.809 6.809 0 001.99 4.816l47.458 47.479a3.404 3.404 0 002.416 1.004h39.99a3.403 3.403 0 003.402-3.404v-88.491a3.403 3.403 0 00-3.402-3.404h-88.452zm272.16 422.035h30.618a6.805 6.805 0 006.804-6.807v-85.087a3.403 3.403 0 00-3.402-3.404h-34.02a3.403 3.403 0 00-3.402 3.404v88.49a3.403 3.403 0 003.402 3.404zm34.02-435.649a3.403 3.403 0 003.402-3.403v-88.491a3.403 3.403 0 00-3.402-3.404h-17.01c-11.274 0-20.412 9.143-20.412 20.421v71.474a3.403 3.403 0 003.402 3.403h34.02z" fill="#242424" fill-rule="nonzero"/><path d="M1858.558 218.59v98.702a3.403 3.403 0 003.403 3.404h74.027a3.404 3.404 0 002.398-5.82l-33.033-33.031a20.426 20.426 0 01-5.97-14.431V218.59h.255c-.025-22.218-15.394-41.47-37.048-46.406a3.4 3.4 0 00-4.032 3.403v43.003zm309.582 428.843a3.403 3.403 0 003.402-3.404v-8.254a3.403 3.403 0 00-2.569-3.284c-14.588-4.186-24.641-17.533-24.641-32.716 0-15.184 10.053-28.53 24.641-32.716a3.403 3.403 0 002.569-3.268v-8.253a3.403 3.403 0 00-3.402-3.404h-32.15a20.407 20.407 0 00-14.321 5.854l-39.464 38.834a34.012 34.012 0 01-23.814 9.768h-40.211a106.206 106.206 0 00-79.403 35.09 3.405 3.405 0 002.5 5.753h226.914-.051z" fill="#242424" fill-rule="nonzero"/><path d="M1858.558 154.74a3.403 3.403 0 002.926 3.404c26.193 4.126 46.774 24.614 51.03 50.797a3.403 3.403 0 003.402 2.91h34.632a3.403 3.403 0 003.402-3.403v-48.585a3.403 3.403 0 00-3.198-3.404 170.048 170.048 0 01-86.75-28.725 3.4 3.4 0 00-5.341 2.757l-.103 24.25zm512.885 397.394h-70.626a20.404 20.404 0 01-8.743-2.042l-.17-.187a20.416 20.416 0 01-9.27-9.275l-.187-.17a20.429 20.429 0 01-2.042-8.747 7.49 7.49 0 000-1.191v-56.668a3.403 3.403 0 00-3.402-3.404h-34.02a3.403 3.403 0 00-3.402 3.404v115.719a3.403 3.403 0 003.402 3.403h44.226a60.758 60.758 0 0135.857 11.674 3.4 3.4 0 004.389-.306l46.386-46.407a3.405 3.405 0 00-2.398-5.803z" fill="#242424" fill-rule="nonzero"/><ellipse fill="#242424" fill-rule="nonzero" cx="1906.442" cy="572.555" rx="6.804" ry="6.807"/><rect fill="#242424" fill-rule="nonzero" x="1926.479" y="443.222" width="13.608" height="40.842" rx="2"/><path fill="#171717" fill-rule="nonzero" d="M1872.047 375.152h13.608v54.456h-13.608z"/><ellipse fill="#242424" fill-rule="nonzero" cx="1906.067" cy="436.415" rx="6.804" ry="6.807"/><path d="M2355.13 409.085a61.152 61.152 0 01-3.64 20.523h7.161a3.403 3.403 0 003.283-3.131v-50.679c-.062-13.56 8.852-25.523 21.858-29.338a31.2 31.2 0 015.477-1.089v-7.658a3.403 3.403 0 00-3.402-3.403h-94.422a3.402 3.402 0 00-2.416.987l-6.804 6.807a3.405 3.405 0 002.416 5.803h9.083c33.83-.038 61.303 27.333 61.406 61.178zm-61.236-6.705h-10.206a3.403 3.403 0 00-3.402 3.403v6.807a3.403 3.403 0 003.402 3.404h10.206a6.806 6.806 0 006.804-6.807 6.806 6.806 0 00-6.804-6.807z" fill="#242424" fill-rule="nonzero"/><path d="M1831.224 497.678c0 15.038 12.185 27.228 27.215 27.228v-27.228h-27.215z" fill="#E5E3E1" fill-rule="nonzero"/><path d="M1831.224 361.538h-37.303a3.403 3.403 0 01-3.402-3.404V229.618a3.88 3.88 0 00-3.402-4.22h-44.515v204.21h112.435a3.403 3.403 0 003.402-3.404v-61.263a3.403 3.403 0 00-3.402-3.403h-23.813z" fill="#242424" fill-rule="nonzero"/><path d="M1848.353 334.31a3.403 3.403 0 01-3.402-3.404v-47.649a3.403 3.403 0 00-3.402-3.403h-34.02a3.403 3.403 0 00-3.402 3.403l-.102 61.263a3.403 3.403 0 003.402 3.404h47.627a3.403 3.403 0 003.402-3.404v-6.807a3.403 3.403 0 00-3.402-3.403h-6.701zm295.922 12.967a43.821 43.821 0 0125.668 8.254 1.003 1.003 0 001.599-.8c0-18.797 15.23-34.035 34.02-34.035h71.441a3.403 3.403 0 003.402-3.404v-40.025a3.41 3.41 0 00-.986-2.4l-48.462-48.534a3.404 3.404 0 00-2.398-.987h-45.927a3.401 3.401 0 00-2.415.987l-36.316 36.333a3.405 3.405 0 00-.715 3.625 19.442 19.442 0 011.19 6.704 20.422 20.422 0 01-11.668 18.362 3.404 3.404 0 00-1.94 3.047v53.57a1.004 1.004 0 001.277.954 45.058 45.058 0 0112.23-1.651zM1916.392 538.52a3.403 3.403 0 00-3.402 3.404v2.484h.256v6.722a3.404 3.404 0 001.956 3.063 20.423 20.423 0 0111.637 21.478 20.41 20.41 0 01-38.734 5.614 3.402 3.402 0 00-3.028-1.923h-23.1a3.403 3.403 0 00-3.401 3.404v61.263a3.403 3.403 0 003.402 3.403h53.598a3.402 3.402 0 002.773-1.514 117.173 117.173 0 0134.02-33.644 3.302 3.302 0 001.53-2.79v-67.56a3.403 3.403 0 00-3.402-3.404h-34.105z" fill="#242424" fill-rule="nonzero"/><path d="M1895.98 538.52h-34.02a3.403 3.403 0 00-3.401 3.404v20.42a3.403 3.403 0 003.402 3.404h23.082a3.402 3.402 0 003.045-1.906 20.314 20.314 0 019.644-9.666 3.404 3.404 0 001.906-3.029v-6.807h-.256v-2.484a3.403 3.403 0 00-3.402-3.336zm71.442 3.404v57.094a3.404 3.404 0 004.661 3.114 121.016 121.016 0 0133.118-8.339 3.403 3.403 0 003.045-3.403v-48.466a3.403 3.403 0 00-3.402-3.404h-34.02a3.403 3.403 0 00-3.402 3.404zm290.173-194.409l7.382-7.402a3.405 3.405 0 00-2.398-5.803h-57.017c-11.274 0-20.412 9.142-20.412 20.42v17.018a3.403 3.403 0 003.402 3.404h35.38a3.402 3.402 0 003.25-2.45 34.024 34.024 0 0128.406-24.234 3.571 3.571 0 002.007-.953zm237.135-231.03h-88.451a3.403 3.403 0 00-3.402 3.404v34.035a3.403 3.403 0 003.402 3.403h30.924a6.806 6.806 0 016.379 6.807v81.684c0 18.797-15.231 34.036-34.02 34.036h-112.147a3.403 3.403 0 00-3.402 3.403v34.035a3.403 3.403 0 003.402 3.404h146.694a61.267 61.267 0 0126.808-44.11v-64.803h13.489V130.1h10.325a3.403 3.403 0 003.402-3.403v-6.807a3.403 3.403 0 00-3.402-3.404zm-199.951 95.298a47.49 47.49 0 01-14.374-34.035v-57.86a3.403 3.403 0 00-3.402-3.403h-34.02a3.403 3.403 0 00-3.402 3.404v91.894h55.198z" fill="#242424" fill-rule="nonzero"/><path d="M2385.867 225.397H2249.21l39.82 39.838a3.401 3.401 0 002.416 1.004h94.422a3.403 3.403 0 003.402-3.403v-34.035a3.403 3.403 0 00-3.402-3.404zm44.039-13.614v-37.438a3.403 3.403 0 00-3.402-3.404h-20.225a3.403 3.403 0 00-3.402 3.404v37.438h27.029zm-27.029 13.614v37.439a3.403 3.403 0 003.402 3.403h4.678c11.273 0 20.412-9.142 20.412-20.42v-20.422h-28.492z" fill="#242424" fill-rule="nonzero"/><path fill="#E5E3E1" fill-rule="nonzero" d="M2304.066 443.222h.068l-.05-.034z"/><path d="M2293.894 361.436l-34.02.204c-11.233.056-20.31 9.182-20.31 20.42v71.372a3.403 3.403 0 003.402 3.404h46.557a3.402 3.402 0 002.772-1.447 60.772 60.772 0 0142.321-25.066 3.402 3.402 0 002.739-1.923 47.156 47.156 0 004.27-19.315 47.66 47.66 0 00-13.987-33.73 47.618 47.618 0 00-33.744-13.92zm-.595 68.172h-23.219a3.403 3.403 0 01-3.402-3.404V392.17a3.403 3.403 0 013.402-3.403h23.814a20.409 20.409 0 0115.172 6.655 20.427 20.427 0 015.24 15.723c-1.215 10.643-10.3 18.63-21.007 18.464zm-271.564-13.614h64.196c1.432 0 2.71-.899 3.197-2.246l12.928-35.516.663-1.838c.153-.425.392-.817.562-1.242a43.973 43.973 0 0112.536-17.46 3.217 3.217 0 001.174-2.485v-17.494a3.403 3.403 0 00-3.402-3.403h-88.452a3.403 3.403 0 00-3.402 3.403v20.421a3.403 3.403 0 01-3.402 3.404h-30.618c-18.789 0-34.02 15.238-34.02 34.035v17.017a3.403 3.403 0 003.402 3.404h64.638zm200.837 81.684h-20.531a3.403 3.403 0 00-3.402 3.404v6.807a3.403 3.403 0 01-3.402 3.403h-6.685a3.403 3.403 0 00-3.402 3.404v20.42a3.403 3.403 0 003.402 3.404h34.02a3.403 3.403 0 003.402-3.403v-34.035a3.403 3.403 0 00-3.402-3.404zm-364.632-3.625v-47.65c0-1.88-1.55-3.403-3.461-3.403h-76.018c-1.912 0-3.461 1.524-3.461 3.404v12.848c0 .907.367 1.777 1.021 2.416l63.126 62.08a3.494 3.494 0 002.457 1.004h85.553c7.645 0 13.843-6.095 13.843-13.614v-10.21c0-1.88-1.55-3.404-3.46-3.404h-76.14a3.49 3.49 0 01-2.472-1.02 3.374 3.374 0 01-.989-2.451z" fill="#242424" fill-rule="nonzero"/><path d="M1906.067 456.836a20.411 20.411 0 01-18.353-11.691 3.555 3.555 0 00-3.232-1.923h-9.033a3.403 3.403 0 00-3.402 3.403v34.036a3.403 3.403 0 003.402 3.403h34.02a3.403 3.403 0 003.402-3.403v-20.71a3.405 3.405 0 00-3.878-3.404c-.966.174-1.944.271-2.926.289zM1875.45 334.31a3.403 3.403 0 00-3.403 3.403v88.491a3.403 3.403 0 003.402 3.405h9.033a3.54 3.54 0 003.232-1.941 20.275 20.275 0 0118.362-11.682 20.275 20.275 0 0118.362 11.682 3.523 3.523 0 003.215 1.94h9.032a3.403 3.403 0 003.402-3.404v-33.337c1.665-25.146 22.439-44.749 47.628-44.943h17.01a3.403 3.403 0 003.402-3.404v-6.807a3.403 3.403 0 00-3.402-3.403H1875.45z" fill="#242424" fill-rule="nonzero"/><rect fill="#242424" fill-rule="nonzero" x="1994.519" y="429.608" width="95.256" height="54.456" rx="2"/><path d="M2089.775 507.889v-6.807a3.403 3.403 0 00-3.402-3.404h-20.412a3.403 3.403 0 00-3.402 3.404v30.631a6.805 6.805 0 01-6.804 6.807h-30.499a3.403 3.403 0 00-3.402 3.404v47.649a3.403 3.403 0 003.402 3.403h33.101a20.407 20.407 0 0014.306-5.854l39.463-38.834a34.012 34.012 0 0123.814-9.768h32.064a3.403 3.403 0 003.402-3.403v-20.421a3.403 3.403 0 00-3.402-3.404h-74.844a3.403 3.403 0 01-3.385-3.403z" fill="#242424" fill-rule="nonzero"/><path d="M1980.911 494.275V433.01a3.403 3.403 0 00-3.402-3.403h-20.412a3.403 3.403 0 00-3.402 3.403v64.667c0 15.038 12.185 27.228 27.216 27.228h64.638a3.403 3.403 0 003.402-3.403v-20.421a3.403 3.403 0 00-3.402-3.404h-61.236a3.403 3.403 0 01-3.402-3.403zm241.541-105.509h-61.678a6.804 6.804 0 00-6.395 4.475 6.81 6.81 0 00.819 6.236 6.803 6.803 0 005.576 2.903h34.463a3.403 3.403 0 013.402 3.403v74.878a3.403 3.403 0 003.402 3.403h20.411a3.403 3.403 0 003.402-3.403v-88.492a3.404 3.404 0 00-3.402-3.403z" fill="#242424" fill-rule="nonzero"/><path d="M2180.2 411.535h-27.743a6.804 6.804 0 00-6.38 4.476l-3.401 9.121a6.804 6.804 0 01-6.396 4.476h-29.444a3.403 3.403 0 00-3.402 3.403v61.264a3.403 3.403 0 003.402 3.403h73.296a3.403 3.403 0 003.402-3.403v-79.336a3.403 3.403 0 00-3.334-3.404zm-17.061-44.092a30.17 30.17 0 00-12.91-5.905h-6.022c-12.996 0-24.257 7.283-28.713 19.519l-11.074 30.478s.102 0 0 0a5.665 5.665 0 005.852 4.425h15.037a10.375 10.375 0 007.926-4.459l12.435-34.154a3.402 3.402 0 013.197-2.23h11.244a4.46 4.46 0 003.028-7.675z" fill="#242424" fill-rule="nonzero"/><ellipse fill="#242424" fill-rule="nonzero" cx="2382.465" cy="368.345" rx="6.804" ry="6.807"/></g></g></g></svg>