<svg version="1.1" xmlns="http://www.w3.org/2000/svg" width="1440" height="300" viewBox="0 0 1440 300" fill="none"><g clip-path="url(#clip0)"><path fill="#243A5E" d="M0 0h1440v300H0z"/><mask id="a" mask-type="alpha" maskUnits="userSpaceOnUse" x="0" y="0" width="1440" height="300"><path fill="#22385E" d="M0 0h1440v300H0z"/></mask><g mask="url(#a)"><mask id="b" mask-type="alpha" maskUnits="userSpaceOnUse" x="1037" y="-8" width="403" height="279"><path d="M1037.5-7.018s240.5 254.5 271 269.5c15 7.5 131.5 8 131.5 8v-277.5h-402.5z" fill="#fff"/></mask><g mask="url(#b)"><path opacity=".1" fill-rule="evenodd" clip-rule="evenodd" d="M1921.66 438.858h29.32V409.61h-29.32v29.248zm-31.27 29.819V409.61h29.32v29.819l-29.32 29.248zm60.59 1.379h-59.21l29.32-29.248h29.89v29.248zm-62.55 0h-59.21l22.23-22.176h16.21v-16.17l20.77-20.721v59.067zm-36.4-24.126h13.68v-13.65h-13.68v13.65zm-24.19-36.32h59.21l-20.77 20.721h-16.21v16.17l-22.23 22.176V409.61zm-31.27 60.446h29.32V409.61h-29.32v60.446zm-1.95-22.985c-2.78-5.287-8.27-8.941-14.66-8.941h-14.66v-28.52h29.32v37.461zm0 22.985h-13.69v-15.599h-15.63V440.08h14.66c8.08 0 14.66 6.562 14.66 14.624v15.352zm-29.32 0h13.68v-13.649h-13.68v13.649zm-1.96-31.926h-21.6c-.49-4.374-4.18-7.799-8.69-7.799-4.77 0-8.64 3.806-8.77 8.527h-21.53V409.61h60.59v28.52zm-37.13.975c0-3.762 3.07-6.824 6.84-6.824s6.84 3.062 6.84 6.824c0 3.763-3.07 6.825-6.84 6.825s-6.84-3.062-6.84-6.825zm37.13 15.352v15.599h-60.59v-29.248h21.68c.8 4.025 4.36 7.072 8.62 7.072 4.51 0 8.2-3.425 8.69-7.8h21.6v14.377zm-62.54-15.599h-27.94l27.94-27.869v27.869zm0 31.198h-27.94l27.94-27.87v27.87zm-58.48-29.248h57.1l-28.55 28.48-28.55-28.48zm-2.11 29.248v-28.597l28.66 28.597h-28.66zm-1.95-33.304l-27.21-27.142h27.21v27.142zm-37.14 33.304h37.14v-29.249h-37.14v29.249zm-1.96-31.198v31.198h-21.5V409.61h30.62l29.32 29.248h-38.44zm-23.45 31.198h-60.59v-29.248h30.3c13.93 0 25.79-8.88 30.29-21.251v50.499zM1484 438.858h29.17V409.61H1484v29.248zm29.17 31.198h-60.4c.53-16.212 13.87-29.248 30.25-29.248h30.15v29.248zm-60.59-29.248V409.61h29.46v29.297c-13.66.412-25.18 9.317-29.46 21.607v-19.706zm-31.28-1.95h29.32V409.61h-29.32v29.248zm29.32 31.198h-59.21l29.32-29.248h29.89v29.248zm-60.59-60.446h29.32v29.819l-29.32 29.248V409.61zm-1.95 60.446h-59.21l22.23-22.176h16.21v-16.17l20.77-20.721v59.067zm-36.41-24.126h13.68v-13.65h-13.68v13.65zm-24.18-36.32h59.2l-20.77 20.721h-16.2v16.17l-22.23 22.176V409.61zm-31.27 60.446h29.31V409.61h-29.31v60.446zm-1.96-22.985c-2.78-5.287-8.27-8.941-14.66-8.941h-14.66v-28.52h29.32v37.461zm0 22.985h-13.68v-15.599h-15.64V440.08h14.66c8.08 0 14.66 6.562 14.66 14.624v15.352zm-29.32 0h13.68v-13.649h-13.68v13.649zm-1.95-31.926h-21.6c-.5-4.374-4.18-7.799-8.7-7.799-4.76 0-8.63 3.806-8.77 8.527h-21.52V409.61h60.59v28.52zm-37.14.975c0-3.762 3.07-6.824 6.84-6.824s6.84 3.062 6.84 6.824c0 3.763-3.07 6.825-6.84 6.825s-6.84-3.062-6.84-6.825zm37.14 15.352v15.599h-60.59v-29.248h21.67c.8 4.025 4.36 7.072 8.62 7.072 4.52 0 8.2-3.425 8.7-7.8h21.6v14.377zm-62.55-15.599h-27.93l27.93-27.869v27.869zm0 31.198h-27.93l27.93-27.87v27.87zm-58.48-29.248h57.1l-28.55 28.48-28.55-28.48zm-2.11 29.248v-28.597l28.67 28.597h-28.67zm-1.95-33.304l-27.21-27.142h27.21v27.142zm-37.14 33.304h37.14v-29.249h-37.14v29.249zm-1.95-31.198v31.198h-21.5V409.61h30.62l29.32 29.248h-38.44zm-23.46 31.198h-60.59v-29.248h30.3c13.93 0 25.8-8.88 30.29-21.251v50.499zm-91.709-31.198h29.169V409.61h-29.169v29.248zm29.169 31.198h-60.392c.523-16.212 13.871-29.248 30.246-29.248h30.146v29.248zm-60.59-60.446h29.466v29.297c-13.659.412-25.187 9.317-29.466 21.607V409.61zm0-38.998l6.798 6.783.691.689 22.114 22.062.692.689 6.799 6.783H952.22v-37.006zm0-23.441h29.466v7.61L960.4 376.016l-8.18-8.162v-20.683zm0-61.36l29.466 29.397v30.013H952.22v-59.41zm46.908-18.585h13.682v-29.248h-13.682v29.248zm0 15.599h13.682v-13.649h-13.682v13.649zm-31.272-15.599h29.318v-29.248h-29.318v29.248zm30.039 46.603h-14.827l-29.123-29.054H1012.81v14.175l-14.915 14.879zm1.382 16.17v-14.791l13.533-13.501V343.5l-13.533-13.501zm-15.636-.571h13.681v-13.649h-13.681v13.649zm14.254 1.95l13.875 13.843h-28.129v-13.843h14.254zm7.135 45.042l-21.389-21.343v-7.906h29.169v29.249h-7.78zm-22.515 21.658l-20.733-20.683 20.733-20.684 20.735 20.684-20.735 20.683zm22.515-19.709h7.78v29.249h-20.733l-8.181-8.162 21.134-21.087zm-52.81-155.99h60.59v13.649h-46.909v33.148h31.273v13.649H952.22v-60.446zm0-46.797h14.254l44.956 44.847h-59.21v-44.847zm0-1.95h13.681v-13.65H952.22v13.65zm0-76.046h29.466v13.748c-8.7.516-15.635 7.669-15.635 16.475 0 4.18 1.61 7.96 4.177 10.879l-18.008 17.966V97.586zm0-62.396h29.318v60.446H952.22V35.19zm31.47-1.95c.51-15.835 13.266-28.605 29.12-29.19v29.19h-29.12zm-.198 31.198h29.318V35.19h-29.318v29.248zm0 31.198h29.318V66.388h-29.318v29.248zm-15.487 32.173c0-8.061 6.577-14.623 14.659-14.623 8.081 0 14.658 6.562 14.658 14.623 0 8.063-6.577 14.624-14.658 14.624-8.082 0-14.659-6.561-14.659-14.624zm44.805 32.173v59.068l-44.954-44.847v-14.221h44.954zm-44.954-1.949h-14.255l17.996-17.953c2.945 2.647 6.801 4.304 11.067 4.304 9.162 0 16.613-7.435 16.613-16.575 0-8.806-6.936-15.959-15.636-16.475V97.586h29.169v60.447h-44.954zM952.22-27.206h60.59V2.1c-16.93.587-30.562 14.232-31.074 31.141H952.22v-60.446zm0-62.397h29.466v29.298c-13.659.411-25.187 9.317-29.466 21.607v-50.905zm60.59 31.199v29.248h-60.392c.523-16.212 13.871-29.248 30.246-29.248h30.146zm-29.169-1.95h29.169v-29.249h-29.169v29.249zm31.119 438.723h31.28v-31.198h6.93a63.924 63.924 0 0022.38 22.327v38.12h-60.59v-29.249zm0-30.162l13.69 13.649v14.564h-13.69v-28.213zm15.64 28.213h13.68v-13.649h-13.68v13.649zm-.23-15.599l-13.68-13.65h27.59v13.65h-13.91zm-15.41-76.046h37.03a62.867 62.867 0 00-7.71 30.223c0 10.938 2.8 21.234 7.71 30.223h-37.03v-60.446zm0-17.549v-29.248h21.75c.5 4.374 4.18 7.8 8.7 7.8 4.85 0 8.79-3.939 8.79-8.775 0-4.503-3.43-8.182-7.81-8.676v-5.948h29.16v38.12a63.92 63.92 0 00-22.38 22.326h-38.21v-15.599zm30.45-37.048c3.77 0 6.84 3.063 6.84 6.825 0 3.763-3.07 6.825-6.84 6.825s-6.84-3.062-6.84-6.825c0-3.762 3.07-6.825 6.84-6.825zm-30.45-7.799h29.47v5.948a8.746 8.746 0 00-7.72 7.701h-21.75v-13.649zm0-39.973c0-8.062 6.58-14.624 14.66-14.624s14.66 6.562 14.66 14.624v15.599c0 9.14 7.45 16.574 16.62 16.574 5.7 0 11.67-3.016 14.65-10.713v16.563h-60.59v-38.023zm0-22.424h60.59v32.033c0 12.716-5.61 20.614-14.65 20.614-8.09 0-14.66-6.562-14.66-14.624v-15.599c0-9.14-7.45-16.574-16.62-16.574-6.38 0-11.88 3.654-14.66 8.94v-14.79zm0-62.396h60.59v29.82l-30.7 30.627h-29.89V97.586zm0-33.148V35.19h29.32v30.627l29.89 29.82h-59.21v-31.2zm0-60.404c16 .434 28.91 13.272 29.42 29.206h-29.42V4.034zm0-31.24h3.08c15.45 14.729 35.81 22.905 57.51 23.147v37.3h-29.21c-.52-17.01-14.31-30.721-31.38-31.157v-29.29zm0-31.198h30.3c13.93 0 25.8-8.88 30.29-21.251v50.499h-60.59v-29.248zm0-31.199h60.54c-.52 16.213-13.87 29.248-30.24 29.248h-30.3v-29.248zm60.59 83.594c-20.46-.232-39.67-7.739-54.54-21.197h54.54v21.197zm0 100.267l-29.31-29.248V35.19h29.31v59.068zm0 63.775h-27.93l27.93-27.87v27.87zm0 189.138v20.048a61.875 61.875 0 01-20.09-20.048h20.09zm-20.09-64.346a61.872 61.872 0 0120.09-20.047v20.047h-20.09zm20.09 1.95v60.446h-21.28c-5.09-8.934-8.03-19.234-8.03-30.223 0-10.989 2.94-21.288 8.03-30.223h21.28zm-.05 124.835c-.52 16.212-13.87 29.248-30.24 29.248h-30.3V409.61h60.54zm2.01-38.925a63.248 63.248 0 0030.29 7.684h30.3v29.249h-29.2l-.41-.4-.4.4h-30.58v-36.933zm0-23.514h60.59v29.249h-30.3c-11.01 0-21.34-2.939-30.29-8.015v-21.234zm0-62.396h29.32v21.548c-4.39.493-7.82 4.172-7.82 8.675 0 4.837 3.95 8.775 8.79 8.775 4.52 0 8.21-3.426 8.7-7.799h21.6v29.247h-60.59v-60.446zm0-23.184a61.232 61.232 0 0129.91-7.995l1.36 1.36v-1.379h29.32v29.248h-60.59v-21.234zm0-37.834l28.05 27.984c-10.12.354-19.66 3.013-28.05 7.571v-35.555zm0-32.576h14.66c3.69 0 7.02 1.412 9.6 3.665l-24.26 24.204v-27.869zm0-31.199h29.37c.24 8.132 3.52 15.503 8.75 21.042l-12.48 12.444c-2.93-2.606-6.75-4.237-10.98-4.237h-14.66v-29.249zm0-31.769l30.7-30.627h29.89v29.298c-17 .512-30.71 14.19-31.22 31.149h-29.37v-29.82zm0-30.627h27.93l-27.93 27.87v-27.87zm0-1.95h29.32V35.19h-29.32v60.446zm0-99.65h5.94c.41 8.777 7.64 15.805 16.54 15.805 4.22 0 8.05-1.632 10.98-4.236l4.66 4.643c-5.23 5.54-8.51 12.911-8.75 21.042h-29.37V-4.013zm0-23.192h21.5v5.948c-8.3.492-14.92 7.042-15.52 15.295h-5.98v-21.243zm0-62.397h30.62l29.32 29.248h-38.44v31.199h-21.5v-60.447zm60.59 0v27.143l-27.21-27.143h27.21zm1.95 468.022c15.93.511 28.76 13.314 29.27 29.199h-29.27v-29.199zm0-31.248h60.59v60.447h-29.36c-.52-16.959-14.23-30.637-31.23-31.149v-29.298zm0-31.197h45.06c.49 8.349 7.16 15.004 15.53 15.499v13.748h-60.59v-29.247zm0-31.199h60.59v13.748c-8.37.495-15.04 7.151-15.53 15.5h-45.06v-29.248zm0-31.769l30.7-30.627h29.89v13.748c-8.7.516-15.63 7.668-15.63 16.475 0 8.807 6.93 15.959 15.63 16.475v13.748h-60.59v-29.819zm0-30.627h27.94l-27.94 27.87v-27.87zm0-31.248a32.12 32.12 0 0021.09-8.728l38.12 38.026h-28.83l-.24-.244-.25.244h-29.89v-29.298zm0-31.149h29.27c-.51 15.885-13.34 28.688-29.27 29.199v-29.199zm0-1.949h29.32v-29.249h-29.32v29.249zm0-31.198h29.32V97.586h-29.32v29.249zm0-91.645h29.32v21.548c-4.38.493-7.82 4.172-7.82 8.675 0 4.504 3.44 8.183 7.82 8.675v21.548h-29.32V35.19zm0-31.148c15.93.51 28.76 13.313 29.27 29.198h-29.27V4.042zm0-31.248h30.62l29.97 29.9V33.24h-29.36c-.52-16.958-14.23-30.637-31.23-31.149v-29.297zm0-30.547l28.67 28.597h-28.67v-28.597zm0-31.85h59.21l-29.32 29.248h-29.73l-.16-.156v-29.092zm60.59 29.248h-27.93l27.93-27.869v27.87zm0 33.15v27.14l-27.2-27.14h27.2zm-29.93-2.719l-28.55-28.48h57.1l-28.55 28.48zm29.93-27.102v27.87h-27.93l27.93-27.87zm-29.36 217.008h29.36v59.068l-38.11-38.026c5.23-5.539 8.5-12.91 8.75-21.042zm5.91-94.57c0 3.764-3.07 6.826-6.84 6.826s-6.84-3.062-6.84-6.825c0-3.762 3.07-6.825 6.84-6.825s6.84 3.063 6.84 6.825zm-1.38-6.824a8.73 8.73 0 00-4.48-1.85V35.19h27.93l-23.45 23.398zm-4.48 37.048V74.09c4.38-.493 7.81-4.172 7.81-8.676 0-2.068-.75-3.943-1.95-5.446l23.45-23.398v59.067h-29.31zm0 62.397h29.31v-29.249h-29.31v29.249zm0-31.198h29.31V97.586h-29.31v29.249zm29.31 140.292c-7.62-.512-13.68-6.796-13.68-14.525s6.06-14.013 13.68-14.525v29.05zm0 62.396c-7.62-.512-13.68-6.796-13.68-14.525s6.06-14.012 13.68-14.525v29.05zm-60.59 80.087h59.21l-29.32 29.248h-29.73l-.16-.157V409.61zm-31.27-313.974h29.32V35.19h-29.32v60.446zm29.32-91.594V33.24h-29.27c.51-15.885 13.35-28.688 29.27-29.198zm-37.14-33.198h37.14v-29.248h-37.14v29.248zm-.97 38.997c-8.09 0-14.66-6.561-14.66-14.624 0-8.062 6.57-14.624 14.66-14.624 8.08 0 14.65 6.562 14.65 14.624 0 8.063-6.57 14.624-14.65 14.624zm16.61-14.624c0-8.806-6.94-15.958-15.64-16.475v-5.948h37.14V2.091a32.118 32.118 0 00-21.09 8.73l-4.66-4.645c2.61-2.926 4.25-6.74 4.25-10.959zm-7.82 256.41h29.32v-29.248h-29.32v29.248zm.05-93.594c.51-15.885 13.35-28.689 29.27-29.199v29.199h-29.27zm29.27 1.949v29.199c-15.92-.511-28.76-13.314-29.27-29.199h29.27zm-33.57 34.864l12.48-12.443a32.12 32.12 0 0021.09 8.728v29.298h-29.32v-14.624c0-4.218-1.63-8.032-4.25-10.959zm2.3 27.533v27.87l-27.94-27.87h27.94zm-27.94-1.95l24.26-24.204c2.26 2.573 3.68 5.901 3.68 9.58v14.624h-27.94zm35.75 94.569c0 3.763-3.06 6.825-6.84 6.825-3.77 0-6.84-3.062-6.84-6.825 0-3.763 3.07-6.824 6.84-6.824 3.78 0 6.84 3.061 6.84 6.824zm-5.86-8.675v-21.548h29.32v29.248h-21.6a8.746 8.746 0 00-7.72-7.7zm93.82 40.848h59.21l-59.21 59.068v-59.068zm0-15.698c8.37-.495 15.04-7.15 15.53-15.499h45.06v29.247h-60.59v-13.748zm0-31c7.62.513 13.68 6.796 13.68 14.525s-6.06 14.013-13.68 14.525v-29.05zm0-15.698h29.32v29.248h-13.79c-.49-8.349-7.16-15.005-15.53-15.5v-13.748zm0-1.95h29.32v-60.446h-29.32v60.446zm0-91.644h29.32v29.248h-29.32v-29.248zm0-1.95h29.32v-29.249h-29.32v29.249zm0-31.198h29.32v-29.249h-29.32v29.249zm0-60.447h59.21l-29.32 29.248h-29.89V97.586zm15.63-17.548h13.69v-13.65h-13.69v13.65zM1202.4 35.19h29.89l14.66 14.624-14.66 14.624h-16.21v17.55h17.59v-16.17l14.66-14.625 14.66 14.624v29.82h-60.59V35.19zm0-1.95h29.32v-60.446h-29.32V33.24zm0-91.644h21.67c.8 4.025 4.36 7.072 8.62 7.072 4.52 0 8.2-3.425 8.7-7.8h21.6v29.976h-60.59v-29.248zm37.13-1.703c0 3.763-3.07 6.825-6.84 6.825s-6.84-3.062-6.84-6.825c0-3.763 3.07-6.824 6.84-6.824s6.84 3.061 6.84 6.824zm-37.13-29.496h60.59v28.522h-21.6c-.5-4.375-4.18-7.8-8.7-7.8-4.76 0-8.63 3.806-8.77 8.526h-21.52v-29.248zm60.59 124.793v27.87l-27.94-27.87h27.94zm-29.32-26.156h29.32v-36.24h-29.32v36.24zm0 24.206h29.32V10.984h-29.32V33.24zm0 280.783h29.32v-29.248h-29.32v29.248zm0-31.198h29.32v-29.248h-29.32v29.248zm0-31.198h29.32v-29.248h-29.32v29.248zm0-93.594v-29.82l29.32-29.248v59.068h-29.32zm0 46.797h13.68v-13.649h-13.68v13.649zm15.64 1.949v-17.548h-15.64v-29.249h29.32v60.447h-29.32v-13.65h15.64zm-45.53 200.839l59.21-59.068v59.068h-59.21zm61.16-60.447h29.37c.51 16.959 14.22 30.637 31.22 31.149v13.699h-37.25c-.5-4.375-4.18-7.8-8.7-7.8-4.85 0-8.79 3.938-8.79 8.775 0 2.071.75 3.953 1.96 5.455l-7.81 7.79v-59.068zm0-31.197h13.78a16.435 16.435 0 004.15 9.983l-17.93 17.886v-27.869zm0-31.199h29.32v13.748c-8.37.495-15.04 7.151-15.54 15.5h-13.78v-29.248zm0-31.149c15.92.511 28.76 13.315 29.27 29.199h-29.27v-29.199zm0-31.247h59.21l-38.12 38.026a32.12 32.12 0 00-21.09-8.729v-29.297zm0-49.989l12.33 12.301 11.06 11.029-23.39 23.33v-46.66zm0-12.408h44.96v14.221l-9.2 9.176c-3.04-2.7-6.88-4.233-10.99-4.233s-7.95 1.533-10.99 4.233l-13.78-13.746v-9.651zm0-37.38c8.6 9.751 13.41 22.187 13.64 35.431h-13.64v-35.431zm0-25.016h29.37c.51 16.959 14.22 30.636 31.22 31.149v13.698h-15.63v15.6h-29.37c-.24-14.478-5.73-28.057-15.59-38.389V97.586zm0-31.198h50.62c-12.11 4.38-20.84 15.775-21.25 29.248h-29.37V66.388zm0-1.95h60.59V35.19h-60.59v29.248zm13.62-54.43l9.67-9.65 9.67 9.65-9.67 9.652-9.67-9.651zm-13.62.976h11.83l11.46 11.433 12.44-12.408L1288.23-2.4l-11.46 11.433h-11.83v-36.24h29.41c.87 16.622 14.43 29.917 31.18 30.42V33.24h-60.59V10.984zm0-40.14h13.68v-13.65h-13.68v13.65zm0-29.976h14.66c8.08 0 14.66 6.562 14.66 14.625v15.35h-13.68v-15.598h-15.64v-14.377zm0-30.47h29.32v37.46c-2.78-5.286-8.27-8.94-14.66-8.94h-14.66v-28.52zm31.28 60.446h29.31v-60.447h-29.31v60.447zm29.31 30.42c-15.68-.502-28.36-12.922-29.23-28.47h29.23v28.47zm-29.27 94.372c.52-15.885 13.35-28.688 29.27-29.198v29.198h-29.27zm29.27 1.95v29.199c-15.92-.51-28.75-13.314-29.27-29.199h29.27zm0 249.585v29.199c-15.92-.51-28.75-13.314-29.27-29.199h29.27zm-29.31-15.698c8.69-.515 15.63-7.668 15.63-16.475 0-8.807-6.94-15.959-15.63-16.475v-13.748h29.31v60.446h-29.31v-13.748zm-10.59-5.516l20.59-20.539c2.26 2.573 3.68 5.901 3.68 9.58 0 8.063-6.58 14.624-14.66 14.624-3.69 0-7.03-1.412-9.61-3.665zm8.63 5.516v13.748h-27.94l17.93-17.886a16.483 16.483 0 0010.01 4.138zm-6.84-69.689l38.11-38.027v59.068h-29.36c-.25-8.131-3.52-15.502-8.75-21.041zm17.42 42.256l-20.59 20.538c-2.26-2.573-3.67-5.901-3.67-9.58 0-8.062 6.58-14.624 14.66-14.624 3.68 0 7.02 1.413 9.6 3.666zm7.01-146.007h13.68v-13.649h-13.68v13.649zm0 15.599h13.68v-13.65h-13.68v13.65zm-31.79 11.082a14.544 14.544 0 019.65-3.618c3.59 0 6.98 1.276 9.65 3.618l-9.65 9.628-9.65-9.628zm22.09-.023l9.13-9.109h14.25v44.847h-59.21l23.39-23.33 12.44-12.408zm-29.41 208.303c0-3.763 3.07-6.824 6.84-6.824s6.84 3.061 6.84 6.824c0 3.762-3.07 6.824-6.84 6.824s-6.84-3.062-6.84-6.824zm6.84 8.774c4.52 0 8.2-3.425 8.7-7.799h37.25v13.649h-59.21l7.81-7.792c1.51 1.196 3.38 1.942 5.45 1.942zm47.91-7.799h14.66c8.82 0 15.99-6.92 16.51-15.6h29.42v29.249h-60.59v-13.649zm0-15.6h29.22c-.52 7.602-6.82 13.65-14.56 13.65h-14.66v-13.65zm0-1.949h29.31v-29.249h-29.31v29.249zm0-60.546c8.7-.516 15.63-7.668 15.63-16.475v-14.624h44.96v29.298c-17 .512-30.71 14.19-31.23 31.148h-29.36v-29.347zm0-31.099h13.68v14.624c0 7.729-6.06 14.013-13.68 14.525v-29.149zm0-62.396h44.95v30.017c0 3.763-3.07 6.825-6.84 6.825s-6.84-3.062-6.84-6.825c0-4.836-3.95-8.774-8.8-8.774-4.84 0-8.79 3.938-8.79 8.774v30.429h-13.68v-60.446zm0-46.797v-15.6h14.25l30.7 30.628v29.819h-44.95v-44.847zm0-33.149V97.586h29.31v29.248h-15.63v31.199h-13.68v-15.6zm0-76.144c8.7-.516 15.63-7.668 15.63-16.475V35.19h29.32v33.898c-9.09 5.48-15.25 15.285-15.59 26.548h-29.36V66.29zm0-31.099h13.68v14.624c0 7.73-6.06 14.014-13.68 14.525V35.19zm0-1.95h13.68V3.265h-13.68V33.24zm29.31-30.429V33.24h-13.68V2.811c0-3.763 3.07-6.824 6.84-6.824 3.78 0 6.84 3.061 6.84 6.824zm-29.31-30.017h60.59v44.847h-13.68V1.836h-15.69c-.49-4.38-4.23-7.799-8.75-7.799-4.33 0-7.92 3.155-8.64 7.278h-13.83v-28.52zm0-62.397h59.2l-20.77 20.722h-16.2v16.17l-22.23 22.176v-59.068zm24.18 36.32h13.68V-66.93h-13.68v13.649zm36.41 24.127h-59.21l22.23-22.176h16.21v-16.17l20.77-20.722v59.068zm-13.68 249.585h13.68v-29.248h-13.68v29.248zm13.68-122.843v60.447h-29.32V97.586h29.32zM1374.4 33.24h13.68V19.59h-13.68v13.65zm13.68 1.95v29.298a32.018 32.018 0 00-13.68 3.501V35.19h13.68zm-29.32-1.95h13.68V3.787h-13.68V33.24zm29.32 33.197v29.2h-29.27c.51-15.886 13.34-28.69 29.27-29.2zm-44.96 91.596h13.68v-29.249h-13.68v29.249zm15.64 1.949h29.32v29.249h-14.26l-29.32-29.249h14.26zm29.22 122.843h-29.12c.51-7.601 6.81-13.649 14.56-13.649 7.75 0 14.04 6.048 14.56 13.649zm-14.56-15.599c-8.83 0-16 6.92-16.52 15.599h-13.78v-30.429c0-3.762 3.07-6.824 6.84-6.824 3.78 0 6.84 3.062 6.84 6.824 0 4.837 3.95 8.775 8.8 8.775 4.85 0 8.8-3.938 8.8-8.775v-30.017h13.68v53.788c-2.78-5.286-8.27-8.941-14.66-8.941zm-14.61 77.995c.51-15.886 13.34-28.7 29.27-29.208v29.208h-29.27zm-.05 31.199h29.32v-29.249h-29.32v29.249zm31.27 1.999c15.92.511 28.76 13.314 29.27 29.199h-29.27v-29.199zm0-31.248h29.28c.56 16.948 14.3 30.598 31.31 31.062v29.385h-29.37c-.51-16.959-14.22-30.637-31.22-31.149v-29.298zm0-29.819l27.94 27.869h-27.94v-27.869zm0-25.918c2.78 5.286 8.27 8.94 14.66 8.94 8.83 0 16-6.92 16.51-15.599h29.42v29.203c-16.62.453-30.11 13.485-31.25 29.888l-29.34-29.271v-23.161zm29.22-6.659c-.51 7.602-6.81 13.65-14.56 13.65-7.75 0-14.05-6.048-14.56-13.65h29.12zm1.08-25.349c-3.78 0-6.84-3.061-6.84-6.824s3.06-6.824 6.84-6.824c3.77 0 6.84 3.061 6.84 6.824s-3.07 6.824-6.84 6.824zm-30.3-37.047h60.59v60.446h-29.32v-21.548c4.39-.493 7.82-4.171 7.82-8.675 0-4.837-3.95-8.774-8.79-8.774-4.85 0-8.8 3.937-8.8 8.774 0 4.504 3.43 8.182 7.82 8.675v21.548h-29.32v-60.446zm0-31.099c7.62.512 13.68 6.796 13.68 14.525s-6.06 14.013-13.68 14.525v-29.05zm0-31.298h14.26l30.7 30.628v16.169h15.63v13.65h-53.91c5.29-2.773 8.96-8.251 8.96-14.624 0-8.807-6.94-15.959-15.64-16.475v-29.348zm44.96 0v27.87l-27.94-27.87h27.94zm-44.96-62.396h13.68v14.624c0 9.141 7.45 16.574 16.62 16.574 8.83 0 16.08-6.912 16.58-15.598h13.71v44.847h-60.59V97.586zm0-31.099c7.62.512 13.68 6.796 13.68 14.525v14.624h-13.68V66.487zm44.96 31.1v14.623c0 8.063-6.58 14.624-14.66 14.624-8.09 0-14.66-6.561-14.66-14.624V97.586h29.32zm-44.96-62.397h60.59v60.446h-44.95V81.012c0-8.806-6.94-15.959-15.64-16.474V35.19zm0-17.55V3.993h29.32V33.24h-29.32v-15.6zm0-44.846h60.59V33.24h-29.32V2.042h-31.27v-29.248zm0-62.397h29.32v29.82l-29.32 29.248v-59.068zm30.7 31.199h29.89v29.248h-59.21l29.32-29.248zm.57-1.95h29.32v-29.249h-29.32v29.249zm15.64 171.59h13.68v-13.65h-13.68v13.65zm0 77.995v-29.249h13.68v29.249h-13.68zm13.68 1.95v13.649h-13.68v-13.649h13.68zm-29.36 154.04c.46-15.959 13.36-28.829 29.36-29.294v29.294h-29.36zm29.36 1.95v29.111c-15.93-.462-28.8-13.238-29.35-29.111h29.35zm1.96 23.441l6.79 6.783.7.689 22.11 22.062.69.689 6.8 6.783h-37.09v-37.006zm0-23.441h29.46v7.61l-21.28 21.235-8.18-8.162v-20.683zm0-61.36l29.46 29.397v30.013h-29.46v-59.41zm0-63.432h60.59v13.649h-46.91v33.148h31.27v13.649h-44.95v-60.446zm0-15.6V175.582h14.25l44.95 44.847h-59.2v-13.65zm0-33.147h13.68v-13.65h-13.68v13.65zm0-76.046H1482.04v13.748c-8.7.516-15.63 7.669-15.63 16.475 0 4.18 1.61 7.96 4.17 10.879l-18 17.966V97.586zm0-62.396h29.31v60.446h-29.31V35.19zm0-62.396h60.59V2.1c-16.93.587-30.57 14.232-31.08 31.141h-29.51v-60.446zm0-31.198v-31.199h29.46v29.298c-13.66.411-25.18 9.317-29.46 21.607v-19.706zm60.59 0v29.248h-60.4c.53-16.212 13.87-29.248 30.25-29.248h30.15zm-29.17-1.95h29.17v-29.249H1484v29.249zm-15.79 220.336h44.96v59.068l-44.96-44.847v-14.221zm.15-32.173c0-8.061 6.58-14.623 14.66-14.623s14.66 6.562 14.66 14.623c0 8.063-6.58 14.624-14.66 14.624s-14.66-6.561-14.66-14.624zm14.66 16.575c9.16 0 16.61-7.435 16.61-16.575 0-8.806-6.93-15.959-15.63-16.475V97.586h29.17v60.447h-59.21l17.99-17.953c2.95 2.647 6.8 4.304 11.07 4.304zm.83-48.748h29.32V66.388h-29.32v29.248zm.2-62.396c.51-15.835 13.26-28.605 29.12-29.19v29.19h-29.12zm-.2 31.198h29.32V35.189h-29.32v29.249zm21.54 313.931h7.78v29.249h-20.74l-8.18-8.162 21.14-21.087zm-1.79-.974l-20.73 20.683-20.73-20.683 20.73-20.684 20.73 20.684zm-3.97-47.396v-14.791l13.54-13.501V343.5l-13.54-13.501zm13.54 17.172v29.249h-7.78L1484 355.077v-7.906h29.17zM1484 329.428h13.68v-13.649H1484v13.649zm14.25 1.95l13.88 13.843H1484v-13.843h14.25zm1.23-64.152h13.69v-29.248h-13.69v29.248zm0 15.599h13.69v-13.649h-13.69v13.649zm-31.27-15.599h29.32v-29.248h-29.32v29.248zm44.96 17.549v14.175l-14.92 14.879h-14.83l-29.12-29.054h58.87zm1.95 93.594h31.27v-31.198h6.94a63.841 63.841 0 0022.38 22.327v38.12h-60.59v-29.249zm0-30.162l13.68 13.649v14.564h-13.68v-28.213zm15.64 28.213h13.68v-13.649h-13.68v13.649zm-.23-15.599l-13.68-13.65h27.59v13.65h-13.91zm-15.41-76.046h37.02a62.86 62.86 0 00-7.7 30.223 62.854 62.854 0 007.7 30.223h-37.02v-60.446zm0-17.549v-29.248h21.75c.49 4.374 4.18 7.8 8.69 7.8 4.85 0 8.8-3.939 8.8-8.775 0-4.503-3.43-8.182-7.82-8.676v-5.948h29.17v38.12a63.838 63.838 0 00-22.38 22.326h-38.21v-15.599zm30.44-37.048c3.78 0 6.84 3.063 6.84 6.825 0 3.763-3.06 6.825-6.84 6.825-3.77 0-6.84-3.062-6.84-6.825 0-3.762 3.07-6.825 6.84-6.825zm-30.44-7.799h29.47v5.948a8.746 8.746 0 00-7.72 7.701h-21.75v-13.649zm0-39.973c0-8.062 6.58-14.624 14.66-14.624s14.66 6.562 14.66 14.624v15.599c0 9.14 7.45 16.574 16.61 16.574 5.71 0 11.67-3.016 14.66-10.713v16.563h-60.59v-38.023zm0-22.424h60.59v32.033c0 12.716-5.61 20.614-14.66 20.614-8.08 0-14.66-6.562-14.66-14.624v-15.599c0-9.14-7.45-16.574-16.61-16.574-6.39 0-11.88 3.654-14.66 8.94v-14.79zm0-62.396h60.59v29.82l-30.7 30.627h-29.89V97.586zm0-33.148V35.19h29.32v30.627l29.89 29.82h-59.21v-31.2zm0-60.404c15.99.434 28.9 13.272 29.42 29.206h-29.42V4.034zm0-31.24h3.08c15.44 14.729 35.81 22.905 57.51 23.147v37.3h-29.22c-.51-17.01-14.3-30.721-31.37-31.157v-29.29zm0-31.198h30.3c13.93 0 25.79-8.88 30.29-21.251v50.499h-60.59v-29.248zm0-31.199h60.54c-.52 16.213-13.87 29.248-30.24 29.248h-30.3v-29.248zm60.59 83.594c-20.46-.232-39.67-7.739-54.54-21.197h54.54v21.197zm0 100.267l-29.32-29.248V35.19h29.32v59.068zm0 63.775h-27.94l27.94-27.87v27.87zm0 189.138v20.048a61.778 61.778 0 01-20.09-20.048h20.09zm-20.09-64.346a61.775 61.775 0 0120.09-20.047v20.047h-20.09zm20.09 1.95v60.446h-21.28c-5.09-8.934-8.04-19.234-8.04-30.223 0-10.989 2.95-21.288 8.04-30.223h21.28zm-.05 124.835c-.52 16.212-13.87 29.248-30.24 29.248h-30.3V409.61h60.54zm2-38.925a63.317 63.317 0 0030.3 7.684h30.3v29.249h-29.21l-.4-.4-.4.4h-30.59v-36.933zm0-23.514h60.6v29.249h-30.3c-11.02 0-21.34-2.939-30.3-8.015v-21.234zm0-62.396h29.32v21.548c-4.38.493-7.82 4.172-7.82 8.675 0 4.837 3.95 8.775 8.8 8.775 4.51 0 8.2-3.426 8.7-7.799h21.6v29.247h-60.6v-60.446zm0-23.184a61.261 61.261 0 0129.91-7.995l1.37 1.36v-1.379h29.32v29.248h-60.6v-21.234zm0-37.834l28.06 27.984c-10.12.354-19.67 3.013-28.06 7.571v-35.555zm0-32.576h14.66c3.69 0 7.03 1.412 9.61 3.665l-24.27 24.204v-27.869zm0-31.199h29.37c.25 8.132 3.52 15.503 8.75 21.042l-12.47 12.444c-2.94-2.606-6.76-4.237-10.99-4.237h-14.66v-29.249zm0-31.769l30.7-30.627h29.9v29.298c-17 .512-30.71 14.19-31.23 31.149h-29.37v-29.82zm0-30.627h27.94l-27.94 27.87v-27.87zm0-1.95h29.32V35.19h-29.32v60.446zm0-99.65h5.95c.41 8.777 7.63 15.805 16.53 15.805 4.23 0 8.05-1.632 10.99-4.236l4.65 4.643c-5.23 5.54-8.5 12.911-8.75 21.042h-29.37V-4.013zm0-23.192h21.5v5.948c-8.29.492-14.92 7.042-15.51 15.295h-5.99v-21.243zm0-62.397h30.62l29.32 29.248h-38.44v31.199h-21.5v-60.447zm60.6 0v27.143l-27.21-27.143h27.21zm1.95 468.022c15.92.511 28.76 13.314 29.27 29.199h-29.27v-29.199zm0-31.248h60.59v60.447h-29.37c-.51-16.959-14.22-30.637-31.22-31.149v-29.298zm0-31.197h45.05c.5 8.349 7.17 15.004 15.54 15.499v13.748h-60.59v-29.247zm0-31.199h60.59v13.748c-8.37.495-15.04 7.151-15.54 15.5h-45.05v-29.248zm0-31.769l30.7-30.627h29.89v13.748c-8.7.516-15.64 7.668-15.64 16.475 0 8.807 6.94 15.959 15.64 16.475v13.748h-60.59v-29.819zm0-30.627h27.94l-27.94 27.87v-27.87zm0-31.248a32.12 32.12 0 0021.09-8.728l38.12 38.026h-28.83l-.25-.244-.24.244h-29.89v-29.298zm0-31.149h29.27c-.51 15.885-13.35 28.688-29.27 29.199v-29.199zm0-1.949h29.32v-29.249h-29.32v29.249zm0-31.198h29.32V97.586h-29.32v29.249zm0-91.645h29.32v21.548c-4.39.493-7.82 4.172-7.82 8.675 0 4.504 3.43 8.183 7.82 8.675v21.548h-29.32V35.19zm0-31.148c15.92.51 28.76 13.313 29.27 29.198h-29.27V4.042zm0-31.248h30.62l29.97 29.9V33.24h-29.37c-.51-16.958-14.22-30.637-31.22-31.149v-29.297zm0-30.547l28.66 28.597h-28.66v-28.597zm0-31.85h59.21l-29.32 29.248h-29.73l-.16-.156v-29.092zm60.59 29.248h-27.94l27.94-27.869v27.87zm0 33.15v27.14l-27.21-27.14h27.21zm-29.93-2.719l-28.55-28.48h57.1l-28.55 28.48zm29.93-27.102v27.87h-27.94l27.94-27.87zm-29.37 217.008h29.37v59.068l-38.12-38.026c5.23-5.539 8.51-12.91 8.75-21.042zm5.92-94.57c0 3.764-3.07 6.826-6.85 6.826-3.77 0-6.84-3.062-6.84-6.825 0-3.762 3.07-6.825 6.84-6.825 3.78 0 6.85 3.063 6.85 6.825zm-1.39-6.824a8.694 8.694 0 00-4.48-1.85V35.19h27.94l-23.46 23.398zm-4.48 37.048V74.09c4.39-.493 7.82-4.172 7.82-8.676 0-2.068-.75-3.943-1.95-5.446l23.45-23.398v59.067h-29.32zm0 62.397h29.32v-29.249h-29.32v29.249zm0-31.198h29.32V97.586h-29.32v29.249zm29.32 140.292c-7.62-.512-13.68-6.796-13.68-14.525s6.06-14.013 13.68-14.525v29.05zm0 62.396c-7.62-.512-13.68-6.796-13.68-14.525s6.06-14.012 13.68-14.525v29.05zm-60.59 80.087h59.21l-29.32 29.248h-29.73l-.16-.157V409.61zm-31.27-313.974h29.32V35.19h-29.32v60.446zm29.32-91.594V33.24h-29.27c.51-15.885 13.34-28.688 29.27-29.198zm-37.14-33.198h37.13v-29.248h-37.13v29.248zm-.98 38.997c-8.08 0-14.66-6.561-14.66-14.624 0-8.062 6.58-14.624 14.66-14.624s14.66 6.562 14.66 14.624c0 8.063-6.58 14.624-14.66 14.624zm16.62-14.624c0-8.806-6.94-15.958-15.64-16.475v-5.948h37.14V2.091c-8.15.246-15.54 3.512-21.1 8.73l-4.65-4.645c2.61-2.926 4.25-6.74 4.25-10.959zm-7.82 256.41h29.32v-29.248h-29.32v29.248zm.05-93.594c.51-15.885 13.34-28.689 29.27-29.199v29.199h-29.27zm29.27 1.949v29.199c-15.93-.511-28.76-13.314-29.27-29.199h29.27zm-33.57 34.864l12.47-12.443c5.56 5.217 12.95 8.482 21.1 8.728v29.298h-29.32v-14.624c0-4.218-1.64-8.032-4.25-10.959zm2.29 27.533v27.87l-27.93-27.87h27.93zm-27.93-1.95l24.26-24.204c2.26 2.573 3.67 5.901 3.67 9.58v14.624h-27.93zm35.75 94.569c0 3.763-3.07 6.825-6.84 6.825s-6.84-3.062-6.84-6.825c0-3.763 3.07-6.824 6.84-6.824s6.84 3.061 6.84 6.824zm-5.86-8.675v-21.548h29.32v29.248h-21.6a8.746 8.746 0 00-7.72-7.7zm93.81 40.848h59.21l-59.21 59.068v-59.068zm0-15.698c8.37-.495 15.04-7.15 15.54-15.499h45.05v29.247h-60.59v-13.748zm0-31c7.62.513 13.69 6.796 13.69 14.525s-6.07 14.013-13.69 14.525v-29.05zm0-15.698h29.32v29.248h-13.78c-.5-8.349-7.17-15.005-15.54-15.5v-13.748zm0-1.95h29.32v-60.446h-29.32v60.446zm0-91.644h29.32v29.248h-29.32v-29.248zm0-1.95h29.32v-29.249h-29.32v29.249zm0-31.198h29.32v-29.249h-29.32v29.249zm0-60.447h59.21l-29.32 29.248h-29.89V97.586zm15.64-17.548h13.68v-13.65h-13.68v13.65zm-15.64-44.848h29.89l14.66 14.624-14.66 14.624h-16.2v17.55h17.59v-16.17l14.65-14.625 14.66 14.624v29.82h-60.59V35.19zm0-1.95h29.32v-60.446h-29.32V33.24zm0-91.644h21.68c.8 4.025 4.36 7.072 8.62 7.072 4.51 0 8.2-3.425 8.69-7.8h21.6v29.976h-60.59v-29.248zm37.14-1.703c0 3.763-3.07 6.825-6.84 6.825s-6.84-3.062-6.84-6.825c0-3.763 3.07-6.824 6.84-6.824s6.84 3.061 6.84 6.824zm-37.14-29.496h60.59v28.522h-21.6c-.49-4.375-4.18-7.8-8.69-7.8-4.77 0-8.64 3.806-8.77 8.526h-21.53v-29.248zm60.59 124.793v27.87l-27.93-27.87h27.93zm-29.31-26.156h29.31v-36.24h-29.31v36.24zm0 24.206h29.31V10.984h-29.31V33.24zm0 280.783h29.31v-29.248h-29.31v29.248zm0-31.198h29.31v-29.248h-29.31v29.248zm0-31.198h29.31v-29.248h-29.31v29.248zm0-93.594v-29.82l29.31-29.248v59.068h-29.31zm0 46.797h13.68v-13.649h-13.68v13.649zm15.63 1.949v-17.548h-15.63v-29.249h29.31v60.447h-29.31v-13.65h15.63zm-45.52 200.839l59.2-59.068v59.068h-59.2zm61.16-60.447h29.37c.51 16.959 14.22 30.637 31.22 31.149v13.699h-37.26c-.49-4.375-4.18-7.8-8.69-7.8-4.85 0-8.8 3.938-8.8 8.775 0 2.071.76 3.953 1.97 5.455l-7.81 7.79v-59.068zm0-31.197h13.78a16.377 16.377 0 004.15 9.983l-17.93 17.886v-27.869zm0-31.199h29.32v13.748c-8.37.495-15.04 7.151-15.54 15.5h-13.78v-29.248zm0-31.149c15.92.511 28.75 13.315 29.27 29.199h-29.27v-29.199zm0-31.247h59.21l-38.12 38.026a32.12 32.12 0 00-21.09-8.729v-29.297zm0-49.989l12.33 12.301 11.05 11.029-23.38 23.33v-46.66zm0-12.408h44.95v14.221l-9.2 9.176c-3.04-2.7-6.88-4.233-10.98-4.233-4.11 0-7.95 1.533-10.99 4.233l-13.78-13.746v-9.651zm0-37.38c8.59 9.751 13.41 22.187 13.63 35.431h-13.63v-35.431zm0-25.016h29.37c.51 16.959 14.22 30.636 31.22 31.149v13.698h-15.64v15.6h-29.36c-.24-14.478-5.74-28.057-15.59-38.389V97.586zm0-31.198h50.62c-12.11 4.38-20.85 15.775-21.25 29.248h-29.37V66.388zm0-1.95h60.59V35.19h-60.59v29.248zm13.61-54.43l9.67-9.65 9.68 9.65-9.68 9.652-9.67-9.651zm-13.61.976h11.82l11.46 11.433 12.44-12.408L1788.58-2.4l-11.46 11.433h-11.82v-36.24h29.4c.88 16.622 14.43 29.917 31.19 30.42V33.24h-60.59V10.984zm0-40.14h13.68v-13.65h-13.68v13.65zm0-29.976h14.66c8.08 0 14.66 6.562 14.66 14.625v15.35h-13.69v-15.598h-15.63v-14.377zm0-30.47h29.32v37.46c-2.78-5.286-8.27-8.94-14.66-8.94h-14.66v-28.52zm31.27 60.446h29.32v-60.447h-29.32v60.447zm29.32 30.42c-15.68-.502-28.36-12.922-29.23-28.47h29.23v28.47zm-29.27 94.372c.51-15.885 13.35-28.688 29.27-29.198v29.198h-29.27zm29.27 1.95v29.199c-15.92-.51-28.76-13.314-29.27-29.199h29.27zm0 249.585v29.199c-15.92-.51-28.76-13.314-29.27-29.199h29.27zm-29.32-15.698c8.7-.515 15.64-7.668 15.64-16.475 0-8.807-6.94-15.959-15.64-16.475v-13.748h29.32v60.446h-29.32v-13.748zm-10.58-5.516l20.59-20.539c2.26 2.573 3.67 5.901 3.67 9.58 0 8.063-6.58 14.624-14.66 14.624-3.68 0-7.02-1.412-9.6-3.665zm8.63 5.516v13.748h-27.94l17.93-17.886a16.458 16.458 0 0010.01 4.138zm-6.85-69.689l38.12-38.027v59.068h-29.37c-.25-8.131-3.52-15.502-8.75-21.041zm17.43 42.256l-20.59 20.538c-2.26-2.573-3.68-5.901-3.68-9.58 0-8.062 6.58-14.624 14.66-14.624 3.69 0 7.03 1.413 9.61 3.666zm7.01-146.007h13.68v-13.649h-13.68v13.649zm0 15.599h13.68v-13.65h-13.68v13.65zm-31.79 11.082a14.544 14.544 0 019.65-3.618c3.58 0 6.97 1.276 9.65 3.618l-9.65 9.628-9.65-9.628zm22.08-.023l9.13-9.109h14.26v44.847h-59.21l23.39-23.33 12.43-12.408zm-29.4 208.303c0-3.763 3.07-6.824 6.84-6.824s6.84 3.061 6.84 6.824c0 3.762-3.07 6.824-6.84 6.824s-6.84-3.062-6.84-6.824zm6.84 8.774c4.51 0 8.2-3.425 8.69-7.799h37.26v13.649h-59.21l7.81-7.792c1.5 1.196 3.38 1.942 5.45 1.942zm47.9-7.799h14.66c8.83 0 16-6.92 16.52-15.6h29.41v29.249h-60.59v-13.649zm0-15.6h29.22c-.51 7.602-6.81 13.65-14.56 13.65h-14.66v-13.65zm0-1.949h29.32v-29.249h-29.32v29.249zm0-60.546c8.7-.516 15.64-7.668 15.64-16.475v-14.624h44.95v29.298c-17 .512-30.71 14.19-31.22 31.148h-29.37v-29.347zm0-31.099h13.68v14.624c0 7.729-6.06 14.013-13.68 14.525v-29.149zm0-62.396h44.96v30.017c0 3.763-3.07 6.825-6.84 6.825-3.78 0-6.84-3.062-6.84-6.825 0-4.836-3.95-8.774-8.8-8.774-4.85 0-8.8 3.938-8.8 8.774v30.429h-13.68v-60.446zm0-46.797v-15.6h14.26l30.7 30.628v29.819h-44.96v-44.847zm0-33.149V97.586h29.32v29.248h-15.64v31.199h-13.68v-15.6zm0-76.144c8.7-.516 15.64-7.668 15.64-16.475V35.19h29.32v33.898c-9.09 5.48-15.25 15.285-15.59 26.548h-29.37V66.29zm0-31.099h13.68v14.624c0 7.73-6.06 14.014-13.68 14.525V35.19zm0-1.95h13.69V3.265h-13.69V33.24zm29.32-30.429V33.24h-13.68V2.811c0-3.763 3.07-6.824 6.84-6.824s6.84 3.061 6.84 6.824zm-29.32-30.017h60.59v44.847h-13.68V1.836h-15.69c-.49-4.38-4.22-7.799-8.74-7.799-4.33 0-7.93 3.155-8.64 7.278h-13.84v-28.52zm0-62.397h59.21l-20.77 20.722h-16.21v16.17l-22.23 22.176v-59.068zm24.19 36.32h13.68V-66.93h-13.68v13.649zm36.4 24.127h-59.21l22.23-22.176h16.21v-16.17l20.77-20.722v59.068zm-13.68 249.585h13.68v-29.248h-13.68v29.248zm13.68-122.843v60.447h-29.31V97.586h29.31zm-13.68-64.346h13.68V19.59h-13.68v13.65zm13.68 1.95v29.298a32.093 32.093 0 00-13.68 3.501V35.19h13.68zm-29.31-1.95h13.68V3.787h-13.68V33.24zm29.31 33.197v29.2h-29.26c.51-15.886 13.34-28.69 29.26-29.2zm-44.95 91.596h13.68v-29.249h-13.68v29.249zm15.64 1.949h29.31v29.249h-14.25l-29.32-29.249h14.26zm29.21 122.843h-29.12c.52-7.601 6.82-13.649 14.56-13.649 7.75 0 14.05 6.048 14.56 13.649zm-14.56-15.599c-8.82 0-15.99 6.92-16.51 15.599h-13.78v-30.429c0-3.762 3.07-6.824 6.84-6.824s6.84 3.062 6.84 6.824c0 4.837 3.95 8.775 8.8 8.775 4.84 0 8.79-3.938 8.79-8.775v-30.017h13.68v53.788c-2.78-5.286-8.27-8.941-14.66-8.941zm-14.6 77.995c.51-15.886 13.34-28.7 29.26-29.208v29.208h-29.26zm-.05 31.199h29.31v-29.249h-29.31v29.249zm31.27 1.999c15.92.511 28.75 13.314 29.27 29.199h-29.27v-29.199zm0-31.248h29.28c.56 16.948 14.3 30.598 31.31 31.062v29.385h-29.37c-.51-16.959-14.22-30.637-31.22-31.149v-29.298zm0-29.819l27.93 27.869h-27.93v-27.869zm0-25.918c2.78 5.286 8.27 8.94 14.66 8.94 8.82 0 15.99-6.92 16.51-15.599h29.42v29.203c-16.62.453-30.11 13.485-31.25 29.888l-29.34-29.271v-23.161zm29.22-6.659c-.52 7.602-6.82 13.65-14.56 13.65-7.75 0-14.05-6.048-14.56-13.65h29.12zm1.07-25.349c-3.77 0-6.84-3.061-6.84-6.824s3.07-6.824 6.84-6.824 6.84 3.061 6.84 6.824-3.07 6.824-6.84 6.824zm-30.29-37.047h60.59v60.446h-29.32v-21.548c4.38-.493 7.82-4.171 7.82-8.675 0-4.837-3.95-8.774-8.8-8.774-4.85 0-8.79 3.937-8.79 8.774 0 4.504 3.43 8.182 7.82 8.675v21.548h-29.32v-60.446zm0-31.099c7.62.512 13.68 6.796 13.68 14.525s-6.06 14.013-13.68 14.525v-29.05zm0-31.298h14.25l30.7 30.628v16.169h15.64v13.65h-53.92c5.3-2.773 8.96-8.251 8.96-14.624 0-8.807-6.93-15.959-15.63-16.475v-29.348zm44.95 0v27.87l-27.93-27.87h27.93zm-44.95-62.396h13.68v14.624c0 9.141 7.45 16.574 16.61 16.574 8.84 0 16.08-6.912 16.59-15.598h13.71v44.847h-60.59V97.586zm0-31.099c7.62.512 13.68 6.796 13.68 14.525v14.624h-13.68V66.487zm44.95 31.1v14.623c0 8.063-6.58 14.624-14.66 14.624s-14.66-6.561-14.66-14.624V97.586h29.32zm-44.95-62.397h60.59v60.446h-44.96V81.012c0-8.806-6.93-15.959-15.63-16.474V35.19zm0-17.55V3.993h29.32V33.24h-29.32v-15.6zm0-44.846h60.59V33.24h-29.32V2.042h-31.27v-29.248zm0-62.397h29.32v29.82l-29.32 29.248v-59.068zm30.7 31.199h29.89v29.248h-59.21l29.32-29.248zm16.21 169.64h13.68v-13.65h-13.68v13.65zm0 77.995h13.68v-29.249h-13.68v29.249zm13.68 1.95v13.649h-13.68v-13.649h13.68zm-29.37 154.04c.47-15.959 13.37-28.829 29.37-29.294v29.294h-29.37zm29.37 1.95v29.111c-15.94-.462-28.8-13.238-29.36-29.111h29.36zm-29.32-407.525h29.32v-29.249h-29.32v29.249zm-1.95-31.64l-29.32.442H1609.09l-.44-.442-.44.442H1108.74l-.45-.442-.44.442H950.265V472.006H1952.93v-564h-33.22z" fill="#50E6FF"/></g><path fill-rule="evenodd" clip-rule="evenodd" d="M1035.72-17.018l-11.42 11.42L1272.8 242.9c20.82 20.822 48.5 32.29 77.95 32.29h394.9c25.14 0 48.77 9.787 66.54 27.557l93.87 93.88 11.43-11.42-93.88-93.879c-20.83-20.822-48.51-32.288-77.96-32.288h-394.9c-25.13 0-48.76-9.788-66.53-27.56l-248.5-248.497z" fill="#50E6FF"/><path fill-rule="evenodd" clip-rule="evenodd" d="M1320.43 270.797a8.024 8.024 0 01-8.03-8.026 8.024 8.024 0 018.03-8.025c4.43 0 8.02 3.593 8.02 8.025 0 4.433-3.59 8.026-8.02 8.026zM1140 89.956a8.025 8.025 0 01-8.03 8.026c-4.43 0-8.02-3.594-8.02-8.026s3.59-8.026 8.02-8.026c4.44 0 8.03 3.594 8.03 8.026z" fill="#0078D4"/><path fill-rule="evenodd" clip-rule="evenodd" d="M936.42-58.018L925-46.598 1173.5 201.9c20.82 20.822 48.5 32.29 77.95 32.29h394.9c25.14 0 48.77 9.787 66.54 27.557l93.87 93.88 11.43-11.42-93.88-93.879c-20.83-20.822-48.51-32.288-77.96-32.288h-394.9c-25.13 0-48.76-9.788-66.53-27.56L936.42-58.018z" fill="#0078D4"/><path fill-rule="evenodd" clip-rule="evenodd" d="M1027.53 51.982a8.025 8.025 0 01-8.03-8.026 8.025 8.025 0 018.03-8.026c4.43 0 8.02 3.594 8.02 8.026s-3.59 8.026-8.02 8.026zM1148.03 172.982a8.025 8.025 0 01-8.03-8.026 8.025 8.025 0 018.03-8.026c4.43 0 8.02 3.594 8.02 8.026s-3.59 8.026-8.02 8.026z" fill="#50E6FF"/></g></g><defs><clipPath id="clip0"><path d="M0 0h1440v300H0V0z" fill="#fff"/></clipPath></defs></svg>