<svg width="173" height="125" xmlns="http://www.w3.org/2000/svg" xmlns:xlink="http://www.w3.org/1999/xlink" overflow="hidden"><defs><clipPath id="clip0"><rect x="0" y="0" width="173" height="125"/></clipPath></defs><g clip-path="url(#clip0)"><rect x="0" y="0" width="173" height="125.046" fill="#0D0D0D"/><path d="M39 41.0152 134 41.0152 134 72.0266 39 72.0266Z" fill="#7F7F7F" fill-rule="evenodd"/><path d="M39 17.0063 55.0002 17.0063 55.0002 25.0095 39 25.0095Z" fill="#7F7F7F" fill-rule="evenodd"/><path d="M63 17.0063 79.0002 17.0063 79.0002 25.0095 63 25.0095Z" fill="#7F7F7F" fill-rule="evenodd"/><path d="M87 17.0063 110 17.0063 110 25.0095 87 25.0095Z" fill="#7F7F7F" fill-rule="evenodd"/><path d="M8.00004 9.00329 24.0002 9.00329 24.0002 25.0095 8.00004 25.0095Z" fill="#7F7F7F" fill-rule="evenodd"/><path d="M91.6429 80.0296C92.9447 80.0296 94 80.0296 94 80.0296L94 96.0358C94 96.0358 92.9447 96.0358 91.6429 96.0358L41.3572 96.0358C40.0553 96.0358 39 96.0358 39 96.0358L39 80.0296C39 80.0296 40.0553 80.0296 41.3572 80.0296Z" fill="#4472C4" fill-rule="evenodd"/><path d="M151 17.0063C151 14.2439 153.239 12.0045 156 12.0045 158.761 12.0045 161 14.2439 161 17.0063 161 19.7687 158.761 22.0081 156 22.0081 153.239 22.0081 151 19.7687 151 17.0063Z" fill="#7F7F7F" fill-rule="evenodd"/></g></svg>