<svg width="1262" height="241" xmlns="http://www.w3.org/2000/svg" xmlns:xlink="http://www.w3.org/1999/xlink" overflow="hidden"><defs><clipPath id="clip0"><rect x="9" y="0" width="1262" height="241"/></clipPath></defs><g clip-path="url(#clip0)" transform="translate(-9 0)"><path d="M0 0 1280 0 1280 527.999 0 527.999Z" fill="#FFFFFF" transform="matrix(1 0 0 1.00099 -8.99675 -82.0792)"/><path d="M832.776 170 789.998 170 789.998 157.327 828.504 157.327 830.686 151 843.998 151 838.653 165.818C837.755 168.312 835.417 169.976 832.786 169.981Z" fill="#3B3838" fill-rule="evenodd" transform="matrix(1 0 0 1.00099 -8.99675 -82.0792)"/><path d="M1.99999-3.99999 1282-3.99999 1282 523.999 1.99999 523.999Z" fill="#7F7F7F" fill-rule="evenodd" transform="matrix(1 0 0 1.00099 -8.99675 -82.0792)"/><path d="M1278 271.032 1348.72 271.032C1350.44 271.038 1351.84 269.634 1351.84 267.895 1351.84 267.048 1351.51 266.237 1350.91 265.642L1294.99 208.915C1294.4 208.328 1293.62 207.999 1292.79 207.999L1281.1 207.999C1279.39 207.999 1278 209.408 1278 211.147L1278 271.032ZM1278 373.727C1278 374.56 1278.34 375.366 1278.91 375.949L1323.39 421.083C1323.99 421.675 1324.78 422.009 1325.6 421.999L1342.69 421.999C1343.52 421.999 1344.32 421.666 1344.9 421.074L1364.08 401.35C1364.66 400.765 1364.99 399.974 1365 399.146L1365 312.008C1365 310.269 1363.61 308.859 1361.89 308.859L1355.67 308.859C1353.95 308.859 1352.57 310.269 1352.57 312.008L1352.57 352.966C1352.57 356.444 1349.79 359.263 1346.36 359.263L1296.63 359.263C1293.2 359.263 1290.42 356.444 1290.42 352.966L1290.42 302.544C1290.41 299.066 1293.19 296.243 1296.62 296.238 1296.62 296.238 1296.63 296.238 1296.63 296.238L1361.88 296.238C1363.6 296.238 1364.99 294.828 1364.99 293.089L1364.99 286.783C1364.99 285.044 1363.6 283.635 1361.88 283.635L1281.1 283.635C1279.39 283.635 1278 285.044 1278 286.783L1278.01 373.718Z" fill="#3B3838" fill-rule="evenodd" transform="matrix(1 0 0 1.00099 -8.99675 -82.0792)"/><path d="M1288.24 183C1289.21 183 1290 183 1290 183L1290 195.999C1290 195.999 1289.21 195.999 1288.24 195.999L1279.77 195.999C1278.79 195.999 1278 195.999 1278 195.999L1278 183C1278 183 1278.79 183 1279.77 183Z" fill="#3B3838" fill-rule="evenodd" transform="matrix(1 0 0 1.00099 -8.99675 -82.0792)"/><path d="M1277.11 479.341 1277.11 511.108C1277.11 511.942 1277.45 512.739 1278.04 513.332L1283.33 518.66C1284.56 519.892 1286.54 519.892 1287.77 518.663 1287.77 518.661 1287.77 518.661 1287.77 518.66L1314.1 492.194C1314.68 491.601 1315 490.803 1315 489.97L1315 432.494C1315 431.66 1314.68 430.854 1314.1 430.262L1282.48 398.475C1281.26 397.235 1279.28 397.222 1278.04 398.445 1277.45 399.041 1277.11 399.852 1277.11 400.7L1277.11 479.349ZM1295.83 528.697 1319.84 504.556C1320.56 503.838 1321.72 503.838 1322.44 504.556L1346.46 528.697C1347.18 529.421 1347.18 530.594 1346.46 531.318 1346.46 531.319 1346.46 531.319 1346.46 531.319L1322.44 555.46C1321.72 556.179 1320.56 556.179 1319.84 555.46L1295.83 531.319C1295.11 530.595 1295.11 529.423 1295.83 528.699 1295.83 528.697 1295.83 528.697 1295.83 528.697ZM1270.57 167.955 1295.05 143.351C1291.7 138.246 1289.9 132.266 1289.9 126.151 1289.9 112.158 1299.09 99.8322 1312.44 95.9031 1313.8 95.5382 1314.75 94.3111 1314.77 92.9007L1314.77-15.8492C1314.77-17.5895 1313.37-19 1311.63-19L1270.57-19 1270.57 167.955ZM235.749 197.915 235.749 186.082C235.749 184.341 234.347 182.931 232.613 182.931L216.935 182.931C192.672 182.931 173 202.696 173 227.078 173 227.081 173 227.085 173 227.088L173 254.704C173 256.444 174.402 257.856 176.136 257.857 176.966 257.857 177.759 257.526 178.349 256.937L234.827 200.167C235.417 199.574 235.749 198.777 235.749 197.924ZM189.444 271.172 257.716 271.172C259.45 271.172 260.852 269.762 260.852 268.021L260.852 211.241C260.852 209.501 259.45 208.09 257.716 208.09L245.912 208.09C245.082 208.09 244.289 208.414 243.698 209.008L187.23 265.779C185.995 267 185.985 268.996 187.203 270.234 187.793 270.837 188.605 271.174 189.444 271.172Z" fill="#3B3838" fill-rule="evenodd" transform="matrix(1 0 0 1.00099 -8.99675 -82.0792)"/><path d="M309.186 81.9998C310.187 81.9998 310.999 81.9998 310.999 81.9998L310.999 120C310.999 120 310.187 120 309.186 120L275.811 120C274.81 120 273.999 120 273.999 120L273.999 81.9998C273.999 81.9998 274.81 81.9998 275.811 81.9998Z" fill="#3B3838" fill-rule="evenodd" transform="matrix(1 0 0 1.00099 -8.99675 -82.0792)"/><path d="M-27.7128 469.848C-27.7128 471.588-26.3093 472.999-24.5729 472.999L57.1117 472.999C58.8479 472.999 60.2516 471.588 60.2516 469.848L60.2516 462.204C60.2516 460.763 59.2726 459.508 57.8782 459.156 47.4887 456.151 39.3618 448.017 36.3327 437.604 35.9818 436.213 34.7443 435.233 33.3128 435.222L-24.5729 435.222C-26.3093 435.222-27.7128 436.633-27.7128 438.373L-27.7128 469.848ZM325.373 65.5957C325.041 67.3034 326.149 68.9574 327.857 69.291 328.07 69.3336 328.291 69.3521 328.513 69.3484L383.859 69.3484C385.596 69.3484 386.999 67.9382 386.999 66.1979L386.999 50.5392C386.972 39.9919 378.42 31.4666 367.91 31.497 367.855 31.497 367.79 31.497 367.735 31.4981 347.473 31.7168 329.982 45.7969 325.373 65.5957ZM261.327 116.65 261.327 85.1C261.327 83.36 259.924 81.9497 258.188 81.9497L170.972 81.9497C170.141 81.9497 169.347 82.2741 168.756 82.8671L124.011 127.787C123.429 128.38 123.088 129.177 123.088 130.011L123.088 217.552C123.088 219.292 124.491 220.703 126.228 220.703L158.458 220.703C160.001 220.683 161.293 219.544 161.524 218.016 165.92 190.505 189.572 170.265 217.341 170.252L233.05 170.252C234.786 170.252 236.19 168.842 236.19 167.101L236.19 126.101C236.19 122.621 238.997 119.8 242.469 119.8L258.188 119.8C259.924 119.8 261.327 118.39 261.327 116.65 261.327 116.647 261.327 116.643 261.327 116.64ZM-24.5729 422.547 33.3128 422.547C34.7443 422.536 35.9818 421.556 36.3327 420.166 39.3341 409.722 47.4702 401.554 57.8782 398.53 59.2634 398.18 60.2423 396.935 60.2516 395.5L60.2516 387.856C60.2516 386.116 58.8479 384.706 57.1117 384.706L-24.5729 384.706C-26.3093 384.706-27.7128 386.116-27.7128 387.856L-27.7128 419.396C-27.7128 421.137-26.3093 422.547-24.5729 422.547ZM27.9102 4.58137 46.0111-13.5794C47.2393-14.8119 47.2301-16.8068 46.0019-18.0343 45.4108-18.6256 44.6073-18.9563 43.7762-18.9536L25.6938-18.9536C23.9576-18.9536 22.5537-17.5433 22.5537-15.8031L22.5537 2.41307C22.5908 4.15239 24.0222 5.53476 25.7584 5.50053 26.5618 5.48384 27.3377 5.15491 27.9102 4.58137ZM6.84495 132.42-32.312 132.42C-55.6491 132.42-76.1788 149.932-77.878 173.3-79.6696 197.622-61.4764 218.798-37.2343 220.6-35.0733 220.76-32.9121 220.76-30.7513 220.601-7.46945 218.933 10.0034 198.307 10.0034 174.875L10.0034 135.57C10.0034 133.83 8.5996 132.42 6.86343 132.42 6.85419 132.42 6.85419 132.42 6.84495 132.42ZM60.2516 254.698 60.2516 135.57C60.2516 133.83 58.8479 132.42 57.1117 132.42L25.6938 132.42C23.9576 132.42 22.5537 133.83 22.5537 135.57L22.5537 176.562C22.5631 188.51 18.7952 200.151 11.7766 209.806 10.8622 211.045 10.9732 212.766 12.0442 213.874L54.8953 256.867C56.1235 258.095 58.1091 258.093 59.3373 256.86 59.9099 256.285 60.2332 255.51 60.2516 254.698ZM157.646 69.3484C159.382 69.3484 160.786 67.9382 160.786 66.1979L160.786 29.1075C160.786 28.2736 160.453 27.4676 159.862 26.8838L115.127-18.0918C114.536-18.681 113.723-19.0072 112.892-18.9999L70.4842-18.9999C69.6529-18.9999 68.8588-18.6756 68.2676-18.0918L34.735 15.5798C33.8762 16.4711 33.6175 17.784 34.0793 18.934 34.7996 20.9241 35.169 23.0246 35.1783 25.1418 35.1506 32.4061 30.9763 39.0136 24.447 42.1444 23.3388 42.6559 22.6093 43.7529 22.5631 44.9797L22.5631 116.603C22.5631 118.343 23.9668 119.754 25.703 119.754L57.121 119.754C58.8571 119.754 60.261 118.343 60.261 116.603L60.261 100.833C60.2516 83.4193 74.326 69.2984 91.6787 69.2927L157.655 69.3484Z" fill="#3B3838" fill-rule="evenodd" transform="matrix(1 0 0 1.00099 -8.99675 -82.0792)"/><path d="M22.9999 25.4999C22.9999 29.0899 20.0899 32 16.5001 32 12.9102 32 9.99997 29.0899 9.99997 25.4999 9.99997 21.9102 12.9102 19 16.5001 19 20.0899 19 22.9999 21.9102 22.9999 25.4999Z" fill="#3B3838" fill-rule="evenodd" transform="matrix(1 0 0 1.00099 -8.99675 -82.0792)"/><path d="M54.9619 313.205C46.7263 319.419 45.0352 331.202 51.1841 339.523 52.2597 340.971 53.5281 342.256 54.9619 343.338 56.3314 344.405 58.2892 344.153 59.3461 342.774 59.7873 342.202 60.0172 341.497 59.9987 340.775L59.9987 315.768C60.0355 314.025 58.666 312.582 56.9382 312.546 56.2213 312.53 55.5227 312.763 54.9619 313.205ZM-74.4542 321.962-44.0303 321.962C-39.1129 321.957-34.3977 320.003-30.8956 316.52L5.39222 280.462C11.2289 274.661 19.0784 271.403 27.268 271.39L43.5645 271.39C45.2926 271.406 46.6988 270.006 46.7171 268.262 46.7263 267.407 46.3954 266.586 45.7888 265.985L3.14949 222.899C2.05574 221.821 0.34603 221.703-0.885565 222.619-20.5276 237.068-47.1465 237.068-66.7885 222.619-68.0202 221.696-69.7389 221.814-70.8328 222.899L-81.0996 233.298C-82.1015 234.321-82.2854 235.898-81.5592 237.133-78.9764 241.807-77.6161 247.073-77.6161 252.427L-77.6161 318.795C-77.6161 320.539-76.2189 321.952-74.491 321.952-74.4817 321.952-74.4634 321.952-74.4542 321.952Z" fill="#3B3838" fill-rule="evenodd" transform="matrix(1 0 0 1.00099 -8.99675 -82.0792)"/><path d="M84.9998 428.999C84.9998 439.493 76.717 447.999 66.4997 447.999 56.2826 447.999 47.9999 439.493 47.9999 428.999 47.9999 418.506 56.2826 409.999 66.4997 409.999 76.717 409.999 84.9998 418.506 84.9998 428.999Z" fill="#3B3838" fill-rule="evenodd" transform="matrix(1 0 0 1.00099 -8.99675 -82.0792)"/><path d="M-161.849 170.279-92.7561 170.279C-91.2143 170.259-89.9219 169.12-89.6911 167.591-85.2965 140.072-61.6622 119.825-33.9013 119.807L6.93217 119.807C8.66792 119.807 10.0712 118.397 10.0712 116.656L10.0712 85.0939C10.0712 83.3532 8.66792 81.9423 6.93217 81.9423L-80.1911 81.9423C-81.0221 81.9423-81.8159 82.2668-82.4069 82.8599L-164.065 164.884C-165.302 166.107-165.311 168.102-164.093 169.341-163.502 169.944-162.689 170.282-161.849 170.279ZM-77.8093-15.8484-77.8093 66.1844C-77.8093 67.9253-76.406 69.336-74.6704 69.336L6.99684 69.336C8.73248 69.336 10.1358 67.9253 10.1358 66.1844L10.1358 44.958C10.108 43.7057 9.3603 42.5832 8.21553 42.0752-1.10887 37.6075-5.06949 26.3935-0.619642 17.0279 1.22676 13.1432 4.34719 10.0118 8.21553 8.15898 9.3603 7.64455 10.108 6.51552 10.1358 5.25767L10.1358-15.8484C10.1358-17.5892 8.73248-19 6.99684-19L-74.6612-19C-76.3968-19-77.8002-17.5892-77.8002-15.8484ZM452.982 182.904C451.246 182.904 449.843 184.314 449.843 186.055L449.843 242.847C449.843 244.588 451.246 245.999 452.982 245.999L459.259 245.999C460.995 245.999 462.398 244.588 462.398 242.847L462.398 186.064C462.398 184.324 460.995 182.913 459.259 182.913L452.982 182.913ZM349.332-15.8484 349.332 17.8639C349.332 19.6047 350.745 21.0135 352.471 21.0108 352.721 21.0108 352.97 20.9811 353.21 20.9227 358.638 19.3924 364.261 18.7047 369.892 18.8835 386.556 19.4118 399.592 33.6495 399.592 50.4361L399.592 66.2122C399.592 67.9531 400.995 69.3639 402.731 69.3639L446.704 69.3639C448.439 69.3639 449.843 70.7748 449.843 72.5155L449.843 100.907C449.843 118.334 435.773 132.459 418.416 132.458 417.373 132.458 416.33 132.406 415.296 132.302 398.974 130.727 387.027 115.961 387.027 99.508L387.027 85.1403C387.027 83.3995 385.624 81.9888 383.888 81.9888L327.351 81.9888C325.615 81.9888 324.212 83.3995 324.212 85.1403L324.212 126.148C324.221 129.629 321.414 132.454 317.943 132.46 317.943 132.46 317.934 132.46 317.934 132.46L251.97 132.46C250.235 132.46 248.832 133.871 248.832 135.612L248.832 192.405C248.832 194.145 250.235 195.555 251.97 195.555L259.587 195.555C261.018 195.544 262.255 194.564 262.606 193.174 266.465 179.645 278.781 170.319 292.795 170.316L468.999 170.316 468.999-18.963 352.481-18.963C350.763-18.963 349.36-17.5744 349.342-15.8484ZM416.044 182.904C414.308 182.908 412.905 184.323 412.914 186.062 412.914 186.894 413.246 187.691 413.828 188.28L431.923 206.447C433.151 207.675 435.136 207.672 436.364 206.439 436.945 205.85 437.278 205.053 437.278 204.222L437.278 186.055C437.278 184.314 435.874 182.904 434.139 182.904L416.044 182.904Z" fill="#3B3838" fill-rule="evenodd" transform="matrix(1 0 0 1.00099 -8.99675 -82.0792)"/><path d="M173.01 34.3577 173.01 65.8531C173.01 67.5912 174.41 68.9998 176.142 68.9998L311.228 68.9998C313.08 52.4063 322.109 37.4748 335.92 28.1845L335.92-101.101C335.91-104.578 338.711-107.399 342.176-107.404 342.185-107.404 342.185-107.404 342.194-107.404L357.866-107.404C359.598-107.404 360.999-108.813 360.999-110.551L360.999-116.854C360.999-118.592 359.598-120 357.866-120L276.373-120C274.642-120 273.242-118.592 273.242-116.854L273.242-86.5242C273.242-84.7861 274.642-83.3774 276.373-83.3774L306.151-83.3774C309.459-83.1718 312.038-80.4075 312.029-77.0746L312.029-0.284369C312.029 17.1061 297.997 31.2055 280.685 31.2109L176.133 31.2109C174.41 31.2109 173.01 32.6141 173 34.3486Z" fill="#3B3838" fill-rule="evenodd" transform="matrix(1 0 0 1.00099 -8.99675 -82.0792)"/><path d="M281.066 19.3358C291.475 19.33 299.916 10.8749 299.916 0.44535L299.916-66.8545C299.916-68.5918 298.512-69.9998 296.776-69.9998L276.763-69.9998C275.026-69.9998 273.623-68.5918 273.623-66.8545L273.623 16.1904C273.623 17.9276 275.026 19.3358 276.763 19.3358L281.066 19.3358ZM24.6981 573.999 61.8524 573.999C62.6837 573.999 63.4779 573.666 64.069 573.083L146.293 490.685C147.522 489.455 147.512 487.463 146.284 486.237 145.693 485.649 144.899 485.32 144.068 485.32L-24.8596 485.32C-26.5961 485.32-27.9997 486.728-27.9997 488.465L-27.9997 520.815C-28.0182 522.387-26.873 523.729-25.3215 523.961-1.05049 527.9 17.9193 547.069 21.6411 571.418 21.9088 572.901 23.1927 573.983 24.6981 573.999ZM421.899 119.726C430.858 117.978 436.999 109.587 436.999 100.438L436.999 85.4515C436.999 83.7143 435.595 82.3062 433.859 82.3062L402.44 82.3062C400.704 82.3062 399.3 83.7143 399.3 85.4515L399.3 101.196C399.29 111.63 407.732 120.093 418.14 120.101 419.406 120.102 420.662 119.977 421.899 119.726Z" fill="#3B3838" fill-rule="evenodd" transform="matrix(1 0 0 1.00099 -8.99675 -82.0792)"/><path d="M235.999 428.999C235.999 439.493 227.492 447.999 216.999 447.999 206.506 447.999 197.999 439.493 197.999 428.999 197.999 418.506 206.506 409.999 216.999 409.999 227.492 409.999 235.999 418.506 235.999 428.999Z" fill="#3B3838" fill-rule="evenodd" transform="matrix(1 0 0 1.00099 -8.99675 -82.0792)"/><path d="M352.448 271.244 368.15 271.244C378.548 271.262 386.99 262.818 386.999 252.384 387.008 251.101 386.879 249.821 386.621 248.565 384.868 239.582 376.509 233.424 367.412 233.424L352.457 233.424C350.723 233.424 349.321 234.833 349.321 236.572L349.321 268.096C349.321 269.835 350.723 271.244 352.457 271.244ZM176.697 573.831 258.298 573.831C260.033 573.831 261.435 572.421 261.435 570.682L261.435 538.334C261.407 536.79 260.273 535.491 258.75 535.269 231.359 530.845 211.219 507.117 211.219 479.269L211.219 462.183C211.219 460.743 210.241 459.488 208.848 459.136 198.469 456.136 190.342 448.006 187.316 437.596 186.965 436.206 185.729 435.227 184.299 435.216L176.688 435.216C174.953 435.216 173.551 436.625 173.551 438.364L173.551 570.747C173.578 572.464 174.981 573.84 176.688 573.84ZM247.624 420.158C247.975 421.548 249.211 422.527 250.641 422.538L267.709 422.538C278.106 422.533 286.539 414.068 286.539 403.627L286.539 328.393C286.539 319.252 292.683 310.853 301.623 309.102 311.808 307.016 321.745 313.612 323.829 323.834 324.079 325.09 324.208 326.37 324.208 327.652 324.208 331.13 327.012 333.949 330.481 333.949 333.95 333.949 336.755 331.13 336.755 327.652L336.755 286.997C336.755 285.258 335.353 283.848 333.618 283.848L271.602 283.848C270.772 283.848 269.978 284.182 269.388 284.774L213.295 341.126C212.225 342.228 212.095 343.949 213.009 345.192 220.011 354.84 223.775 366.473 223.766 378.41L223.766 395.505C223.775 396.939 224.753 398.184 226.137 398.534 236.516 401.572 244.626 409.731 247.624 420.158ZM346.931 220.81 358.731 220.81C360.465 220.81 361.868 219.401 361.868 217.662L361.868 186.148C361.868 184.409 360.465 183 358.731 183L315.545 183C313.81 183.004 312.408 184.417 312.417 186.156 312.417 186.986 312.749 187.783 313.331 188.371L344.717 219.884C345.307 220.477 346.101 220.81 346.931 220.81ZM336.764 231.034C336.764 230.191 336.423 229.395 335.842 228.812L291.65 184.426C290.912 183.653 289.832 183.307 288.79 183.509 280.173 185.407 274.028 193.049 273.992 201.9L273.992 268.096C273.992 269.835 275.394 271.244 277.128 271.244L333.618 271.244C335.353 271.244 336.755 269.835 336.755 268.096L336.755 231.025ZM160.994 559.44 160.994 502.088C160.994 500.348 159.583 498.943 157.848 498.946 157.018 498.949 156.234 499.279 155.643 499.865L74.9998 580.999 160.994 580.999 160.994 559.44Z" fill="#3B3838" fill-rule="evenodd" transform="matrix(1 0 0 1.00099 -8.99675 -82.0792)"/><path d="M458.839 284.036 377.099 284.036C375.361 284.036 373.957 285.442 373.957 287.178L373.957 377.689C373.957 386.838 380.102 395.211 389.066 396.958 399.269 399.035 409.222 392.448 411.301 382.245 411.56 380.996 411.68 379.722 411.68 378.447L411.68 347.811C411.652 346.572 410.913 345.459 409.785 344.946 400.396 340.419 396.459 329.139 400.988 319.751 405.516 310.364 416.79 306.423 426.18 310.951 435.569 315.478 439.506 326.758 434.977 336.146 433.129 339.99 430.024 343.093 426.18 344.946 425.043 345.451 424.294 346.566 424.257 347.811L424.257 376.95C424.257 393.353 412.299 408.057 395.96 409.646 378.688 411.387 363.274 398.797 361.536 381.525 361.435 380.472 361.379 379.414 361.379 378.355L361.379 287.141C361.379 285.405 359.974 283.999 358.237 283.999L351.953 283.999C350.216 283.999 348.811 285.405 348.811 287.141L348.811 326.944C348.811 336.084 342.656 344.466 333.701 346.194 323.499 348.276 313.546 341.694 311.457 331.493 311.208 330.242 311.078 328.969 311.078 327.693 311.078 324.222 308.269 321.408 304.794 321.408 301.32 321.408 298.51 324.222 298.51 327.693L298.51 403.519C298.51 420.888 284.426 434.968 267.062 434.968L250.085 434.968C248.579 434.935 247.258 435.978 246.944 437.454 243.931 447.866 235.789 456.005 225.374 459.014 223.979 459.366 222.999 460.618 222.999 462.055L222.999 479.115C223.018 499.548 237.092 517.282 256.989 521.941 258.689 522.272 260.343 521.16 260.676 519.457 260.713 519.24 260.732 519.019 260.732 518.798L260.732 491.628C260.732 481.209 269.178 472.762 279.593 472.757L409.12 472.757C410.7 472.772 412.04 471.618 412.262 470.058 416.116 445.849 435.098 426.859 459.301 422.982 460.826 422.764 461.971 421.467 461.999 419.923L461.999 287.187C461.999 285.451 460.594 284.045 458.857 284.045 458.848 284.045 458.848 284.045 458.839 284.045ZM458.839 485.344 428.453 485.344C426.716 485.309 425.283 486.688 425.246 488.424 425.246 488.652 425.265 488.88 425.311 489.105 429.211 505.34 441.936 517.983 458.201 521.764 459.901 522.096 461.556 520.985 461.888 519.281 461.925 519.064 461.944 518.843 461.944 518.622L461.944 488.495C461.953 486.771 460.567 485.364 458.839 485.344Z" fill="#3B3838" fill-rule="evenodd" transform="matrix(1 0 0 1.00099 -8.99675 -82.0792)"/><path d="M409.273 485.999 377.14 485.999C375.403 485.999 373.999 487.403 373.999 489.137L373.999 521.415C374.027 522.948 375.163 524.235 376.678 524.461 400.764 528.375 419.648 547.252 423.547 571.322 423.778 572.845 425.072 573.979 426.614 573.999L458.858 573.999C460.595 573.999 461.999 572.594 461.999 570.861L461.999 538.509C461.971 536.976 460.835 535.688 459.32 535.463 435.216 531.609 416.285 512.776 412.331 488.712 412.119 487.181 410.825 486.03 409.282 485.999Z" fill="#3B3838" fill-rule="evenodd" transform="matrix(1 0 0 1.00099 -8.99675 -82.0792)"/><path d="M423.999 327.999C423.999 331.312 421.313 333.999 417.999 333.999 414.686 333.999 411.999 331.312 411.999 327.999 411.999 324.685 414.686 321.999 417.999 321.999 421.313 321.999 423.999 324.685 423.999 327.999Z" fill="#3B3838" fill-rule="evenodd" transform="matrix(1 0 0 1.00099 -8.99675 -82.0792)"/><path d="M458.85 258.755 443.153 258.755C439.681 258.761 436.874 255.943 436.865 252.461 436.865 252.458 436.865 252.455 436.865 252.452L436.865 231.133C436.865 230.29 436.533 229.492 435.942 228.909L391.205 183.917C390.614 183.327 389.811 182.997 388.98 183L377.18 183C375.444 183 374.04 184.41 374.04 186.151L374.04 219.092C374.05 220.474 374.955 221.688 376.275 222.086 389.82 225.918 399.174 238.324 399.174 252.452 399.174 257.457 397.946 262.398 395.601 266.819 394.825 268.376 395.453 270.269 397.004 271.047 397.438 271.263 397.909 271.377 398.389 271.38L458.85 271.38C460.586 271.38 461.99 269.969 461.99 268.228L461.99 261.916C461.99 260.175 460.586 258.764 458.85 258.764ZM176.74 335.689C175.041 335.356 173.388 336.471 173.055 338.179 173.019 338.397 173 338.619 173 338.84L173 419.704C173 421.445 174.404 422.855 176.14 422.855L183.757 422.855C185.188 422.844 186.426 421.864 186.777 420.473 189.787 410.023 197.921 401.852 208.327 398.83 209.712 398.479 210.69 397.234 210.7 395.799L210.7 378.642C210.681 358.148 196.618 340.36 176.74 335.689ZM276.664 548.999 292.361 548.999C302.776 548.999 311.216 540.525 311.216 530.071L311.216 489.055C311.216 487.315 309.812 485.904 308.076 485.904L279.803 485.904C276.331 485.904 273.524 488.725 273.524 492.207L273.524 545.847C273.524 547.588 274.928 548.999 276.664 548.999ZM461.999 439.558C462.027 437.818 460.651 436.381 458.915 436.349 458.693 436.345 458.472 436.364 458.259 436.407 441.861 440.203 429.054 453.06 425.277 469.525 424.945 471.234 426.053 472.889 427.761 473.222 427.973 473.264 428.195 473.283 428.417 473.279L458.85 473.279C460.586 473.279 461.99 471.868 461.99 470.128L461.99 439.558Z" fill="#3B3838" fill-rule="evenodd" transform="matrix(1 0 0 1.00099 -8.99675 -82.0792)"/><path d="M273.999 570.859C273.999 572.593 275.403 573.999 277.14 573.999L358.858 573.999C360.595 573.999 361.999 572.593 361.999 570.859L361.999 489.138C361.999 487.404 360.595 485.999 358.858 485.999L327.427 485.999C325.69 485.999 324.286 487.404 324.286 489.138L324.286 530.003C324.286 547.356 310.215 561.424 292.856 561.43L277.14 561.43C275.403 561.43 273.999 562.835 273.999 564.57L273.999 570.859Z" fill="#3B3838" fill-rule="evenodd" transform="matrix(1 0 0 1.00099 -8.99675 -82.0792)"/><path d="M159.138 232.999C160.167 232.999 161 232.999 161 232.999L161 245.999C161 245.999 160.167 245.999 159.138 245.999L124.862 245.999C123.834 245.999 123 245.999 123 245.999L123 232.999C123 232.999 123.834 232.999 124.862 232.999Z" fill="#3B3838" fill-rule="evenodd" transform="matrix(1 0 0 1.00099 -8.99675 -82.0792)"/><path d="M160.685-116.85C160.685-118.59 159.284-120 157.552-120L126.205-120C124.473-120 123.072-118.59 123.072-116.85L123.072-29.2526C123.072-28.4185 123.404-27.6031 123.993-27.01L168.637 17.8958C169.217 18.4888 170.019 18.8225 170.848 18.8225L257.867 18.8225C259.599 18.8225 260.999 17.412 260.999 15.6719L260.999-15.8625C260.999-17.6026 259.599-19.0131 257.867-19.0131L204.571-19.0131C180.329-19.0186 160.676-38.787 160.685-63.1682L160.685-116.85ZM76.0513 371.999 104.266 371.999C107.73 371.999 110.531 369.179 110.531 365.698L110.531 286.84C110.531 285.099 109.131 283.689 107.398 283.689L76.0513 283.689C74.319 283.689 72.9184 285.099 72.9184 286.84L72.9184 368.849C72.9184 370.589 74.319 371.999 76.0513 371.999ZM110.531 176.457 110.531 135.461C110.531 133.72 109.131 132.31 107.398 132.31L76.0513 132.31C74.319 132.31 72.9184 133.72 72.9184 135.461L72.9184 217.47C72.9184 219.21 74.319 220.621 76.0513 220.621L107.398 220.621C109.131 220.621 110.531 219.21 110.531 217.47L110.531 176.448ZM110.531 252.155 110.531 236.383C110.531 234.643 109.131 233.232 107.398 233.232L76.0513 233.232C74.319 233.232 72.9184 234.643 72.9184 236.383L72.9184 267.926C72.9184 269.667 74.319 271.077 76.0513 271.077L107.398 271.077C109.131 271.077 110.531 269.667 110.531 267.926L110.531 252.155ZM115.129 118.762 146.476 87.2189C147.702 85.9866 147.693 83.9915 146.467 82.7637 145.877 82.1725 145.076 81.8417 144.246 81.8444L91.7247 81.8444C81.3403 81.85 72.9184 90.3196 72.9184 100.767L72.9184 116.538C72.9184 118.279 74.319 119.689 76.0513 119.689L112.909 119.689C113.738 119.689 114.54 119.355 115.12 118.762ZM57.245 371.999C58.9773 371.999 60.3778 370.589 60.3778 368.849L60.3778 361.204C60.3778 359.763 59.4011 358.507 58.0098 358.155 41.3597 353.361 31.7307 335.901 36.4945 319.158 39.4799 308.697 47.6069 300.52 58.0098 297.524 59.3919 297.174 60.3687 295.928 60.3778 294.494L60.3778 286.849C60.3778 285.109 58.9773 283.698 57.245 283.698L27.6027 283.698C22.6731 283.698 17.9463 285.645 14.4265 289.119L-21.9424 325.101C-27.7933 330.89-35.6624 334.141-43.8723 334.155L-80.9782 334.155C-108.86 334.019-135.471 345.851-154.139 366.68-155.328 367.943-155.282 369.937-154.019 371.135-153.43 371.697-152.647 372.008-151.836 371.999L57.236 371.999Z" fill="#3B3838" fill-rule="evenodd" transform="matrix(1 0 0 1.00099 -8.99675 -82.0792)"/><path d="M160.896 378.557 160.896 337.65C160.896 335.914 159.494 334.507 157.76 334.507L126.383 334.507C124.649 334.507 123.247 335.914 123.247 337.65L123.247 365.975C123.247 376.397 114.817 384.847 104.423 384.852L76.1818 384.852C74.4479 384.852 73.046 386.259 73.046 387.996L73.046 395.622C73.0552 397.053 74.0329 398.296 75.4163 398.645 85.7922 401.681 93.89 409.825 96.8875 420.231 97.2378 421.618 98.4737 422.596 99.9033 422.607L157.76 422.607C159.494 422.607 160.896 421.2 160.896 419.464L160.896 378.557ZM160.905 469.801 160.905 438.341C160.905 436.606 159.503 435.198 157.769 435.198L100.033 435.198C98.5475 435.159 97.2378 436.175 96.8968 437.629 93.89 448.045 85.7644 456.185 75.3702 459.197 73.9775 459.547 72.9998 460.801 72.9998 462.239L72.9998 469.856C72.9998 471.592 74.4017 472.999 76.1356 472.999L157.714 472.999C159.448 473.03 160.877 471.649 160.905 469.912 160.905 469.873 160.905 469.832 160.905 469.791ZM200.249 332.714C201.485 333.622 203.192 333.505 204.289 332.436L247.084 289.533C248.311 288.303 248.301 286.313 247.075 285.088 246.494 284.503 245.7 284.173 244.87 284.171L179.729 284.171C176.935 284.149 174.177 283.501 171.659 282.276L171.493 282.101C167.785 280.261 164.788 277.247 162.952 273.531L162.786 273.374C161.56 270.855 160.914 268.09 160.896 265.285 160.896 265.285 161.698 258.999 154.624 258.999L126.383 258.999C124.649 258.999 123.247 260.406 123.247 262.142L123.247 318.773C123.247 320.509 124.649 321.916 126.383 321.916L167.177 321.916C179.065 321.908 190.649 325.69 200.249 332.714Z" fill="#3B3838" fill-rule="evenodd" transform="matrix(1 0 0 1.00099 -8.99675 -82.0792)"/><path d="M837.998 189.5C837.998 193.09 835.312 195.999 831.998 195.999 828.685 195.999 825.998 193.09 825.998 189.5 825.998 185.91 828.685 183 831.998 183 835.312 183 837.998 185.91 837.998 189.5Z" fill="#D43F27" fill-rule="evenodd" transform="matrix(1 0 0 1.00099 -8.99675 -82.0792)"/><path d="M850.998 189.5C850.998 193.09 848.087 195.999 844.498 195.999 840.908 195.999 837.998 193.09 837.998 189.5 837.998 185.91 840.908 183 844.498 183 848.087 183 850.998 185.91 850.998 189.5Z" fill="#599942" fill-rule="evenodd" transform="matrix(1 0 0 1.00099 -8.99675 -82.0792)"/><path d="M850.998 201.999C850.998 205.312 848.087 207.999 844.498 207.999 840.908 207.999 837.998 205.312 837.998 201.999 837.998 198.686 840.908 195.999 844.498 195.999 848.087 195.999 850.998 198.686 850.998 201.999Z" fill="#F7904D" fill-rule="evenodd" transform="matrix(1 0 0 1.00099 -8.99675 -82.0792)"/><path d="M837.998 201.999C837.998 205.312 835.312 207.999 831.998 207.999 828.685 207.999 825.998 205.312 825.998 201.999 825.998 198.686 828.685 195.999 831.998 195.999 835.312 195.999 837.998 198.686 837.998 201.999Z" fill="#2E76BC" fill-rule="evenodd" transform="matrix(1 0 0 1.00099 -8.99675 -82.0792)"/><path d="M762.998 258.999 724.998 258.999 724.998 270.999 762.998 270.999Z" fill="#3B3838" fill-rule="evenodd" transform="matrix(1 0 0 1.00099 -8.99675 -82.0792)"/><path d="M1038.86 197.943 1038.86 186.142C1038.86 184.406 1037.45 183 1035.72 183L1020.01 183C995.703 183 975.997 202.71 975.997 227.026 975.997 227.029 975.997 227.033 975.997 227.036L975.997 254.576C975.989 256.312 977.383 257.727 979.12 257.738 979.971 257.744 980.784 257.407 981.375 256.803L1037.95 200.188C1038.53 199.597 1038.87 198.794 1038.86 197.952ZM992.488 270.999 1060.86 270.999C1062.59 270.999 1064 269.592 1064 267.856L1064 211.232C1064 209.497 1062.59 208.09 1060.86 208.09L1049.06 208.09C1048.23 208.09 1047.42 208.413 1046.83 209.005L990.252 265.62C989.014 266.839 989.005 268.829 990.224 270.063 990.815 270.669 991.638 271.007 992.488 270.999Z" fill="#3B3838" fill-rule="evenodd" transform="matrix(1 0 0 1.00099 -8.99675 -82.0792)"/><path d="M1112.19 81.9998C1113.19 81.9998 1114 81.9998 1114 81.9998L1114 120C1114 120 1113.19 120 1112.19 120L1078.81 120C1077.81 120 1077 120 1077 120L1077 81.9998C1077 81.9998 1077.81 81.9998 1078.81 81.9998Z" fill="#3B3838" fill-rule="evenodd" transform="matrix(1 0 0 1.00099 -8.99675 -82.0792)"/><path d="M774.998 469.848C774.998 471.588 776.403 472.999 778.14 472.999L859.871 472.999C861.608 472.999 863.013 471.588 863.013 469.848L863.013 462.203C863.013 460.762 862.033 459.506 860.638 459.154 850.242 456.151 842.111 448.015 839.089 437.6 838.738 436.206 837.49 435.226 836.058 435.219L778.14 435.219C776.403 435.219 774.998 436.629 774.998 438.369L774.998 469.848ZM1128.29 65.5572C1127.96 67.2651 1129.06 68.9191 1130.77 69.2529 1130.99 69.2955 1131.21 69.3139 1131.43 69.3103L1186.85 69.3103C1188.59 69.3103 1190 67.9 1190 66.1595L1190 50.4993C1189.97 39.951 1181.41 31.4249 1170.9 31.4555 1170.84 31.4555 1170.79 31.4555 1170.73 31.4564 1150.44 31.65 1132.9 45.7361 1128.29 65.5572ZM778.14 422.542 836.058 422.542C837.49 422.535 838.738 421.555 839.089 420.16 842.092 409.716 850.224 401.547 860.638 398.523 862.024 398.173 863.004 396.927 863.013 395.493L863.013 387.848C863.013 386.108 861.608 384.697 859.871 384.697L778.14 384.697C776.403 384.697 774.998 386.108 774.998 387.848L774.998 419.391C774.998 421.132 776.403 422.542 778.14 422.542ZM830.671 4.53706 848.755-13.6254C849.984-14.8579 849.974-16.853 848.746-18.0807 848.163-18.6674 847.369-18.9981 846.537-19L828.436-19C826.699-19 825.293-17.5896 825.293-15.8494L825.293 2.36866C825.321 4.10892 826.745 5.49895 828.481 5.47491 829.303 5.46284 830.089 5.12646 830.671 4.53706Z" fill="#3B3838" fill-rule="evenodd" transform="matrix(1 0 0 1.00099 -8.99675 -82.0792)"/><path d="M825.998 25.4999C825.998 29.0899 823.088 32 819.498 32 815.908 32 812.998 29.0899 812.998 25.4999 812.998 21.9102 815.908 19 819.498 19 823.088 19 825.998 21.9102 825.998 25.4999Z" fill="#3B3838" fill-rule="evenodd" transform="matrix(1 0 0 1.00099 -8.99675 -82.0792)"/><path d="M858.182 312.656C850.278 318.976 848.646 330.967 854.538 339.441 855.57 340.922 856.796 342.236 858.182 343.341 859.496 344.417 861.384 344.145 862.38 342.732 862.795 342.158 863.007 341.453 862.998 340.731L862.998 315.266C863.024 313.49 861.701 312.029 860.051 311.999 859.372 311.987 858.719 312.218 858.182 312.656Z" fill="#3B3838" fill-rule="evenodd" transform="matrix(1 0 0 1.00099 -8.99675 -82.0792)"/><path d="M887.998 428.999C887.998 439.493 879.715 447.999 869.498 447.999 859.281 447.999 850.998 439.493 850.998 428.999 850.998 418.506 859.281 409.999 869.498 409.999 879.715 409.999 887.998 418.506 887.998 428.999Z" fill="#3B3838" fill-rule="evenodd" transform="matrix(1 0 0 1.00099 -8.99675 -82.0792)"/><path d="M725.109-15.851 725.109 66.1156C725.109 67.8551 726.511 69.2647 728.246 69.2647L809.861 69.2647C811.596 69.2647 812.998 67.8551 812.998 66.1156L812.998 44.9062C812.971 43.655 812.223 42.5335 811.079 42.0259 801.761 37.5616 797.803 26.3567 802.25 16.9987 804.095 13.1171 807.214 9.98845 811.079 8.13701 812.223 7.62299 812.971 6.4949 812.998 5.23811L812.998-15.851C812.998-17.5903 811.596-19 809.861-19L728.255-19C726.521-19 725.118-17.5903 725.118-15.851ZM474.018 267.856C474.018 269.595 475.42 271.005 477.155 271.005L545.447 271.005C547.182 271.011 548.594 269.606 548.594 267.867 548.594 267.02 548.261 266.209 547.662 265.614L491.169 208.877C490.579 208.289 489.785 207.96 488.955 207.96L477.145 207.96C475.411 207.96 474.008 209.369 474.008 211.109L474.008 267.856ZM474.018 373.718C474.018 374.551 474.35 375.357 474.94 375.941L519.872 421.082C520.463 421.675 521.256 422.009 522.096 421.999L539.358 421.999C540.198 421.999 541 421.666 541.591 421.073L560.966 401.346C561.547 400.761 561.879 399.969 561.888 399.141L561.888 311.988C561.888 310.249 560.486 308.839 558.752 308.839L552.468 308.839C550.734 308.839 549.332 310.249 549.332 311.988L549.332 352.953C549.332 356.432 546.527 359.251 543.058 359.251L492.83 359.251C489.361 359.251 486.556 356.432 486.556 352.953L486.556 302.522C486.547 299.044 489.352 296.221 492.821 296.215 492.821 296.215 492.83 296.215 492.83 296.215L558.742 296.215C560.477 296.215 561.879 294.806 561.879 293.066L561.879 286.759C561.879 285.019 560.477 283.61 558.742 283.61L477.136 283.61C475.402 283.61 473.999 285.019 473.999 286.759L474.008 373.708Z" fill="#3B3838" fill-rule="evenodd" transform="matrix(1 0 0 1.00099 -8.99675 -82.0792)"/><path d="M485.088 183C486.143 183 486.999 183 486.999 183L486.999 195.999C486.999 195.999 486.143 195.999 485.088 195.999L475.909 195.999C474.854 195.999 473.999 195.999 473.999 195.999L473.999 183C473.999 183 474.854 183 475.909 183Z" fill="#3B3838" fill-rule="evenodd" transform="matrix(1 0 0 1.00099 -8.99675 -82.0792)"/><path d="M527.272 19.0249 558.684 19.0249C560.42 19.0249 561.823 17.6165 561.823 15.8787L561.823-64.7937C561.86-66.5306 560.475-67.9658 558.748-67.9992 558.518-68.0038 558.296-67.9834 558.074-67.9399 538.324-63.1797 524.4-45.489 524.373-25.133L524.132-25.133 524.132 15.8139C524.095 17.5509 525.471 18.9888 527.207 19.024 527.226 19.0249 527.253 19.0249 527.272 19.0249ZM558.684 182.794 502.139 182.794C500.403 182.794 498.999 184.203 498.999 185.94L498.999 197.83C498.999 198.673 499.332 199.477 499.923 200.07L556.468 256.757C557.696 257.984 559.681 257.98 560.909 256.75 561.491 256.159 561.823 255.36 561.823 254.527L561.823 185.95C561.823 184.212 560.42 182.803 558.684 182.803ZM1256.03 182.794C1254.3 182.789 1252.89 184.193 1252.88 185.931 1252.88 185.934 1252.88 185.938 1252.88 185.94L1252.88 242.636C1252.88 244.374 1254.29 245.782 1256.02 245.782L1262.3 245.782C1264.04 245.782 1265.44 244.374 1265.44 242.636L1265.44 185.95C1265.44 184.212 1264.04 182.803 1262.3 182.803L1256.02 182.803ZM1152.36-15.6205 1152.36 18.0348C1152.36 19.7725 1153.76 21.1809 1155.5 21.1809 1155.76 21.1809 1156.01 21.1504 1156.26 21.0882 1161.68 19.5597 1167.3 18.8731 1172.92 19.0526 1189.61 19.5802 1202.63 33.7935 1202.63 50.5517L1202.63 66.3012C1202.63 68.039 1204.03 69.4474 1205.77 69.4474L1249.74 69.4474C1251.48 69.4474 1252.88 70.8557 1252.88 72.5936L1252.88 100.937C1252.88 118.334 1238.81 132.435 1221.45 132.434 1220.41 132.434 1219.37 132.383 1218.33 132.279 1202.01 130.706 1190.06 115.965 1190.06 99.54L1190.06 85.1971C1190.06 83.4592 1188.66 82.0507 1186.92 82.0507L1130.37 82.0507C1128.64 82.0507 1127.24 83.4592 1127.24 85.1971L1127.24 126.135C1127.24 129.61 1124.44 132.431 1120.97 132.436 1120.97 132.436 1120.96 132.436 1120.96 132.436L1054.98 132.436C1053.25 132.436 1051.84 133.845 1051.84 135.582L1051.84 192.279C1051.84 194.016 1053.25 195.424 1054.98 195.424L1062.6 195.424C1064.04 195.423 1065.29 194.442 1065.64 193.047 1069.5 179.544 1081.81 170.235 1095.82 170.228L1272 170.228 1272-18.7296 1155.51-18.7296C1153.79-18.7296 1152.39-17.3435 1152.37-15.6205ZM762.859 437.896C762.859 436.158 761.456 434.75 759.72 434.75L738.64 434.75C737.394 434.759 736.267 435.506 735.778 436.656 731.281 446.063 720.026 450.037 710.645 445.532 701.254 441.027 697.293 429.748 701.781 420.341 703.646 416.452 706.776 413.317 710.654 411.458 711.799 410.966 712.547 409.84 712.556 408.59L712.556 387.51C712.556 385.772 711.153 384.364 709.417 384.364L637.793 384.364C636.602 384.352 635.513 385.014 634.968 386.076 628.883 397.787 625.411 410.68 624.774 423.867 623.435 449.723 632.816 474.983 650.702 493.667 652.918 495.99 655.272 498.184 657.737 500.237 659.049 501.371 661.034 501.222 662.16 499.905 662.548 499.456 662.797 498.907 662.89 498.322 665.632 483.391 678.614 472.549 693.766 472.541L759.729 472.541C761.465 472.541 762.869 471.133 762.869 469.395L762.859 437.905ZM1219.1 182.794C1217.36 182.789 1215.95 184.192 1215.95 185.929 1215.95 186.766 1216.27 187.569 1216.86 188.161L1234.96 206.297C1236.19 207.523 1238.17 207.521 1239.4 206.29 1239.98 205.701 1240.32 204.906 1240.32 204.076L1240.32 185.94C1240.32 184.203 1238.91 182.794 1237.18 182.794L1219.1 182.794Z" fill="#3B3838" fill-rule="evenodd" transform="matrix(1 0 0 1.00099 -8.99675 -82.0792)"/><path d="M762.998 489.079C762.998 487.378 761.594 485.999 759.857 485.999L693.846 485.999C683.434 486.009 674.998 494.289 674.998 504.499L674.998 510.37C674.98 511.556 675.654 512.648 676.735 513.178 689.845 519.653 704.313 523.017 718.994 522.999L759.857 522.999C761.594 522.999 762.998 521.62 762.998 519.919L762.998 489.079Z" fill="#3B3838" fill-rule="evenodd" transform="matrix(1 0 0 1.00099 -8.99675 -82.0792)"/><path d="M535.137 308.999C536.166 308.999 536.999 308.999 536.999 308.999L536.999 346.999C536.999 346.999 536.166 346.999 535.137 346.999L500.861 346.999C499.833 346.999 498.999 346.999 498.999 346.999L498.999 308.999C498.999 308.999 499.833 308.999 500.861 308.999Z" fill="#3B3838" fill-rule="evenodd" transform="matrix(1 0 0 1.00099 -8.99675 -82.0792)"/><path d="M535.236 434.999C536.21 434.999 536.999 434.999 536.999 434.999L536.999 446.999C536.999 446.999 536.21 446.999 535.236 446.999L526.763 446.999C525.789 446.999 524.999 446.999 524.999 446.999L524.999 434.999C524.999 434.999 525.789 434.999 526.763 434.999Z" fill="#3B3838" fill-rule="evenodd" transform="matrix(1 0 0 1.00099 -8.99675 -82.0792)"/><path d="M474.009 478.961 474.009 510.692C474.009 511.525 474.341 512.322 474.931 512.914L480.219 518.237C481.447 519.466 483.431 519.467 484.658 518.238 484.658 518.237 484.658 518.237 484.658 518.237L511.005 491.8C511.586 491.207 511.909 490.411 511.909 489.578L511.909 432.168C511.909 431.335 511.586 430.53 511.005 429.937L479.37 398.187C478.152 396.95 476.168 396.937 474.931 398.157 474.332 398.752 473.999 399.563 473.999 400.409L473.999 478.97ZM557.367 523.069 606.755 523.069C617.155 523.063 625.59 514.602 625.59 504.166L625.59 481.201C625.59 480.701 625.451 480.201 625.221 479.766 615.799 462.534 611.314 443.024 612.264 423.393 612.818 411.507 615.402 399.816 619.896 388.81 620.56 387.206 619.813 385.363 618.207 384.693 617.838 384.537 617.441 384.455 617.035 384.45L577.604 384.45C575.869 384.45 574.467 385.859 574.467 387.598L574.467 402.964C574.467 404.63 573.82 406.222 572.659 407.407L550.492 429.9C549.911 430.492 549.588 431.291 549.588 432.122L549.588 453.44C549.597 456.917 546.792 459.738 543.322 459.744 543.322 459.744 543.313 459.744 543.313 459.744L527.606 459.744C525.871 459.744 524.469 461.153 524.469 462.891L524.469 490.05C524.469 490.883 524.801 491.698 525.391 492.29L555.217 522.143C555.789 522.718 556.555 523.05 557.367 523.069ZM492.677 528.215 516.708 504.102C517.427 503.384 518.59 503.384 519.31 504.102L543.34 528.215C544.06 528.938 544.06 530.11 543.34 530.833 543.34 530.834 543.34 530.834 543.34 530.835L519.31 554.948C518.59 555.666 517.427 555.666 516.708 554.948L492.677 530.835C491.957 530.112 491.957 528.94 492.677 528.217 492.677 528.216 492.677 528.216 492.677 528.215ZM828.047 573.999 865.145 573.999C865.975 573.999 866.769 573.665 867.36 573.082L949.519 490.633C950.746 489.402 950.737 487.409 949.509 486.183 948.927 485.597 948.135 485.266 947.304 485.264L778.519 485.264C776.784 485.264 775.382 486.673 775.382 488.412L775.382 520.782C775.363 522.358 776.517 523.703 778.067 523.929 802.319 527.871 821.274 547.053 824.993 571.416 825.26 572.9 826.543 573.983 828.047 573.999ZM1224.91 119.443C1233.86 117.693 1240 109.297 1240 100.143L1240 85.1471C1240 83.4087 1238.59 81.9998 1236.86 81.9998L1205.46 81.9998C1203.72 81.9998 1202.32 83.4087 1202.32 85.1471L1202.32 100.902C1202.31 111.341 1210.73 119.811 1221.14 119.82 1222.41 119.821 1223.67 119.694 1224.91 119.443Z" fill="#3B3838" fill-rule="evenodd" transform="matrix(1 0 0 1.00099 -8.99675 -82.0792)"/><path d="M1039 428.999C1039 439.493 1030.49 447.999 1020 447.999 1009.5 447.999 1001 439.493 1001 428.999 1001 418.506 1009.5 409.999 1020 409.999 1030.49 409.999 1039 418.506 1039 428.999Z" fill="#3B3838" fill-rule="evenodd" transform="matrix(1 0 0 1.00099 -8.99675 -82.0792)"/><path d="M1155.46 271.244 1171.14 271.244C1181.54 271.267 1189.98 262.827 1190 252.393 1190.01 251.108 1189.88 249.824 1189.62 248.565 1187.87 239.582 1179.51 233.424 1170.41 233.424L1155.46 233.424C1153.73 233.424 1152.33 234.833 1152.33 236.572L1152.33 268.096C1152.33 269.835 1153.73 271.244 1155.46 271.244ZM979.75 573.831 1061.33 573.831C1063.06 573.831 1064.47 572.421 1064.47 570.682L1064.47 538.334C1064.44 536.793 1063.31 535.496 1061.79 535.269 1034.41 530.849 1014.26 507.12 1014.26 479.269L1014.26 462.183C1014.26 460.743 1013.28 459.488 1011.89 459.136 1001.52 456.135 993.398 448.004 990.382 437.596 990.032 436.202 988.787 435.223 987.357 435.216L979.75 435.216C978.016 435.216 976.612 436.625 976.612 438.364L976.612 570.747C976.641 572.464 978.042 573.84 979.75 573.84ZM1050.7 420.158C1051.05 421.548 1052.29 422.527 1053.72 422.538L1070.74 422.538C1081.14 422.538 1089.57 414.071 1089.57 403.627L1089.57 328.393C1089.57 319.252 1095.7 310.853 1104.64 309.102 1114.83 307.016 1124.76 313.612 1126.84 323.834 1127.09 325.09 1127.22 326.37 1127.22 327.652 1127.22 331.13 1130.03 333.949 1133.49 333.949 1136.96 333.949 1139.77 331.13 1139.77 327.652L1139.77 286.997C1139.77 285.258 1138.36 283.848 1136.63 283.848L1074.65 283.848C1073.82 283.848 1073.02 284.172 1072.42 284.774L1016.41 341.126C1015.34 342.231 1015.22 343.951 1016.14 345.192 1023.14 354.84 1026.9 366.473 1026.89 378.41L1026.89 395.505C1026.9 396.939 1027.88 398.184 1029.26 398.534 1039.63 401.578 1047.72 409.737 1050.7 420.158ZM1149.96 220.81 1161.74 220.81C1163.47 220.81 1164.87 219.401 1164.87 217.662L1164.87 186.148C1164.87 184.409 1163.47 183 1161.74 183L1118.57 183C1116.84 183.004 1115.43 184.417 1115.44 186.156 1115.44 186.986 1115.78 187.783 1116.36 188.371L1147.73 219.884C1148.32 220.477 1149.12 220.81 1149.96 220.81ZM1139.77 231.034C1139.77 230.201 1139.44 229.395 1138.86 228.812L1094.68 184.426C1093.94 183.653 1092.86 183.307 1091.82 183.509 1083.21 185.404 1077.06 193.047 1077.02 201.9L1077.02 268.096C1077.02 269.835 1078.42 271.244 1080.15 271.244L1136.63 271.244C1138.36 271.244 1139.77 269.835 1139.77 268.096L1139.77 231.025ZM964.051 559.44 964.051 502.088C964.051 500.348 962.64 498.943 960.906 498.946 960.076 498.949 959.292 499.279 958.702 499.865L877.998 580.999 964.051 580.999 964.051 559.44Z" fill="#3B3838" fill-rule="evenodd" transform="matrix(1 0 0 1.00099 -8.99675 -82.0792)"/><path d="M1261.86 284.026 1180.43 284.026C1178.7 284.026 1177.3 285.434 1177.3 287.17L1177.3 377.72C1177.3 386.873 1183.42 395.249 1192.35 396.997 1202.51 399.075 1212.43 392.485 1214.5 382.278 1214.76 381.028 1214.88 379.754 1214.88 378.478L1214.88 347.829C1214.87 346.583 1214.13 345.458 1212.99 344.963 1203.64 340.434 1199.72 329.149 1204.23 319.757 1208.74 310.366 1219.97 306.423 1229.32 310.953 1238.67 315.482 1242.59 326.767 1238.08 336.159 1236.24 340.005 1233.15 343.109 1229.32 344.963 1228.18 345.472 1227.43 346.595 1227.4 347.848L1227.4 376.999C1227.4 393.41 1215.49 408.119 1199.22 409.709 1182.02 411.45 1166.66 398.855 1164.93 381.576 1164.83 380.522 1164.77 379.464 1164.77 378.404L1164.77 287.151C1164.78 285.415 1163.38 284.004 1161.65 283.999 1161.65 283.999 1161.64 283.999 1161.64 283.999L1155.39 283.999C1153.66 283.999 1152.26 285.406 1152.26 287.142L1152.26 326.972C1152.26 336.106 1146.13 344.492 1137.21 346.221 1127.04 348.304 1117.13 341.719 1115.05 331.513 1114.8 330.269 1114.67 329 1114.67 327.73 1114.67 324.257 1111.87 321.443 1108.41 321.443 1104.95 321.443 1102.15 324.257 1102.15 327.73L1102.15 403.57C1102.16 420.946 1088.14 435.036 1070.84 435.042 1070.84 435.042 1070.83 435.042 1070.83 435.042L1053.85 435.042C1052.42 435.053 1051.19 436.03 1050.84 437.418 1047.84 447.836 1039.73 455.979 1029.35 458.988 1027.97 459.342 1027.01 460.588 1027 462.02L1027 479.097C1027.02 499.535 1041.03 517.277 1060.84 521.94 1062.54 522.272 1064.18 521.161 1064.52 519.456 1064.55 519.24 1064.57 519.018 1064.57 518.797L1064.57 491.707C1064.57 481.284 1072.98 472.834 1083.36 472.828L1212.33 472.828C1213.9 472.844 1215.24 471.689 1215.46 470.129 1219.3 445.909 1238.21 426.912 1262.32 423.032 1263.84 422.81 1264.97 421.514 1265 419.972L1265 287.179C1265 285.443 1263.6 284.036 1261.87 284.036 1261.86 284.036 1261.86 284.036 1261.85 284.036ZM1261.86 485.42 1231.58 485.42C1229.85 485.386 1228.43 486.766 1228.39 488.502 1228.39 488.73 1228.41 488.959 1228.45 489.183 1232.34 505.428 1245.02 518.075 1261.22 521.857 1262.92 522.184 1264.56 521.067 1264.89 519.362 1264.92 519.148 1264.94 518.931 1264.94 518.713L1264.94 488.573C1264.95 486.848 1263.57 485.441 1261.85 485.42Z" fill="#3B3838" fill-rule="evenodd" transform="matrix(1 0 0 1.00099 -8.99675 -82.0792)"/><path d="M1212.28 485.999 1180.14 485.999C1178.4 485.999 1177 487.403 1177 489.137L1177 521.415C1177.02 522.948 1178.16 524.235 1179.68 524.461 1203.76 528.375 1222.65 547.252 1226.54 571.322 1226.77 572.845 1228.07 573.979 1229.61 573.999L1261.85 573.999C1263.59 573.999 1265 572.594 1265 570.861L1265 538.509C1264.97 536.976 1263.83 535.688 1262.32 535.463 1238.21 531.609 1219.28 512.776 1215.33 488.712 1215.12 487.181 1213.82 486.03 1212.28 485.999Z" fill="#3B3838" fill-rule="evenodd" transform="matrix(1 0 0 1.00099 -8.99675 -82.0792)"/><path d="M1227 327.999C1227 331.312 1224.32 333.999 1221 333.999 1217.69 333.999 1215 331.312 1215 327.999 1215 324.685 1217.69 321.999 1221 321.999 1224.32 321.999 1227 324.685 1227 327.999Z" fill="#3B3838" fill-rule="evenodd" transform="matrix(1 0 0 1.00099 -8.99675 -82.0792)"/><path d="M1277.99 258.676 1246.57 258.676C1243.1 258.676 1240.29 255.858 1240.29 252.38L1240.29 231.083C1240.29 230.25 1239.97 229.444 1239.38 228.861L1194.62 183.916C1194.03 183.329 1193.24 183 1192.41 183L1180.6 183C1178.86 183 1177.46 184.409 1177.46 186.148L1177.46 219.055C1177.48 220.485 1178.45 221.724 1179.83 222.074 1193.31 225.951 1202.6 238.317 1202.59 252.38 1202.59 257.355 1201.38 262.254 1199.08 266.658 1198.26 268.192 1198.84 270.099 1200.37 270.917 1200.81 271.154 1201.31 271.282 1201.81 271.288L1278 271.288 1278 258.685ZM662.223 580.999 662.223 521.432C662.223 520.385 661.687 519.41 660.809 518.849 653.763 514.306 647.271 508.949 641.472 502.886 640.678 502.079 639.394 502.068 638.581 502.86 638.129 503.306 637.916 503.939 637.99 504.571 638 521.973 623.927 536.086 606.576 536.09L557.151 536.09C556.32 536.09 555.526 536.414 554.935 537.007L528.939 563.1C527.701 564.319 527.683 566.312 528.902 567.552 528.911 567.565 528.93 567.578 528.939 567.591L535.459 573.887 571.086 573.887C572.823 573.887 574.226 575.297 574.226 577.036L574.226 580.999 662.232 580.999ZM980.109 335.53C978.411 335.202 976.758 336.321 976.435 338.029 976.398 338.243 976.378 338.461 976.378 338.678L976.378 419.458C976.378 421.197 977.782 422.606 979.518 422.606L987.138 422.606C988.568 422.599 989.815 421.62 990.166 420.226 993.167 409.79 1001.3 401.627 1011.7 398.605 1013.09 398.256 1014.07 397.011 1014.08 395.578L1014.08 378.438C1014.06 357.966 999.991 340.197 980.109 335.53ZM1080.07 548.618 1095.77 548.618C1106.18 548.618 1114.62 540.153 1114.62 529.71L1114.62 488.737C1114.62 486.998 1113.22 485.589 1111.48 485.589L1083.21 485.589C1079.73 485.589 1076.93 488.408 1076.93 491.885L1076.93 545.47C1076.93 547.209 1078.33 548.618 1080.07 548.618ZM1265.43 439.292C1265.46 437.554 1264.08 436.119 1262.34 436.09 1262.13 436.086 1261.92 436.104 1261.71 436.143 1245.3 439.932 1232.49 452.778 1228.71 469.228 1228.38 470.934 1229.49 472.588 1231.19 472.92 1231.41 472.963 1231.63 472.981 1231.85 472.978L1262.28 472.978C1264.01 472.978 1265.42 471.568 1265.42 469.829L1265.42 439.292Z" fill="#3B3838" fill-rule="evenodd" transform="matrix(1 0 0 1.00099 -8.99675 -82.0792)"/><path d="M1077.09 570.848C1077.09 572.588 1078.5 573.999 1080.23 573.999L1161.86 573.999C1163.59 573.999 1165 572.588 1165 570.848L1165 488.837C1165 487.096 1163.59 485.686 1161.86 485.686L1130.46 485.686C1128.73 485.686 1127.33 487.096 1127.33 488.837L1127.33 529.847C1127.33 547.261 1113.27 561.38 1095.93 561.385L1080.23 561.385C1078.5 561.385 1077.09 562.796 1077.09 564.536L1077.09 570.848ZM628.145-19C626.41-19.0056 625.008-17.5987 624.998-15.8582 624.998-15.8555 624.998-15.8517 624.998-15.8489L624.998 19.9246C624.998 21.5928 625.653 23.1962 626.844 24.3824L670.633 68.3858C671.224 68.9788 672.018 69.3126 672.858 69.3126L709.771 69.3126C711.506 69.3126 712.909 67.9021 712.909 66.1616L712.909-15.8489C712.909-17.5894 711.506-19 709.771-19L628.136-19ZM879.299 372.127 907.556 372.127C911.026 372.127 913.832 369.306 913.832 365.825L913.832 286.956C913.832 285.216 912.429 283.805 910.694 283.805L879.299 283.805C877.564 283.805 876.161 285.216 876.161 286.956L876.161 368.976C876.161 370.717 877.564 372.127 879.299 372.127Z" fill="#3B3838" fill-rule="evenodd" transform="matrix(1 0 0 1.00099 -8.99675 -82.0792)"/><path d="M574.999-24.9851 574.999 66.4159C574.999 68.155 576.401 69.5645 578.135 69.5645L646.41 69.5645C648.143 69.5654 649.545 68.156 649.545 66.4178 649.545 65.5797 649.213 64.7749 648.623 64.1841L618.155 33.5875C614.632 30.0408 612.65 25.2354 612.65 20.2246L612.65-24.976 612.89-24.976C612.871-45.5464 598.698-63.3719 578.725-67.9447 577.019-68.2669 575.387-67.1437 575.064-65.4342 575.027-65.2238 575.008-65.01 575.008-64.7961L575.008-24.976ZM860.478 372.142C862.211 372.142 863.613 370.733 863.613 368.993L863.613 361.354C863.613 359.914 862.636 358.659 861.243 358.307 844.58 353.515 834.943 336.067 839.711 319.335 842.699 308.881 850.832 300.709 861.243 297.715 862.626 297.365 863.604 296.121 863.613 294.687L863.613 287.047C863.613 285.308 862.211 283.898 860.478 283.898L830.831 283.898C825.888 283.893 821.148 285.839 817.625 289.316L781.237 325.274C775.382 331.064 767.488 334.314 759.272 334.322L722.192 334.322C694.288 334.187 667.656 346.012 648.973 366.827 647.784 368.088 647.83 370.081 649.093 371.278 649.683 371.84 650.467 372.15 651.279 372.142L860.524 372.142 860.478 372.142ZM763.228 387.904C763.228 386.164 761.826 384.755 760.092 384.755L728.721 384.755C726.987 384.755 725.586 386.164 725.586 387.904L725.586 409.055C725.613 410.304 726.36 411.424 727.494 411.935 731.275 413.787 734.318 416.852 736.163 420.649 736.67 421.796 737.786 422.546 739.04 422.575L760.092 422.575C761.826 422.575 763.228 421.165 763.228 419.426L763.228 387.904ZM963.998 378.449 963.998 337.471C963.998 335.732 962.597 334.322 960.863 334.322L929.491 334.322C927.758 334.322 926.356 335.732 926.356 337.471L926.356 365.845C926.356 376.285 917.928 384.749 907.535 384.755L879.299 384.755C877.565 384.755 876.163 386.164 876.163 387.904L876.163 395.544C876.173 396.977 877.15 398.222 878.533 398.572 888.926 401.592 897.05 409.755 900.057 420.195 900.407 421.582 901.643 422.559 903.063 422.575L960.863 422.575C962.597 422.575 963.998 421.165 963.998 419.426L963.998 378.449ZM963.998 469.85 963.998 438.336C963.998 436.597 962.597 435.188 960.863 435.188L903.063 435.188C901.643 435.203 900.407 436.175 900.057 437.559 897.05 447.993 888.926 456.15 878.533 459.163 877.141 459.515 876.163 460.77 876.163 462.21L876.163 469.85C876.163 471.589 877.565 472.999 879.299 472.999L960.863 472.999C962.597 472.999 963.998 471.589 963.998 469.85Z" fill="#3B3838" fill-rule="evenodd" transform="matrix(1 0 0 1.00099 -8.99675 -82.0792)"/><path d="M724.998 428.499C724.998 432.089 722.312 434.999 718.998 434.999 715.685 434.999 712.998 432.089 712.998 428.499 712.998 424.909 715.685 421.999 718.998 421.999 722.312 421.999 724.998 424.909 724.998 428.499Z" fill="#3B3838" fill-rule="evenodd" transform="matrix(1 0 0 1.00099 -8.99675 -82.0792)"/><path d="M1047.85 283.707 982.591 283.707C979.791 283.688 977.026 283.042 974.505 281.816L974.346 281.64C970.631 279.798 967.62 276.779 965.781 273.048L965.614 272.89C964.394 270.361 963.749 267.59 963.73 264.78 963.758 264.409 963.758 264.038 963.73 263.677L963.73 211.15C963.73 209.409 962.324 207.999 960.588 207.999L929.14 207.999C927.403 207.999 925.998 209.409 925.998 211.15L925.998 318.41C925.998 320.151 927.403 321.561 929.14 321.561L970.013 321.561C981.924 321.553 993.531 325.345 1003.15 332.387 1004.39 333.298 1006.1 333.18 1007.2 332.109L1050.08 289.092C1051.31 287.86 1051.3 285.864 1050.07 284.636 1049.49 284.049 1048.69 283.718 1047.86 283.716Z" fill="#3B3838" fill-rule="evenodd" transform="matrix(1 0 0 1.00099 -8.99675 -82.0792)"/><path d="M624.998 302.499C624.998 306.089 622.312 308.999 618.998 308.999 615.685 308.999 612.998 306.089 612.998 302.499 612.998 298.909 615.685 295.999 618.998 295.999 622.312 295.999 624.998 298.909 624.998 302.499Z" fill="#3B3838" fill-rule="evenodd" transform="matrix(1 0 0 1.00099 -8.99675 -82.0792)"/><path d="M648.087 183C649.142 183 649.998 183 649.998 183L649.998 220.999C649.998 220.999 649.142 220.999 648.087 220.999L638.908 220.999C637.853 220.999 636.998 220.999 636.998 220.999L636.998 183C636.998 183 637.853 183 638.908 183Z" fill="#3B3838" fill-rule="evenodd" transform="matrix(1 0 0 1.00099 -8.99675 -82.0792)"/><path d="M586.998 120 599.998 120 599.998 170 586.998 170Z" fill="#E5E3E1" fill-rule="evenodd" transform="matrix(1 0 0 1.00099 -8.99675 -82.0792)"/><path d="M624.998 176.5C624.998 180.09 622.087 183 618.498 183 614.908 183 611.998 180.09 611.998 176.5 611.998 172.91 614.908 170 618.498 170 622.087 170 624.998 172.91 624.998 176.5Z" fill="#3B3838" fill-rule="evenodd" transform="matrix(1 0 0 1.00099 -8.99675 -82.0792)"/><path d="M1032.53 151.492C1032.5 157.989 1031.37 164.439 1029.18 170.547L1035.78 170.547C1037.37 170.495 1038.67 169.244 1038.8 167.642L1038.8 120.603C1038.73 106.059 1049.63 93.8361 1064 92.3595L1064 85.2498C1064 83.5067 1062.6 82.0939 1060.86 82.0939L973.831 82.0939C973.002 82.0939 972.2 82.4189 971.609 83.0128L965.342 89.3242C964.117 90.5587 964.126 92.5571 965.352 93.7868 965.941 94.3771 966.734 94.7076 967.563 94.7076L975.932 94.7076C1007.12 94.677 1032.45 120.083 1032.53 151.492ZM976.097 145.273 966.688 145.273C964.956 145.273 963.555 146.686 963.555 148.429L963.555 154.75C963.555 156.493 964.956 157.905 966.688 157.905L976.089 157.905C979.554 157.905 982.355 155.077 982.355 151.589 982.355 148.101 979.554 145.273 976.089 145.273ZM549.676 233.725C549.665 247.678 560.9 258.993 574.753 258.999 574.753 258.999 574.762 258.999 574.762 258.999L574.762 233.725 549.676 233.725ZM549.676 107.367 515.298 107.367C513.566 107.367 512.165 105.955 512.165 104.212L512.165-15.0832C512.349-17.0286 510.957-18.767 509.031-19L467.999-19 467.999 170.528 571.628 170.528C573.361 170.528 574.762 169.116 574.762 167.373L574.762 110.514C574.762 108.771 573.361 107.358 571.628 107.358L549.676 107.358Z" fill="#3B3838" fill-rule="evenodd" transform="matrix(1 0 0 1.00099 -8.99675 -82.0792)"/><path d="M564.935 81.9365C563.199 81.9365 561.795 80.5265 561.795 78.7868L561.795 34.6457C561.795 32.9058 560.391 31.4961 558.655 31.4961L527.232 31.4961C525.495 31.4961 524.091 32.9058 524.091 34.6457L523.999 91.3946C523.999 93.1345 525.403 94.5442 527.14 94.5442L571.124 94.5442C572.86 94.5442 574.264 93.1345 574.264 91.3946L574.264 85.0953C574.273 83.3556 572.87 81.942 571.133 81.9365 571.133 81.9365 571.124 81.9365 571.124 81.9365L564.935 81.9365ZM838.262 93.9514C846.768 93.9366 855.063 96.61 861.972 101.594 862.378 101.9 862.96 101.818 863.265 101.408 863.385 101.248 863.45 101.053 863.45 100.853 863.45 83.4464 877.517 69.3341 894.872 69.3286L960.858 69.3286C962.594 69.3286 963.998 67.9187 963.998 66.1789L963.998 29.0968C963.998 28.263 963.675 27.4664 963.093 26.8735L918.333-18.0921C917.742-18.6766 916.947-19.0027 916.116-19L873.693-19C872.862-19 872.058-18.6758 871.467-18.0921L837.92 15.5719C837.061 16.4631 836.802 17.7757 837.264 18.9253 837.984 20.9168 838.363 23.0197 838.363 25.1318 838.326 32.4131 834.133 39.0273 827.584 42.1492 826.494 42.6669 825.801 43.7602 825.792 44.9653L825.792 94.5906C825.792 95.1019 826.208 95.516 826.716 95.5141 826.799 95.5141 826.882 95.5021 826.965 95.4799 830.651 94.4516 834.447 93.9328 838.262 93.9514ZM627.789 271.108C626.052 271.104 624.648 272.509 624.639 274.249 624.639 274.251 624.639 274.255 624.639 274.258L624.639 276.565 624.879 276.565 624.879 282.79C624.879 284.003 625.581 285.106 626.681 285.624 636.139 290.004 640.267 301.244 635.899 310.729 631.53 320.214 620.326 324.351 610.868 319.971 606.794 318.087 603.525 314.81 601.65 310.729 601.132 309.65 600.052 308.957 598.86 308.941L577.525 308.941C575.788 308.941 574.384 310.351 574.384 312.091L574.384 368.849C574.384 370.589 575.788 371.999 577.525 371.999L627.031 371.999C628.066 371.981 629.017 371.459 629.59 370.6 637.81 358.152 648.516 347.54 661.013 339.428 661.89 338.866 662.426 337.891 662.426 336.843L662.426 274.258C662.426 272.518 661.022 271.108 659.285 271.108L627.789 271.108Z" fill="#3B3838" fill-rule="evenodd" transform="matrix(1 0 0 1.00099 -8.99675 -82.0792)"/><path d="M609.518 270.863 578.136 270.863C576.401 270.863 574.999 272.272 574.999 274.012L574.999 292.924C574.999 294.663 576.401 296.073 578.136 296.073L599.426 296.073C600.625 296.073 601.714 295.39 602.24 294.313 604.084 290.386 607.221 287.228 611.132 285.366 612.202 284.84 612.876 283.753 612.885 282.56L612.885 276.253 612.655 276.253 612.655 273.956C612.627 272.239 611.225 270.863 609.518 270.863ZM675.42 274.012 675.42 326.895C675.448 328.634 676.868 330.023 678.603 329.999 678.981 329.994 679.359 329.918 679.719 329.775 689.488 325.763 699.774 323.163 710.272 322.051 711.877 321.884 713.095 320.522 713.086 318.902L713.086 274.012C713.086 272.272 711.683 270.863 709.949 270.863L678.556 270.863C676.822 270.863 675.42 272.272 675.42 274.012ZM943.109 93.9682 949.916 87.1148C951.143 85.8877 951.152 83.8945 949.925 82.6617 949.335 82.0672 948.541 81.7339 947.703 81.7339L895.102 81.7339C884.706 81.7393 876.274 90.2043 876.274 100.646L876.274 116.409C876.274 118.148 877.676 119.558 879.41 119.558L912.048 119.558C913.432 119.558 914.659 118.631 915.046 117.289 918.543 105.237 928.838 96.4202 941.244 94.848 941.946 94.7554 942.592 94.4498 943.109 93.9682ZM1161.86-120 1080.27-120C1078.53-120 1077.13-118.591 1077.13-116.851L1077.13-85.3343C1077.13-83.595 1078.53-82.1854 1080.27-82.1854L1108.79-82.1854C1112.1-81.9799 1114.68-79.2135 1114.67-75.8783L1114.67-0.221221C1114.67 17.1813 1100.62 31.29 1083.29 31.2957L979.841 31.2957C978.107 31.2957 976.704 32.7053 976.704 34.4446L976.704 65.9707C976.704 67.7101 978.107 69.1196 979.841 69.1196L1115.16 69.1196C1117.02 52.5147 1126.06 37.5731 1139.89 28.2765L1139.89-31.738 1152.34-31.738 1152.34-107.405 1161.86-107.405C1163.59-107.405 1165-108.814 1165-110.554L1165-116.851C1165-118.591 1163.59-120 1161.86-120Z" fill="#3B3838" fill-rule="evenodd" transform="matrix(1 0 0 1.00099 -8.99675 -82.0792)"/><path d="M1061.04-19 934.998-19 971.721 17.9465C972.312 18.54 973.104 18.8738 973.945 18.8738L1061.03 18.8738C1062.77 18.8738 1064.17 17.4624 1064.17 15.7208L1064.17-15.8468C1064.17-17.5884 1062.77-19 1061.03-19ZM1076.73-19 1076.73 15.7208C1076.73 17.4624 1078.13 18.8738 1079.87 18.8738L1084.18 18.8738C1094.58 18.8637 1103 10.3884 1103-0.0629728L1103-19 1076.73-19ZM985.602 183 985.656 183 985.61 182.972Z" fill="#3B3838" fill-rule="evenodd" transform="matrix(1 0 0 1.00099 -8.99675 -82.0792)"/><path d="M975.967 107.109 944.573 107.294C934.212 107.355 925.844 115.799 925.844 126.193L925.844 192.247C925.844 193.984 927.247 195.393 928.981 195.393L971.927 195.393C972.951 195.395 973.901 194.896 974.492 194.061 983.661 181.153 997.842 172.727 1013.54 170.859 1014.63 170.748 1015.59 170.075 1016.06 169.082 1018.61 163.467 1019.96 157.373 1020 151.201 1019.99 126.839 1000.29 107.099 976.005 107.109 975.985 107.109 975.977 107.109 975.958 107.109ZM975.414 170.201 953.993 170.201C952.258 170.201 950.856 168.793 950.856 167.055L950.856 135.55C950.856 133.812 952.258 132.403 953.993 132.403L975.958 132.403C986.355 132.344 994.825 140.75 994.889 151.177 994.889 151.822 994.861 152.466 994.797 153.107 993.681 162.959 985.294 170.355 975.414 170.201ZM724.876 157.605 784.106 157.605C785.426 157.602 786.607 156.769 787.05 155.523L798.979 122.648 799.588 120.945C799.726 120.557 799.957 120.196 800.104 119.798 802.568 113.534 806.544 107.982 811.674 103.638 812.357 103.073 812.753 102.231 812.753 101.343L812.753 85.1466C812.753 83.4085 811.351 81.9998 809.616 81.9998L728.013 81.9998C726.278 81.9998 724.876 83.4085 724.876 85.1466L724.876 104.045C724.876 105.784 723.473 107.192 721.739 107.192L693.49 107.192C676.154 107.198 662.094 121.303 662.103 138.697L662.103 154.449C662.103 156.187 663.506 157.596 665.24 157.596L724.876 157.596ZM910.16 233.2 891.219 233.2C889.485 233.2 888.082 234.609 888.082 236.347L888.082 242.641C888.091 244.379 886.689 245.791 884.955 245.797 884.955 245.797 884.945 245.797 884.945 245.797L878.773 245.797C877.039 245.797 875.636 247.205 875.636 248.944L875.636 267.852C875.636 269.59 877.039 270.999 878.773 270.999L910.16 270.999C911.894 270.999 913.297 269.59 913.297 267.852L913.297 236.347C913.297 234.609 911.894 233.2 910.16 233.2ZM574.218 230.044 574.218 185.954C574.218 184.216 572.815 182.807 571.081 182.807L502.136 182.807C500.402 182.807 498.999 184.216 498.999 185.954L498.999 197.837C498.999 198.679 499.331 199.484 499.922 200.076L557.178 257.532C557.769 258.125 558.562 258.458 559.401 258.458L636.99 258.458C643.919 258.458 649.537 252.812 649.537 245.861L649.537 236.412C649.537 234.674 648.135 233.265 646.401 233.265L577.354 233.265C575.62 233.266 574.218 231.858 574.218 230.119 574.218 230.094 574.218 230.069 574.218 230.044Z" fill="#3B3838" fill-rule="evenodd" transform="matrix(1 0 0 1.00099 -8.99675 -82.0792)"/><path d="M618.5 195.733C611.222 195.695 604.61 191.473 601.499 184.874 600.925 183.756 599.758 183.064 598.508 183.091L590.146 183.091C588.405 183.091 586.998 184.504 586.998 186.247L586.998 217.843C586.998 219.586 588.405 220.999 590.146 220.999L621.648 220.999C623.389 220.999 624.797 219.586 624.797 217.843L624.797 198.619C624.815 196.876 623.417 195.451 621.676 195.432 621.519 195.43 621.361 195.441 621.204 195.464 620.315 195.621 619.408 195.714 618.5 195.733ZM590.146 81.9998C588.405 81.9998 586.998 83.4126 586.998 85.1558L586.998 167.302C586.998 169.046 588.405 170.458 590.146 170.458L598.508 170.458C599.767 170.484 600.934 169.784 601.499 168.658 605.897 159.243 617.074 155.186 626.473 159.596 630.445 161.464 633.649 164.67 635.511 168.658 636.075 169.781 637.233 170.482 638.483 170.458L646.854 170.458C648.595 170.458 650.002 169.046 650.002 167.302L650.002 136.356C651.53 113.016 670.772 94.8156 694.108 94.6329L709.849 94.6329C711.59 94.6329 712.998 93.2201 712.998 91.4769L712.998 85.1651C713.007 83.4219 711.6 82.0054 709.859 81.9998 709.859 81.9998 709.849 81.9998 709.849 81.9998L590.146 81.9998Z" fill="#3B3838" fill-rule="evenodd" transform="matrix(1 0 0 1.00099 -8.99675 -82.0792)"/><path d="M786.15 170C787.171 170 787.998 170 787.998 170L787.998 220.999C787.998 220.999 787.171 220.999 786.15 220.999L701.846 220.999C700.825 220.999 699.998 220.999 699.998 220.999L699.998 170C699.998 170 700.825 170 701.846 170Z" fill="#3B3838" fill-rule="evenodd" transform="matrix(1 0 0 1.00099 -8.99675 -82.0792)"/><path d="M787.668 242.535 787.668 236.184C787.677 234.43 786.274 233.005 784.539 232.999 784.539 232.999 784.53 232.999 784.53 232.999L765.704 232.999C763.969 232.994 762.567 234.412 762.558 236.166 762.558 236.168 762.558 236.172 762.558 236.175L762.558 264.783C762.567 268.291 759.761 271.138 756.291 271.144 756.291 271.144 756.282 271.144 756.282 271.144L728.136 271.144C726.401 271.144 724.998 272.565 724.998 274.319L724.998 318.823C724.998 320.577 726.401 321.999 728.136 321.999L758.682 321.999C763.619 321.999 768.353 320.036 771.878 316.535L808.302 280.268C814.162 274.431 822.052 271.155 830.275 271.144L859.861 271.144C861.596 271.144 862.998 269.722 862.998 267.968L862.998 248.896C862.998 247.142 861.596 245.72 859.861 245.72L790.796 245.72C789.061 245.715 787.658 244.289 787.668 242.535Z" fill="#3B3838" fill-rule="evenodd" transform="matrix(1 0 0 1.00099 -8.99675 -82.0792)"/><path d="M687.094 230.418 687.094 173.277C687.094 171.525 685.692 170.105 683.958 170.105L665.134 170.105C663.4 170.105 661.998 171.525 661.998 173.277L661.998 233.598C661.989 247.621 673.232 258.993 687.094 258.999L746.71 258.999C748.444 258.999 749.846 257.579 749.846 255.827L749.846 236.77C749.846 235.018 748.444 233.598 746.71 233.598L690.23 233.598C688.496 233.598 687.094 232.179 687.094 230.427ZM909.863 132.01 852.976 132.01C849.508 132.144 846.806 135.095 846.944 138.601 847.064 141.918 849.693 144.578 852.976 144.705L884.767 144.705C886.501 144.705 887.903 146.125 887.903 147.877L887.903 217.722C887.903 219.474 889.305 220.894 891.039 220.894L909.863 220.894C911.596 220.894 912.998 219.474 912.998 217.722L912.998 135.172C912.998 133.42 911.596 132 909.863 132Z" fill="#3B3838" fill-rule="evenodd" transform="matrix(1 0 0 1.00099 -8.99675 -82.0792)"/><path d="M724.998 258.378 725.92 258.378 725.92 270.999 724.998 270.999ZM872.92 153.332 847.349 153.332C844.722 153.336 842.371 154.99 841.468 157.475L838.334 165.926C837.43 168.42 835.07 170.08 832.434 170.077L805.296 170.077C803.563 170.077 802.162 171.488 802.162 173.228L802.162 229.994C802.162 231.734 803.563 233.145 805.296 233.145L872.864 233.145C874.597 233.145 875.998 231.734 875.998 229.994L875.998 156.483C875.998 154.764 874.625 153.363 872.92 153.332ZM855.35 112.467C851.875 109.724 847.791 107.843 843.45 107L837.9 107C825.917 107 815.538 113.746 811.426 125.088L801.222 153.332C801.222 153.332 801.314 153.332 801.222 153.332 801.775 155.842 804.061 157.577 806.615 157.428L820.478 157.428C823.419 157.255 826.111 155.731 827.788 153.295L839.246 121.65C839.698 120.406 840.878 119.581 842.196 119.584L852.557 119.584C854.825 119.555 856.641 117.682 856.613 115.4 856.604 114.291 856.143 113.234 855.35 112.467Z" fill="#3B3838" fill-rule="evenodd" transform="matrix(1 0 0 1.00099 -8.99675 -82.0792)"/><path d="M1064 113.5C1064 117.09 1061.32 120 1058 120 1054.69 120 1052 117.09 1052 113.5 1052 109.91 1054.69 107 1058 107 1061.32 107 1064 109.91 1064 113.5Z" fill="#E5E3E1" fill-rule="evenodd" transform="matrix(1 0 0 1.00099 -8.99675 -82.0792)"/><path d="M950.729 226.999 937.998 226.999 937.998 120 976.174 120C993.749 120 1008 134.082 1008 151.454 1008 151.46 1008 151.466 1008 151.472 1008.01 168.844 993.767 182.935 976.193 182.945 976.182 182.945 976.182 182.945 976.174 182.945L976.174 170.354C986.73 170.354 995.279 161.9 995.279 151.472 995.279 141.045 986.73 132.591 976.174 132.591L950.729 132.591 950.729 226.999Z" fill="#28A7E9" fill-rule="evenodd" transform="matrix(1 0 0 1.00099 -8.99675 -82.0792)"/><path d="M914.011 195.999 831.998 195.999 831.998 183.43 914.011 183.43C920.984 183.43 926.636 177.798 926.636 170.86L926.636 127.026C926.636 116.651 935.041 108.231 945.449 108.175L976.997 108 976.997 120.57 945.449 120.746C941.977 120.73 939.16 123.538 939.141 127.017 939.141 127.02 939.141 127.023 939.141 127.026L939.141 170.86C939.095 184.748 927.864 195.985 914.02 195.999Z" fill="#D83F26" fill-rule="evenodd" transform="matrix(1 0 0 1.00099 -8.99675 -82.0792)"/><path d="M1164.7 263.999 1070.07 119.788C1068.13 116.915 1068.89 113.014 1071.76 111.074 1074.62 109.135 1078.52 109.893 1080.46 112.766 1080.5 112.811 1080.53 112.856 1080.55 112.903L1152.15 222.002 1152.15 139.744C1152.15 129.344 1160.57 120.914 1170.96 120.914 1170.97 120.914 1170.97 120.914 1170.98 120.914L2871.72 120.914C2875.18 120.914 2877.99 123.724 2877.99 127.191 2877.99 130.658 2875.18 133.467 2871.72 133.467L1170.98 133.467C1167.51 133.467 1164.71 136.277 1164.71 139.744L1164.71 263.999Z" fill="#744FA0" fill-rule="evenodd" transform="matrix(1 0 0 1.00099 -8.99675 -82.0792)"/><path d="M1039 258.999 1017.75 198.999 1006 203.396 1025.68 258.999Z" fill="#FFC20C" fill-rule="evenodd" transform="matrix(1 0 0 1.00099 -8.99675 -82.0792)"/><path d="M656.635 258.99 581.362 258.99C564.036 258.986 549.99 244.9 549.999 227.53L549.999 114.29C549.999 110.816 552.808 108 556.274 108 559.739 108 562.548 110.816 562.548 114.29L562.548 227.54C562.539 237.961 570.966 246.414 581.362 246.419L656.626 246.419C660.091 246.425 662.901 243.612 662.91 240.138 662.91 240.132 662.91 240.126 662.91 240.12L662.91 139.459C662.901 122.093 676.937 108.01 694.263 108L750.724 108C754.189 108 756.998 110.816 756.998 114.29 756.998 117.764 754.189 120.58 750.724 120.58L694.263 120.58C683.867 120.585 675.44 129.038 675.449 139.459L675.449 240.129C675.449 250.551 667.022 258.999 656.626 258.999Z" fill="#744FA0" fill-rule="evenodd" transform="matrix(1 0 0 1.00099 -8.99675 -82.0792)"/><path d="M920.919 258.999 900.6 258.999C892.685 259.008 885.601 254.074 882.849 246.633L868.949 208.802 845.306 208.718C841.834 208.734 839.017 205.926 838.998 202.447 838.998 202.444 838.998 202.44 838.998 202.438 839.007 198.958 841.815 196.143 845.288 196.148 845.297 196.148 845.297 196.148 845.306 196.148L868.949 196.148C874.306 196.148 879.081 199.529 880.845 204.577L894.717 242.28C895.631 244.762 897.986 246.412 900.628 246.411L920.946 246.411C924.419 246.427 927.236 243.619 927.254 240.14 927.254 240.137 927.254 240.133 927.254 240.131L927.254 189.85C927.291 179.407 935.76 170.969 946.169 171L977.69 171C981.162 170.984 983.979 173.792 983.997 177.271 983.997 177.273 983.997 177.277 983.997 177.28 983.989 180.759 981.18 183.575 977.708 183.57 977.698 183.57 977.698 183.57 977.69 183.57L946.169 183.57C942.696 183.554 939.879 186.362 939.861 189.841 939.861 189.844 939.861 189.847 939.861 189.85L939.861 240.131C939.861 245.133 937.875 249.949 934.319 253.479 930.755 257.024 925.933 259.009 920.919 258.999Z" fill="#FFC20E" fill-rule="evenodd" transform="matrix(1 0 0 1.00099 -8.99675 -82.0792)"/><path d="M1161.28 269.998C1156.01 269.996 1151.1 267.312 1148.23 262.865L1076.71 153.287 1076.71 240.774C1076.72 251.217 1068.3 259.687 1057.92 259.698L1031.27 259.698C1027.81 259.698 1025 256.873 1025 253.39 1025 249.906 1027.81 247.082 1031.27 247.082L1057.91 247.082C1061.37 247.082 1064.17 244.262 1064.17 240.783 1064.17 240.78 1064.17 240.776 1064.17 240.774L1064.17 111.039 1158.71 255.992C1159.66 257.445 1161.6 257.848 1163.05 256.892 1163.93 256.311 1164.46 255.326 1164.46 254.27L1164.46-238.696C1164.46-242.177 1167.27-244.999 1170.72-244.999 1174.19-244.999 1177-242.177 1177-238.696L1177 254.223C1177.05 262.878 1170.12 269.941 1161.51 269.998 1161.44 269.999 1161.36 269.999 1161.28 269.998Z" fill="#D83F26" fill-rule="evenodd" transform="matrix(1 0 0 1.00099 -8.99675 -82.0792)"/><path d="M1011.12 178 1000.81 170.53C1008.06 161.05 1009.19 148.348 1003.73 137.777 998.221 127.171 987.12 120.503 974.997 120.526L974.997 108C999.852 108 1020 127.627 1020 151.842 1020.03 161.281 1016.91 170.469 1011.12 178Z" fill="#D83F26" fill-rule="evenodd" transform="matrix(1 0 0 1.00099 -8.99675 -82.0792)"/><path d="M765.039 258.987 663.887 258.987C654.125 259.196 644.492 256.787 635.965 252.01 629.941 248.99 624.747 246.368 613.674 246.368L582.286 246.368C571.888 246.363 563.454 237.894 563.454 227.448L563.454 113.92C563.454 110.44 560.649 107.619 557.179 107.619L-1138 107.619-1138 94.9998 557.207 94.9998C567.607 94.9998 576.04 103.468 576.04 113.92L576.04 227.448C576.04 230.928 578.844 233.748 582.314 233.748L613.702 233.748C623.464 233.54 633.097 235.949 641.621 240.725 647.647 243.755 652.851 246.377 663.914 246.377L765.039 246.377C767.678 246.38 770.04 244.72 770.944 242.226L783.216 208.352 794.998 212.67 782.745 246.525C780.042 254.007 772.965 258.988 765.039 258.987Z" fill="#28A7E9" fill-rule="evenodd" transform="matrix(1 0 0 1.00099 -8.99675 -82.0792)"/><path d="M1176 75.9999C1176 79.3136 1173.31 81.9999 1170 81.9999 1166.68 81.9999 1164 79.3136 1164 75.9999 1164 72.6861 1166.68 69.9998 1170 69.9998 1173.31 69.9998 1176 72.6861 1176 75.9999Z" fill="#F7904D" fill-rule="evenodd" transform="matrix(1 0 0 1.00099 -8.99675 -82.0792)"/><path d="M1152 245.999C1152 249.312 1149.31 251.999 1146 251.999 1142.68 251.999 1140 249.312 1140 245.999 1140 242.685 1142.68 239.999 1146 239.999 1149.31 239.999 1152 242.685 1152 245.999Z" fill="#F7904D" fill-rule="evenodd" transform="matrix(1 0 0 1.00099 -8.99675 -82.0792)"/><path d="M1026 225.999C1026 229.312 1023.31 231.999 1020 231.999 1016.68 231.999 1014 229.312 1014 225.999 1014 222.685 1016.68 219.999 1020 219.999 1023.31 219.999 1026 222.685 1026 225.999Z" fill="#F7904D" fill-rule="evenodd" transform="matrix(1 0 0 1.00099 -8.99675 -82.0792)"/><path d="M933.222 245.999 900.606 245.999C897.427 245.999 894.589 243.993 893.52 240.986L853.884 129.889C851.608 123.676 845.721 119.55 839.142 119.557 832.564 119.55 826.677 123.676 824.401 129.889L800.538 195.673 832.831 195.673 832.831 208.247 800.538 208.247C796.447 208.247 792.614 206.246 790.265 202.872 787.925 199.515 787.353 195.217 788.754 191.364L812.617 125.626C816.698 114.428 827.303 106.988 839.161 107 851.037 107 861.642 114.442 865.696 125.626L904.098 233.415 933.166 233.415C936.63 233.426 939.441 230.613 939.45 227.133 939.45 227.13 939.45 227.126 939.45 227.123L951.998 227.123C951.98 237.546 943.587 245.989 933.222 245.999Z" fill="#28A7E9" fill-rule="evenodd" transform="matrix(1 0 0 1.00099 -8.99675 -82.0792)"/><path d="M1131.61 576.997C1128.97 577.002 1126.61 575.354 1125.7 572.872L993.928 208.544C991.381 200.816 984.172 195.595 976.049 195.595L844.284 195.595C840.814 195.595 837.998 192.777 837.998 189.298 837.998 185.82 840.814 183 844.284 183L976.049 183C989.535 182.966 1001.54 191.567 1005.85 204.363L1137.62 568.571C1138.8 571.842 1137.11 575.455 1133.85 576.645 1133.13 576.895 1132.38 577.015 1131.61 576.997Z" fill="#A1CD3A" fill-rule="evenodd" transform="matrix(1 0 0 1.00099 -8.99675 -82.0792)"/><path d="M1011.7 208.999C1009.04 208.992 1006.67 207.292 1005.81 204.764 1001.45 192.119 989.577 183.64 976.253 183.633 972.784 183.623 969.989 180.793 969.997 177.312 969.989 173.835 972.794 171.011 976.253 171 994.901 171.017 1011.5 182.888 1017.62 200.584 1018.8 203.842 1017.12 207.441 1013.88 208.623 1013.18 208.876 1012.45 209.003 1011.71 208.999Z" fill="#FFC20E" fill-rule="evenodd" transform="matrix(1 0 0 1.00099 -8.99675 -82.0792)"/><path d="M913.998 190C913.998 193.313 911.312 195.999 907.998 195.999 904.684 195.999 901.998 193.313 901.998 190 901.998 186.686 904.684 184 907.998 184 911.312 184 913.998 186.686 913.998 190Z" fill="#56A84F" fill-rule="evenodd" transform="matrix(1 0 0 1.00099 -8.99675 -82.0792)"/><path d="M1043 310.999C1043 314.312 1040.31 316.999 1037 316.999 1033.68 316.999 1031 314.312 1031 310.999 1031 307.685 1033.68 304.999 1037 304.999 1040.31 304.999 1043 307.685 1043 310.999Z" fill="#56A84F" fill-rule="evenodd" transform="matrix(1 0 0 1.00099 -8.99675 -82.0792)"/><path d="M937.998 239.999C937.998 243.312 935.312 245.999 931.998 245.999 928.684 245.999 925.998 243.312 925.998 239.999 925.998 236.685 928.684 233.999 931.998 233.999 935.312 233.999 937.998 236.685 937.998 239.999Z" fill="#2E76BC" fill-rule="evenodd" transform="matrix(1 0 0 1.00099 -8.99675 -82.0792)"/><path d="M823.998 126C823.998 129.313 821.312 132 817.998 132 814.684 132 811.998 129.313 811.998 126 811.998 122.686 814.684 120 817.998 120 821.312 120 823.998 122.686 823.998 126Z" fill="#2E76BC" fill-rule="evenodd" transform="matrix(1 0 0 1.00099 -8.99675 -82.0792)"/><path d="M599.998 239.999C599.998 243.312 597.312 245.999 593.998 245.999 590.684 245.999 587.998 243.312 587.998 239.999 587.998 236.685 590.684 233.999 593.998 233.999 597.312 233.999 599.998 236.685 599.998 239.999Z" fill="#2E76BC" fill-rule="evenodd" transform="matrix(1 0 0 1.00099 -8.99675 -82.0792)"/><path d="M561.999 113C561.999 116.313 559.313 119 555.999 119 552.685 119 549.999 116.313 549.999 113 549.999 109.686 552.685 107 555.999 107 559.313 107 561.999 109.686 561.999 113Z" fill="#5D379E" fill-rule="evenodd" transform="matrix(1 0 0 1.00099 -8.99675 -82.0792)"/><path d="M756.998 114C756.998 117.313 754.312 120 750.998 120 747.684 120 744.998 117.313 744.998 114 744.998 110.686 747.684 108 750.998 108 754.312 108 756.998 110.686 756.998 114Z" fill="#4E2C7E" fill-rule="evenodd" transform="matrix(1 0 0 1.00099 -8.99675 -82.0792)"/><path d="M831.998 195.999 694.718 195.999C684.358 195.975 675.97 187.468 675.998 177L675.998 139.001C675.998 128.509 684.376 120 694.718 120L744.638 120 744.638 132.67 694.718 132.67C691.268 132.68 688.469 135.513 688.478 139.001L688.478 177C688.469 180.488 691.268 183.321 694.718 183.331L831.998 183.331 831.998 195.999Z" fill="#D83F26" fill-rule="evenodd" transform="matrix(1 0 0 1.00099 -8.99675 -82.0792)"/><path d="M748.998 126C748.998 129.313 746.312 132 742.998 132 739.684 132 736.998 129.313 736.998 126 736.998 122.686 739.684 120 742.998 120 746.312 120 748.998 122.686 748.998 126Z" fill="#B23E25" fill-rule="evenodd" transform="matrix(1 0 0 1.00099 -8.99675 -82.0792)"/><path d="M1012 175C1012 178.313 1009.31 181 1006 181 1002.68 181 999.997 178.313 999.997 175 999.997 171.686 1002.68 169 1006 169 1009.31 169 1012 171.686 1012 175Z" fill="#B23E25" fill-rule="evenodd" transform="matrix(1 0 0 1.00099 -8.99675 -82.0792)"/><path d="M1058 271.999C1054.68 271.999 1052 269.175 1052 265.691L1052 121.309C1052 117.825 1054.68 115 1058 115 1061.31 115 1064 117.825 1064 121.309L1064 265.682C1064 269.166 1061.31 271.99 1058 271.99Z" fill="#744FA0" fill-rule="evenodd" transform="matrix(1 0 0 1.00099 -8.99675 -82.0792)"/><path d="M424.999 102C424.999 105.313 422.313 108 418.999 108 415.685 108 412.999 105.313 412.999 102 412.999 98.6861 415.685 95.9998 418.999 95.9998 422.313 95.9998 424.999 98.6861 424.999 102Z" fill="#2E76BC" fill-rule="evenodd" transform="matrix(1 0 0 1.00099 -8.99675 -82.0792)"/><path d="M71.9999 102C71.9999 105.313 69.3135 108 65.9998 108 62.6861 108 59.9998 105.313 59.9998 102 59.9998 98.6861 62.6861 95.9998 65.9998 95.9998 69.3135 95.9998 71.9999 98.6861 71.9999 102Z" fill="#2E76BC" fill-rule="evenodd" transform="matrix(1 0 0 1.00099 -8.99675 -82.0792)"/><path d="M1058.07 127C1054.72 127 1052 124.186 1052 120.711 1051.95 113.835 1056.35 107.73 1062.83 105.66 1069.25 103.67 1076.18 106.283 1079.86 112.095 1081.16 113.981 1081.36 116.425 1080.39 118.502 1079.44 120.559 1077.45 121.917 1075.2 122.031 1072.96 122.125 1070.85 120.953 1069.72 118.988 1069.01 117.819 1067.61 117.281 1066.31 117.677 1065 118.091 1064.12 119.325 1064.13 120.711 1064.13 124.195 1061.41 127 1058.06 127Z" fill="#744FA0" fill-rule="evenodd" transform="matrix(1 0 0 1.00099 -8.99675 -82.0792)"/><path d="M756.998 114C756.998 117.313 754.312 120 750.998 120 747.684 120 744.998 117.313 744.998 114 744.998 110.686 747.684 108 750.998 108 754.312 108 756.998 110.686 756.998 114Z" fill="#5D379E" fill-rule="evenodd" transform="matrix(1 0 0 1.00099 -8.99675 -82.0792)"/><path d="M674.998 214.999C674.998 218.312 672.312 220.999 668.998 220.999 665.684 220.999 662.998 218.312 662.998 214.999 662.998 211.685 665.684 208.999 668.998 208.999 672.312 208.999 674.998 211.685 674.998 214.999Z" fill="#5D379E" fill-rule="evenodd" transform="matrix(1 0 0 1.00099 -8.99675 -82.0792)"/><path d="M794.514 211.999 782.998 207.874C785.639 200.752 792.544 196.007 800.276 195.999L831.998 195.999 831.998 208.043 800.276 208.043C797.699 208.044 795.394 209.624 794.514 211.999Z" fill="#28A7E9" fill-rule="evenodd" transform="matrix(1 0 0 1.00099 -8.99675 -82.0792)"/><path d="M1064 264.999C1064 268.312 1061.31 270.999 1058 270.999 1054.68 270.999 1052 268.312 1052 264.999 1052 261.685 1054.68 258.999 1058 258.999 1061.31 258.999 1064 261.685 1064 264.999Z" fill="#4E2C7E" fill-rule="evenodd" transform="matrix(1 0 0 1.00099 -8.99675 -82.0792)"/><path d="M1064 264.999C1064 268.312 1061.31 270.999 1058 270.999 1054.68 270.999 1052 268.312 1052 264.999 1052 261.685 1054.68 258.999 1058 258.999 1061.31 258.999 1064 261.685 1064 264.999Z" fill="#5D379E" fill-rule="evenodd" transform="matrix(1 0 0 1.00099 -8.99675 -82.0792)"/><path d="M782.452 246.999 694.852 246.999C684.429 246.988 675.988 238.443 675.998 227.911L675.998 189.738C675.988 179.207 684.429 170.661 694.852 170.651L732.56 170.651 732.56 183.372 694.852 183.372C691.377 183.378 688.565 186.227 688.57 189.738L688.57 227.911C688.565 231.422 691.377 234.271 694.852 234.277L782.452 234.277C785.1 234.277 787.461 232.599 788.356 230.083L824.625 129.447C826.841 123.15 832.759 118.958 839.374 119 845.999 118.954 851.923 123.156 854.133 129.466L868.863 170.492C870.965 176.345 870.114 182.864 866.585 187.967 863.061 193.064 857.297 196.1 851.144 196.102L845.656 196.102 845.656 183.372 851.144 183.372C854.609 183.384 857.426 180.556 857.438 177.056 857.439 176.298 857.307 175.546 857.047 174.835L842.307 133.8C841.895 132.524 840.701 131.675 839.374 131.712 838.043 131.671 836.845 132.521 836.432 133.8L800.163 234.454C797.456 241.981 790.379 246.994 782.452 246.999Z" fill="#A1CD3A" fill-rule="evenodd" transform="matrix(1 0 0 1.00099 -8.99675 -82.0792)"/><path d="M783.998 240.499C783.998 244.089 781.312 246.999 777.998 246.999 774.684 246.999 771.998 244.089 771.998 240.499 771.998 236.909 774.684 233.999 777.998 233.999 781.312 233.999 783.998 236.909 783.998 240.499Z" fill="#56A84F" fill-rule="evenodd" transform="matrix(1 0 0 1.00099 -8.99675 -82.0792)"/><path d="M737.998 177C737.998 180.314 735.312 183 731.998 183 728.684 183 725.998 180.314 725.998 177 725.998 173.687 728.684 171 731.998 171 735.312 171 737.998 173.687 737.998 177Z" fill="#56A84F" fill-rule="evenodd" transform="matrix(1 0 0 1.00099 -8.99675 -82.0792)"/><path d="M850.998 201.999C850.998 205.312 848.087 207.999 844.498 207.999 840.908 207.999 837.998 205.312 837.998 201.999 837.998 198.686 840.908 195.999 844.498 195.999 848.087 195.999 850.998 198.686 850.998 201.999Z" fill="#F7904D" fill-rule="evenodd" transform="matrix(1 0 0 1.00099 -8.99675 -82.0792)"/><path d="M837.998 189.501C837.998 193.089 835.312 195.999 831.998 195.999 828.684 195.999 825.998 193.089 825.998 189.501 825.998 185.911 828.684 183 831.998 183 835.312 183 837.998 185.911 837.998 189.501Z" fill="#B23E25" fill-rule="evenodd" transform="matrix(1 0 0 1.00099 -8.99675 -82.0792)"/><path d="M837.998 201.999C837.998 205.312 835.312 207.999 831.998 207.999 828.684 207.999 825.998 205.312 825.998 201.999 825.998 198.686 828.684 195.999 831.998 195.999 835.312 195.999 837.998 198.686 837.998 201.999Z" fill="#2E76BC" fill-rule="evenodd" transform="matrix(1 0 0 1.00099 -8.99675 -82.0792)"/><path d="M850.998 189.501C850.998 193.089 848.087 195.999 844.498 195.999 840.908 195.999 837.998 193.089 837.998 189.501 837.998 185.911 840.908 183 844.498 183 848.087 183 850.998 185.911 850.998 189.501Z" fill="#56A84F" fill-rule="evenodd" transform="matrix(1 0 0 1.00099 -8.99675 -82.0792)"/><path d="M743.998 232.999C750.25 232.999 750.25 235.85 750.25 239.499L750.25 232.999 743.998 232.999ZM768.998 232.999C762.746 232.999 762.627 235.85 762.627 239.499L762.627 232.999 768.998 232.999ZM743.998 258.999C750.25 258.999 750.25 254.742 750.25 251.149L750.25 258.999 743.998 258.999Z" fill="#3B3838" fill-rule="evenodd" transform="matrix(1 0 0 1.00099 -8.99675 -82.0792)"/></g></svg>